<?xml version="1.0" standalone="no"?>
<!DOCTYPE svg PUBLIC "-//W3C//DTD SVG 1.1//EN" "http://www.w3.org/Graphics/SVG/1.1/DTD/svg11.dtd" >
<svg xmlns="http://www.w3.org/2000/svg" xmlns:xlink="http://www.w3.org/1999/xlink" version="1.1">
    <metadata>
        Created by FontForge 20170924 at Fri Apr 24 14:37:10 2015
        By www-data
        Copyright (URW)++,Copyright 2015 by (URW)++ Design &#38; Development
    </metadata>
    <defs>
        <font id="UHCSans-Bold" horiz-adv-x="560">
            <font-face
                    font-family="UHC Sans"
                    font-weight="700"
                    font-stretch="normal"
                    units-per-em="1000"
                    panose-1="0 0 8 0 0 0 0 0 0 0"
                    ascent="667"
                    descent="-333"
                    x-height="483"
                    cap-height="667"
                    bbox="-140 -273 1210 1006"
                    underline-thickness="86"
                    underline-position="-101"
                    stemh="123"
                    stemv="133"
                    unicode-range="U+0020-FB04"
            />
            <missing-glyph horiz-adv-x="250"
            />
            <glyph glyph-name="fi" unicode="fi" horiz-adv-x="570"
                   d="M311 667v-98c-19 2 -30 3 -46 3c-44 0 -58 -12 -58 -51v-38h96v-89h-94v-394h-132v394h-79v89h79v25c0 63 8 92 33 118c27 30 71 44 132 44c17 0 30 -1 69 -3zM447 681c40 0 74 -34 74 -75s-34 -75 -75 -75s-75 34 -75 75c0 42 34 75 76 75zM511 483v-483h-132v483h132z
"/>
            <glyph glyph-name="fl" unicode="fl" horiz-adv-x="570"
                   d="M311 667v-98c-19 2 -30 3 -46 3c-44 0 -58 -12 -58 -51v-38h96v-89h-94v-394h-132v394h-79v89h79v25c0 63 8 92 33 118c27 30 71 44 132 44c17 0 30 -1 69 -3zM511 667v-667h-132v667h132z"/>
            <glyph glyph-name="ff" unicode="ff" horiz-adv-x="624"
                   d="M311 667v-98c-19 2 -30 3 -46 3c-44 0 -58 -12 -58 -51v-38h172v25c0 63 8 92 33 118c28 29 72 44 132 44c18 0 30 -1 70 -3v-98c-19 2 -30 3 -46 3c-46 0 -58 -10 -58 -51v-38h96v-89h-95v-394h-132v394h-170v-394h-132v394h-79v89h79v25c0 63 8 92 33 118
c27 30 71 44 132 44c18 0 30 -1 69 -3z"/>
            <glyph glyph-name="ffi" unicode="ffi" horiz-adv-x="873"
                   d="M311 667v-98c-19 2 -30 3 -46 3c-44 0 -58 -12 -58 -51v-38h172v25c0 63 8 92 33 118c28 29 72 44 132 44c18 0 30 -1 70 -3v-98c-19 2 -30 3 -46 3c-46 0 -58 -10 -58 -51v-38h96v-89h-95v-394h-132v394h-170v-394h-132v394h-79v89h79v25c0 63 8 92 33 118
c27 30 71 44 132 44c18 0 30 -1 69 -3zM750 681c40 0 74 -34 74 -75s-34 -75 -75 -75s-75 34 -75 75c0 42 34 75 76 75zM814 483v-483h-132v483h132z"/>
            <glyph glyph-name="ffl" unicode="ffl" horiz-adv-x="873"
                   d="M311 667v-98c-19 2 -30 3 -46 3c-44 0 -58 -12 -58 -51v-38h172v25c0 63 8 92 33 118c28 29 72 44 132 44c18 0 30 -1 70 -3v-98c-19 2 -30 3 -46 3c-46 0 -58 -10 -58 -51v-38h96v-89h-95v-394h-132v394h-170v-394h-132v394h-79v89h79v25c0 63 8 92 33 118
c27 30 71 44 132 44c18 0 30 -1 69 -3zM814 667v-667h-132v667h132z"/>
            <glyph glyph-name=".notdef" horiz-adv-x="250"
            />
            <glyph glyph-name="space" unicode=" " horiz-adv-x="250"
            />
            <glyph glyph-name="exclam" unicode="!" horiz-adv-x="318"
                   d="M239 667v-178l-37 -286h-67l-36 284v180h140zM170 141c40 0 74 -34 74 -75s-34 -75 -75 -75s-75 34 -75 75c0 42 34 75 76 75z"/>
            <glyph glyph-name="quotedbl" unicode="&#x22;" horiz-adv-x="378"
                   d="M314 399h-69l-24 268h117zM133 399h-69l-24 268h117z"/>
            <glyph glyph-name="numbersign" unicode="#"
                   d="M25 277h97l24 122h-79v84h96l37 185h92l-37 -185h109l37 185h92l-38 -185h79v-84h-95l-25 -122h79v-84h-96l-38 -193h-92l39 193h-109l-38 -193h-92l38 193h-80v84zM214 277h108l25 122h-109z"/>
            <glyph glyph-name="dollar" unicode="$"
                   d="M249 93v190c-3 1 -4 1 -6 2c-1 0 -5 1 -13 4c-3 1 -9 2 -16 4c-128 32 -182 88 -182 188c0 64 23 114 70 151c39 31 75 43 147 52v72h55v-72c129 -13 204 -85 211 -199h-133c-1 49 -37 91 -78 90v-166c89 -22 128 -38 166 -68c44 -34 68 -86 68 -149
c0 -51 -18 -96 -53 -132c-45 -47 -93 -67 -181 -76v-79h-55v79c-142 11 -219 89 -233 233h133v-3c0 -63 37 -108 100 -121zM249 422v153c-52 -2 -84 -32 -84 -78c0 -41 19 -58 84 -75zM304 268v-175c67 11 101 42 101 92c0 42 -23 61 -101 83z"/>
            <glyph glyph-name="percent" unicode="%" horiz-adv-x="819"
                   d="M189 668c102 0 155 -65 155 -188c0 -113 -57 -176 -159 -176c-101 0 -154 61 -154 176c0 117 59 188 158 188zM189 598c-44 0 -62 -35 -62 -120c0 -75 17 -104 60 -104c42 0 62 35 62 107c0 79 -19 117 -60 117zM262 -21h-93l388 696h91zM635 352c100 0 153 -63 153 -182
c0 -116 -58 -183 -159 -183c-98 0 -154 66 -154 181c0 116 59 184 160 184zM634 282c-43 0 -63 -35 -63 -109c0 -84 16 -116 60 -116c42 0 62 36 62 109c0 80 -18 116 -59 116z"/>
            <glyph glyph-name="ampersand" unicode="&#x26;" horiz-adv-x="663"
                   d="M470 322h115c-6 -60 -31 -124 -64 -164l135 -158h-161l-55 66c-49 -51 -117 -80 -186 -80c-129 0 -219 81 -219 197c0 83 56 156 151 198c-44 51 -63 93 -63 138c0 91 75 157 179 157c101 0 174 -67 174 -159c0 -70 -40 -129 -116 -168l86 -105c10 16 20 46 24 78z
M295 427c49 30 70 57 70 93s-27 62 -62 62c-36 0 -63 -25 -63 -58c0 -26 17 -56 55 -97zM369 155l-115 139c-62 -31 -90 -65 -90 -107c0 -50 42 -90 95 -90c40 0 76 19 110 58z"/>
            <glyph glyph-name="quoteright" unicode="&#x2019;" horiz-adv-x="275"
                   d="M69 384v64c40 4 71 34 73 69c-5 -1 -9 -2 -12 -2h-4c-39 0 -73 35 -73 74c0 42 34 77 75 77c51 0 86 -43 86 -105c0 -48 -15 -92 -43 -123c-26 -31 -49 -43 -102 -54z"/>
            <glyph glyph-name="parenleft" unicode="(" horiz-adv-x="313"
                   d="M159 667h111c-68 -124 -105 -268 -105 -411c0 -94 9 -164 31 -247c12 -44 30 -93 46 -125c23 -47 23 -47 27 -55h-111c-7 10 -7 10 -40 72c-53 98 -83 226 -83 352c0 143 43 286 124 414z"/>
            <glyph glyph-name="parenright" unicode=")" horiz-adv-x="313"
                   d="M153 -171h-111c68 123 105 268 105 411c0 95 -9 163 -31 247c-12 45 -29 93 -45 125c-24 47 -24 47 -27 55h110c7 -10 7 -10 40 -72c53 -98 83 -226 83 -352c0 -143 -43 -286 -124 -414z"/>
            <glyph glyph-name="asterisk" unicode="*"
                   d="M450 519l-110 -36l68 -92l-61 -46l-69 97l-66 -97l-63 46l70 92l-109 36l24 73l108 -41l-1 116h78l-3 -116l107 41z"/>
            <glyph glyph-name="plus" unicode="+"
                   d="M50 282v89h185v186h89v-186h186v-89h-186v-185h-89v185h-185z"/>
            <glyph glyph-name="comma" unicode="," horiz-adv-x="278"
                   d="M70 -137v64c40 4 71 34 73 69c-5 -1 -9 -2 -12 -2h-4c-39 0 -73 34 -73 74c0 41 34 76 75 76c51 0 86 -43 86 -105c0 -48 -15 -91 -43 -123c-26 -30 -49 -42 -102 -53z"/>
            <glyph glyph-name="hyphen" unicode="-" horiz-adv-x="253"
                   d="M253 308v-119h-253v119h253z"/>
            <glyph glyph-name="period" unicode="." horiz-adv-x="278"
                   d="M140 143c40 0 74 -34 74 -75s-34 -75 -75 -75s-75 34 -75 75c0 42 34 75 76 75z"/>
            <glyph glyph-name="slash" unicode="/" horiz-adv-x="430"
                   d="M398 667l-309 -838h-121l310 838h120z"/>
            <glyph glyph-name="zero" unicode="0" horiz-adv-x="573"
                   d="M289 677c81 0 155 -42 192 -109c33 -61 51 -142 51 -235c0 -214 -92 -343 -244 -343c-156 0 -248 127 -248 342c0 217 92 345 249 345zM287 566c-80 0 -113 -70 -113 -240c0 -153 36 -225 113 -225c75 0 111 75 111 233s-35 232 -111 232z"/>
            <glyph glyph-name="one" unicode="1" horiz-adv-x="573"
                   d="M403 681v-681h-137v445h-48h-49h-47h-16v99c115 1 175 45 189 137h108z"/>
            <glyph glyph-name="two" unicode="2" horiz-adv-x="573"
                   d="M528 118v-118h-492c10 147 42 188 263 334c65 45 88 78 88 128c0 58 -39 97 -96 97c-71 0 -106 -48 -109 -147h-131v15c0 153 95 250 245 250c135 0 229 -84 229 -206c0 -56 -18 -104 -56 -144c-24 -27 -28 -29 -117 -90c-88 -58 -122 -87 -145 -124c46 3 71 4 115 4z
"/>
            <glyph glyph-name="three" unicode="3" horiz-adv-x="573"
                   d="M180 453h-129c5 139 93 224 233 224c132 0 223 -74 223 -183c0 -66 -37 -118 -94 -133c74 -18 119 -76 119 -155c0 -127 -103 -216 -250 -216c-156 0 -248 90 -248 242h131c0 -80 42 -126 115 -126c66 0 111 40 111 100c0 31 -12 59 -35 77c-20 16 -45 23 -87 23
c-13 0 -22 -1 -34 -2v96h23c79 0 118 28 118 84c0 49 -37 82 -93 82c-64 0 -100 -39 -103 -113z"/>
            <glyph glyph-name="four" unicode="4" horiz-adv-x="573"
                   d="M540 271v-115h-86v-156h-133v156h-285v128l292 397h126v-410h86zM324 268v131v76c0 10 1 31 2 60c-28 -48 -38 -64 -60 -97l-57 -83c-11 -16 -12 -18 -65 -88c45 1 50 1 66 1h114z"/>
            <glyph glyph-name="five" unicode="5" horiz-adv-x="573"
                   d="M492 667v-117h-275l-15 -82c-5 -33 -6 -37 -14 -67c34 35 72 50 126 50c129 0 215 -88 215 -220c0 -141 -106 -241 -254 -241c-144 0 -238 80 -244 208h134c6 -58 50 -97 110 -97c68 0 116 52 116 126c0 76 -46 125 -116 125c-46 0 -75 -16 -101 -56l-122 2l65 369h375z
"/>
            <glyph glyph-name="six" unicode="6" horiz-adv-x="573"
                   d="M524 497h-130c-12 50 -42 76 -90 76c-51 0 -85 -29 -107 -89c-12 -35 -13 -40 -21 -110c40 53 84 75 150 75c123 0 210 -92 210 -221c0 -138 -100 -238 -236 -238c-162 0 -256 123 -256 332c0 221 99 355 262 355c121 0 201 -66 218 -180zM296 347
c-63 0 -107 -51 -107 -123c0 -71 45 -123 106 -123s107 53 107 123s-46 123 -106 123z"/>
            <glyph glyph-name="seven" unicode="7" horiz-adv-x="573"
                   d="M516 667v-113l-6 -8l-27 -30c-120 -144 -176 -298 -189 -516h-141c2 166 109 425 227 546c-68 -3 -71 -3 -94 -3h-228v124h458z"/>
            <glyph glyph-name="eight" unicode="8" horiz-adv-x="573"
                   d="M160 358c-64 21 -99 70 -99 138c0 105 95 181 226 181s226 -75 226 -178c0 -69 -35 -119 -99 -141c83 -24 125 -78 125 -159c0 -125 -101 -209 -252 -209c-153 0 -253 81 -253 204c0 83 47 144 126 164zM288 575c-63 0 -103 -34 -103 -87c0 -55 40 -90 102 -90
c63 0 102 35 102 90c0 54 -39 87 -101 87zM286 308c-69 0 -116 -43 -116 -106c0 -64 47 -108 116 -108c70 0 117 43 117 107c0 63 -48 107 -117 107z"/>
            <glyph glyph-name="nine" unicode="9" horiz-adv-x="573"
                   d="M50 170h129c10 -50 42 -76 92 -76c74 0 111 61 124 201c-41 -56 -81 -78 -144 -78c-124 0 -213 93 -213 221c0 137 103 239 241 239c79 0 147 -34 192 -97c41 -57 59 -127 59 -230c0 -220 -101 -360 -259 -360c-123 0 -208 70 -221 180zM280 566
c-63 0 -108 -52 -108 -124c0 -71 45 -123 107 -123c61 0 106 52 106 123c0 70 -46 124 -105 124z"/>
            <glyph glyph-name="colon" unicode=":" horiz-adv-x="295"
                   d="M157 478c40 0 74 -34 74 -75s-34 -75 -75 -75s-75 34 -75 75c0 42 34 75 76 75zM157 143c40 0 74 -34 74 -75s-34 -75 -75 -75s-75 34 -75 75c0 42 34 75 76 75z"/>
            <glyph glyph-name="semicolon" unicode=";" horiz-adv-x="295"
                   d="M88 -137v64c40 4 71 34 73 69c-5 -1 -9 -2 -12 -2h-4c-39 0 -73 34 -73 74c0 41 34 76 75 76c51 0 86 -43 86 -105c0 -48 -15 -91 -43 -123c-26 -30 -49 -42 -102 -53zM157 478c40 0 74 -34 74 -75s-34 -75 -75 -75s-75 34 -75 75c0 42 34 75 76 75z"/>
            <glyph glyph-name="less" unicode="&#x3c;" horiz-adv-x="500"
                   d="M466 623v-143l-281 -143l280 -144l1 -142l-433 226v120z"/>
            <glyph glyph-name="equal" unicode="="
                   d="M50 366v87h460v-87h-460zM50 201v87h460v-87h-460z"/>
            <glyph glyph-name="greater" unicode="&#x3e;" horiz-adv-x="500"
                   d="M34 51v143l281 143l-280 144l-1 142l433 -226v-120z"/>
            <glyph glyph-name="question" unicode="?" horiz-adv-x="539"
                   d="M181 453h-136c7 148 92 230 236 230c133 0 222 -77 222 -192c0 -74 -26 -112 -128 -183c-32 -24 -44 -54 -44 -105h-124v7c1 103 12 124 95 190c44 36 57 56 57 93c0 45 -32 75 -80 75c-64 0 -95 -36 -98 -115zM269 141c40 0 74 -34 74 -75s-34 -75 -75 -75
s-75 34 -75 75c0 42 34 75 76 75z"/>
            <glyph glyph-name="at" unicode="@" horiz-adv-x="851"
                   d="M583 15l31 -73c-62 -30 -121 -44 -190 -44c-213 0 -388 176 -388 390c0 215 175 391 390 391c213 0 390 -176 390 -387c0 -136 -77 -221 -201 -221c-61 0 -94 17 -111 58c-40 -38 -81 -54 -142 -54c-88 0 -142 45 -142 118c0 40 16 73 44 91c30 19 52 25 150 37
c64 7 81 17 81 45c0 32 -22 47 -69 47c-51 0 -73 -15 -79 -53h-114c6 46 16 67 44 90c34 28 87 43 155 43c114 0 176 -40 176 -113v-192c0 -27 9 -37 35 -37c50 0 83 59 83 147c0 161 -135 293 -300 293s-299 -136 -299 -303c0 -168 135 -306 298 -306c52 0 105 11 158 33z
M495 235v39c-14 -8 -19 -10 -31 -13c-4 -1 -14 -2 -29 -4l-28 -4c-52 -8 -73 -23 -73 -53s23 -46 68 -46c61 0 93 28 93 81z"/>
            <glyph glyph-name="A" unicode="A" horiz-adv-x="657"
                   d="M404 668l254 -668h-153l-53 149h-248l-54 -149h-150l254 668h150zM416 256l-43 120c-25 71 -33 100 -44 145c-12 -42 -19 -64 -47 -145l-43 -120h177z"/>
            <glyph glyph-name="B" unicode="B" horiz-adv-x="662"
                   d="M64 667h300c68 0 109 -7 143 -24c54 -28 87 -83 87 -144s-33 -110 -90 -137c34 -12 40 -15 57 -27c43 -31 65 -77 65 -138c0 -72 -33 -131 -92 -166c-38 -21 -81 -31 -143 -31h-327v667zM209 552v-155h133c74 0 109 25 109 78c0 54 -32 77 -109 77h-133zM209 298v-183
h147c44 0 72 6 89 18c22 15 34 42 34 73c0 38 -17 67 -46 80c-16 8 -45 12 -84 12h-140z"/>
            <glyph glyph-name="C" unicode="C" horiz-adv-x="682"
                   d="M510 257h146c-13 -167 -129 -273 -300 -273c-193 0 -321 139 -321 350c0 206 134 349 327 349c156 0 278 -101 289 -240h-144c-15 75 -69 118 -148 118c-108 0 -177 -89 -177 -229c0 -139 68 -227 176 -227c87 0 140 52 152 152z"/>
            <glyph glyph-name="D" unicode="D" horiz-adv-x="693"
                   d="M64 667h269c100 0 168 -22 223 -72c65 -59 100 -148 100 -253c0 -115 -31 -203 -94 -265c-56 -56 -119 -77 -226 -77h-272v667zM209 544v-421h112c69 0 105 12 135 45c35 38 53 96 53 169c0 136 -66 207 -193 207h-107z"/>
            <glyph glyph-name="E" unicode="E" horiz-adv-x="611"
                   d="M564 667v-123h-355v-143h326v-115h-326v-163h362v-123h-507v667h500z"/>
            <glyph glyph-name="F" unicode="F" horiz-adv-x="553"
                   d="M533 667v-123h-324v-155h282v-115h-282v-274h-145v667h469z"/>
            <glyph glyph-name="G" unicode="G" horiz-adv-x="712"
                   d="M656 359v-359h-93l-15 76c-51 -63 -113 -92 -199 -92c-186 0 -314 141 -314 346c0 207 135 353 327 353c153 0 270 -97 285 -236h-141c-14 72 -68 114 -145 114c-112 0 -179 -86 -179 -230c0 -145 67 -229 183 -229c92 0 156 60 159 150h-148v107h280z"/>
            <glyph glyph-name="H" unicode="H" horiz-adv-x="693"
                   d="M628 667v-667h-145v290h-273v-290h-145v667h145v-254h273v254h145z"/>
            <glyph glyph-name="I" unicode="I" horiz-adv-x="275"
                   d="M210 667v-667h-145v667h145z"/>
            <glyph glyph-name="J" unicode="J" horiz-adv-x="504"
                   d="M449 667v-449c0 -78 -10 -119 -40 -158c-39 -51 -98 -76 -178 -76c-93 0 -161 33 -196 96c-19 35 -27 76 -27 142v27h135v-19c0 -50 3 -73 11 -90c12 -24 38 -38 72 -38c58 0 78 28 78 111v454h145z"/>
            <glyph glyph-name="K" unicode="K" horiz-adv-x="667"
                   d="M655 667l-262 -264l286 -403h-184l-202 299l-84 -84v-215h-145v667h145v-199c0 -20 0 -22 -1 -84c38 46 43 51 56 65l206 218h185z"/>
            <glyph glyph-name="L" unicode="L" horiz-adv-x="561"
                   d="M536 123v-123h-471v667h145v-544h326z"/>
            <glyph glyph-name="M" unicode="M" horiz-adv-x="850"
                   d="M784 667v-667h-138v200c1 160 3 220 9 338c-21 -83 -38 -143 -68 -234l-104 -304h-115l-107 298c-31 93 -50 159 -68 237c8 -178 9 -194 9 -320v-215h-138v667h207l100 -290c24 -72 41 -136 55 -211c12 61 28 121 58 213l95 288h205z"/>
            <glyph glyph-name="N" unicode="N" horiz-adv-x="693"
                   d="M628 667v-667h-146l-199 322c-64 106 -64 107 -84 149c4 -40 5 -84 6 -187v-284h-140v667h148l194 -315c43 -71 72 -121 87 -154c-3 60 -5 124 -6 191v278h140z"/>
            <glyph glyph-name="O" unicode="O" horiz-adv-x="727"
                   d="M369 683c191 0 323 -143 323 -350c0 -208 -132 -349 -327 -349c-198 0 -330 140 -330 349c0 212 131 350 334 350zM367 562c-114 0 -185 -87 -185 -228s70 -229 184 -229c110 0 179 89 179 231c0 137 -70 226 -178 226z"/>
            <glyph glyph-name="P" unicode="P" horiz-adv-x="625"
                   d="M64 667h268c91 0 136 -10 178 -38c57 -38 87 -99 87 -176c0 -69 -25 -125 -72 -165c-41 -34 -90 -48 -166 -48h-150v-240h-145v667zM209 544v-189h130c40 0 66 6 83 21c20 16 32 43 32 75s-13 59 -37 75c-18 13 -44 18 -86 18h-122z"/>
            <glyph glyph-name="Q" unicode="Q" horiz-adv-x="723"
                   d="M687 9l-68 -74l-99 89c-42 -26 -99 -40 -161 -40c-193 0 -324 141 -324 350c0 205 136 349 331 349c190 0 325 -143 325 -346c0 -104 -33 -194 -90 -250zM427 247l72 -66c31 42 45 89 45 154c0 140 -70 227 -181 227s-181 -89 -181 -228s71 -229 181 -229
c24 0 42 3 62 11l-67 58z"/>
            <glyph glyph-name="R" unicode="R" horiz-adv-x="689"
                   d="M64 667h322c71 0 110 -8 147 -30c56 -33 87 -90 87 -159c0 -77 -39 -138 -106 -163c74 -23 95 -67 105 -221c4 -47 10 -71 20 -86l6 -8h-152c-9 17 -13 37 -17 90c-7 140 -32 172 -136 172h-131v-262h-145v667zM209 552v-183h139c48 0 75 5 94 19c23 16 35 41 35 73
c0 63 -38 91 -123 91h-145z"/>
            <glyph glyph-name="S" unicode="S" horiz-adv-x="613"
                   d="M556 469h-139c-5 66 -49 101 -126 101c-69 0 -109 -28 -109 -77c0 -21 10 -38 27 -48c21 -11 50 -20 135 -41c84 -20 124 -35 157 -57c53 -34 81 -85 81 -147c0 -133 -105 -216 -275 -216c-181 0 -285 86 -289 239h145c2 -41 10 -63 29 -83c27 -29 66 -43 121 -43
c75 0 122 34 122 89c0 29 -15 48 -51 62c-28 11 -29 11 -131 39c-85 24 -131 44 -160 69c-33 30 -51 74 -51 126c0 122 101 201 257 201c98 0 175 -31 218 -89c25 -34 37 -72 39 -125z"/>
            <glyph glyph-name="T" unicode="T" horiz-adv-x="581"
                   d="M565 667v-123h-203v-544h-145v544h-201v123h549z"/>
            <glyph glyph-name="U" unicode="U" horiz-adv-x="680"
                   d="M624 667v-394c0 -100 -13 -151 -52 -200c-48 -61 -120 -89 -232 -89c-119 0 -195 32 -243 101c-32 45 -43 95 -43 190v392h145v-402c0 -56 6 -85 22 -109c23 -34 64 -51 122 -51c99 0 136 44 136 160v402h145z"/>
            <glyph glyph-name="V" unicode="V" horiz-adv-x="605"
                   d="M606 667l-222 -667h-166l-218 667h152l87 -270c32 -108 56 -205 64 -258c8 50 33 152 65 258l86 270h152z"/>
            <glyph glyph-name="W" unicode="W" horiz-adv-x="882"
                   d="M881 667l-181 -667h-145l-73 286c-15 66 -29 140 -42 222c-8 -60 -27 -160 -42 -219l-70 -289h-148l-178 667h146l66 -280c21 -91 38 -187 42 -244c5 53 22 146 45 243l72 281h138l70 -275c33 -156 37 -179 45 -249c6 60 21 146 45 255l65 269h145z"/>
            <glyph glyph-name="X" unicode="X" horiz-adv-x="621"
                   d="M609 667l-214 -318l234 -349h-175l-99 158c-19 29 -35 59 -46 84c-9 -19 -24 -44 -49 -85l-100 -157h-167l235 349l-217 318h171l81 -131c31 -54 42 -74 51 -94c10 22 28 55 49 89l85 136h161z"/>
            <glyph glyph-name="Y" unicode="Y" horiz-adv-x="606"
                   d="M623 667l-248 -410v-257h-145v259l-249 408h166l104 -178c18 -32 44 -85 53 -109c15 35 45 97 56 116l101 171h162z"/>
            <glyph glyph-name="Z" unicode="Z" horiz-adv-x="609"
                   d="M574 667v-111l-298 -357c-12 -15 -13 -15 -74 -80c68 3 98 4 134 4h250v-123h-564v116l307 367c13 15 25 28 61 64c-56 -2 -82 -3 -121 -3h-222v123h527z"/>
            <glyph glyph-name="bracketleft" unicode="[" horiz-adv-x="313"
                   d="M282 667v-96h-119v-646h119v-96h-242v838h242z"/>
            <glyph glyph-name="backslash" unicode="\" horiz-adv-x="430"
                   d="M32 667h120l310 -838h-121z"/>
            <glyph glyph-name="bracketright" unicode="]" horiz-adv-x="313"
                   d="M30 -171v96h119v646h-119v96h242v-838h-242z"/>
            <glyph glyph-name="asciicircum" unicode="^" horiz-adv-x="500"
                   d="M144 352h-127l154 318h159l154 -318h-128l-106 221z"/>
            <glyph glyph-name="underscore" unicode="_" horiz-adv-x="500"
                   d="M0 -58h500v-86h-500v86z"/>
            <glyph glyph-name="quoteleft" unicode="&#x2018;" horiz-adv-x="275"
                   d="M198 669v-64c-40 -4 -71 -33 -73 -69c5 2 9 2 12 2h4c39 0 73 -34 73 -74c0 -41 -34 -76 -75 -76c-51 0 -86 43 -86 105c0 48 15 91 43 123c26 30 49 42 102 53z"/>
            <glyph glyph-name="a" unicode="a" horiz-adv-x="521"
                   d="M518 88v-86c-19 -9 -34 -12 -58 -12c-59 0 -89 19 -101 63c-43 -46 -94 -66 -166 -66c-105 0 -167 54 -167 145c0 47 16 84 47 107c32 24 71 35 151 44c105 12 124 22 124 63s-27 61 -83 61c-60 0 -85 -19 -91 -72h-133c5 54 19 82 55 112c39 33 99 49 177 49
c136 0 208 -47 208 -136v-234c0 -33 5 -38 33 -38h4zM348 186v51c-13 -11 -36 -18 -81 -24c-81 -10 -108 -28 -108 -75c0 -41 27 -62 82 -62c70 0 107 38 107 110z"/>
            <glyph glyph-name="b" unicode="b" horiz-adv-x="582"
                   d="M190 667v-243c36 49 87 73 153 73c123 0 206 -101 206 -250c0 -155 -87 -260 -214 -260c-68 0 -119 25 -151 74v-61h-126v667h132zM302 393c-73 0 -117 -56 -117 -149c0 -92 45 -149 117 -149c69 0 114 59 114 150c0 89 -45 148 -114 148z"/>
            <glyph glyph-name="c" unicode="c" horiz-adv-x="531"
                   d="M379 185h129c-17 -125 -103 -198 -232 -198c-149 0 -246 99 -246 250c0 157 98 259 248 259c129 0 216 -70 227 -182h-130c-10 52 -45 82 -96 82c-73 0 -116 -57 -116 -156c0 -97 41 -153 113 -153c57 0 93 34 103 98z"/>
            <glyph glyph-name="d" unicode="d" horiz-adv-x="582"
                   d="M523 667v-667h-126v62c-32 -51 -80 -75 -146 -75c-133 0 -219 100 -219 257c0 153 84 253 212 253c64 0 116 -26 147 -73v243h132zM281 394c-74 0 -116 -54 -116 -149c0 -94 43 -150 115 -150c73 0 116 55 116 149c0 93 -44 150 -115 150z"/>
            <glyph glyph-name="e" unicode="e" horiz-adv-x="540"
                   d="M377 150h127c-26 -99 -114 -163 -227 -163c-148 0 -247 101 -247 252c0 149 103 257 243 257c144 0 239 -107 239 -269v-20h-347c3 -81 42 -125 113 -125c49 0 79 20 99 68zM165 292h212c-8 70 -45 109 -104 109s-101 -42 -108 -109z"/>
            <glyph glyph-name="f" unicode="f" horiz-adv-x="321"
                   d="M311 667v-98c-19 2 -30 3 -46 3c-44 0 -58 -12 -58 -51v-38h96v-89h-94v-394h-132v394h-79v89h79v25c0 63 8 92 33 118c27 30 71 44 132 44c17 0 30 -1 69 -3z"/>
            <glyph glyph-name="g" unicode="g" horiz-adv-x="572"
                   d="M512 483v-423c0 -76 -8 -115 -32 -152c-39 -59 -107 -88 -207 -88c-139 0 -213 50 -226 151h133c10 -43 39 -62 96 -62c78 0 107 34 108 125v55c-35 -50 -82 -74 -147 -74c-126 0 -206 92 -206 237c0 147 84 244 211 244c66 0 106 -22 144 -77v64h126zM276 393
c-71 0 -112 -51 -112 -138c0 -88 42 -142 110 -142s111 55 111 142c0 84 -43 138 -109 138z"/>
            <glyph glyph-name="h" unicode="h" horiz-adv-x="565"
                   d="M190 667v-191c0 -8 0 -8 -1 -59c42 56 86 79 153 79c64 0 115 -24 143 -68c18 -29 25 -63 25 -121v-307h-132v284c0 41 -4 59 -15 74c-15 19 -39 30 -70 30c-40 0 -72 -19 -89 -53c-11 -22 -14 -42 -14 -99v-236h-132v667h132z"/>
            <glyph glyph-name="i" unicode="i" horiz-adv-x="249"
                   d="M126 681c40 0 74 -34 74 -75s-34 -75 -75 -75s-75 34 -75 75c0 42 34 75 76 75zM190 483v-483h-132v483h132z"/>
            <glyph glyph-name="j" unicode="j" horiz-adv-x="249"
                   d="M189 483v-483l1 -37c0 -59 -25 -103 -69 -123c-22 -10 -53 -15 -92 -15c-18 0 -29 0 -53 2v107c12 -1 17 -1 25 -1c32 0 46 6 51 24c4 13 5 22 5 83v443h132zM125 681c40 0 74 -34 74 -75s-34 -75 -75 -75s-75 34 -75 75c0 42 34 75 76 75z"/>
            <glyph glyph-name="k" unicode="k" horiz-adv-x="534"
                   d="M517 483l-182 -179l203 -304h-161l-133 215l-54 -51v-164h-132v667h132v-289v-40l-1 -36c17 22 24 31 34 41l137 140h157z"/>
            <glyph glyph-name="l" unicode="l" horiz-adv-x="249"
                   d="M190 667v-667h-132v667h132z"/>
            <glyph glyph-name="m" unicode="m" horiz-adv-x="850"
                   d="M184 483v-66c41 55 87 79 154 79c65 0 109 -26 135 -80c41 55 91 80 159 80c104 0 163 -62 163 -171v-325h-132v288c0 33 -3 53 -10 66c-12 21 -37 34 -68 34c-37 0 -68 -18 -83 -48c-7 -17 -10 -36 -10 -78v-262h-132v294c0 31 -3 49 -10 62c-11 20 -35 32 -64 32
c-37 0 -69 -19 -85 -51c-7 -16 -11 -40 -11 -75v-262h-132v483h126z"/>
            <glyph glyph-name="n" unicode="n" horiz-adv-x="565"
                   d="M184 483v-67c42 56 91 80 161 80c62 0 113 -25 139 -66c19 -31 26 -63 26 -126v-304h-132v277c0 35 -2 53 -8 69c-10 26 -39 42 -75 42c-41 0 -76 -20 -92 -53c-9 -20 -13 -43 -13 -85v-250h-132v483h126z"/>
            <glyph glyph-name="o" unicode="o"
                   d="M285 496c146 0 245 -102 245 -254c0 -154 -99 -255 -249 -255c-151 0 -251 102 -251 254c0 154 101 255 255 255zM281 398c-75 0 -118 -58 -118 -157c0 -98 44 -156 118 -156c73 0 116 58 116 157c0 97 -44 156 -116 156z"/>
            <glyph glyph-name="p" unicode="p" horiz-adv-x="582"
                   d="M184 483v-60c34 49 84 73 150 73c129 0 215 -103 215 -257c0 -152 -83 -252 -210 -252c-65 0 -112 23 -149 73v-231h-132v654h126zM302 388c-74 0 -117 -54 -117 -149c0 -94 44 -149 117 -149c71 0 114 56 114 147c0 93 -43 151 -114 151z"/>
            <glyph glyph-name="q" unicode="q" horiz-adv-x="582"
                   d="M523 483v-654h-132v232c-37 -51 -84 -74 -149 -74c-128 0 -210 99 -210 252c0 156 85 257 216 257c68 0 117 -24 149 -73v60h126zM280 388c-72 0 -115 -56 -115 -152c0 -92 43 -146 114 -146c73 0 116 56 116 151c0 92 -43 147 -115 147z"/>
            <glyph glyph-name="r" unicode="r" horiz-adv-x="370"
                   d="M370 491v-122c-24 4 -37 5 -52 5c-47 0 -86 -22 -108 -60c-15 -24 -20 -55 -20 -112v-202h-132v483h126v-89c35 67 86 99 156 99c10 0 16 0 30 -2z"/>
            <glyph glyph-name="s" unicode="s" horiz-adv-x="496"
                   d="M448 343h-124c-7 46 -33 64 -91 64c-47 0 -74 -17 -74 -47c0 -32 17 -41 119 -62c140 -28 189 -67 189 -149c0 -100 -85 -162 -224 -162c-143 0 -220 57 -227 170h127c6 -56 37 -81 102 -81c54 0 89 23 89 60c0 33 -19 44 -109 64c-88 20 -111 27 -140 43
c-37 21 -59 60 -59 106c0 93 77 147 210 147c81 0 142 -21 178 -61c21 -24 30 -48 34 -92z"/>
            <glyph glyph-name="t" unicode="t" horiz-adv-x="323"
                   d="M303 483v-89h-98v-228c0 -60 8 -70 58 -70c12 0 24 1 40 3v-101c-33 -4 -54 -5 -81 -5c-69 0 -106 13 -128 46c-17 25 -21 47 -21 132v223h-81v89h81v146h132v-146h98z"/>
            <glyph glyph-name="u" unicode="u" horiz-adv-x="566"
                   d="M507 483v-483h-126v68c-39 -55 -90 -81 -160 -81c-57 0 -105 20 -135 58c-23 29 -32 67 -32 132v306h132v-267c0 -56 2 -72 13 -89c14 -21 39 -32 71 -32c41 0 73 19 91 54c10 19 14 44 14 94v240h132z"/>
            <glyph glyph-name="v" unicode="v" horiz-adv-x="470"
                   d="M475 483l-164 -483h-149l-167 483h139l62 -193c23 -77 35 -125 42 -169c9 48 17 81 43 166l61 196h133z"/>
            <glyph glyph-name="w" unicode="w" horiz-adv-x="746"
                   d="M748 483l-153 -483h-137l-56 211c-13 50 -18 75 -30 147c-12 -71 -18 -98 -30 -147l-53 -211h-138l-154 483h140l51 -183c16 -58 23 -92 40 -178c14 85 18 108 37 183l44 178h129l51 -199c15 -61 20 -84 32 -161c15 79 22 111 34 158l56 202h137z"/>
            <glyph glyph-name="x" unicode="x" horiz-adv-x="483"
                   d="M474 483l-159 -225l179 -258h-153l-70 105c-8 12 -13 23 -31 59c-16 -30 -23 -43 -34 -60l-68 -104h-150l176 255l-161 228h153l51 -77c8 -11 13 -21 34 -59c19 33 27 46 37 62l48 74h148z"/>
            <glyph glyph-name="y" unicode="y" horiz-adv-x="489"
                   d="M493 483l-177 -481c-37 -98 -53 -126 -89 -151c-28 -18 -68 -27 -118 -24l-13 1l-54 1v109h15h39c53 0 75 17 75 61c0 11 -2 23 -4 30l-172 454h143l80 -237c10 -30 16 -53 30 -112c16 62 22 86 33 118l75 231h137z"/>
            <glyph glyph-name="z" unicode="z" horiz-adv-x="478"
                   d="M451 483v-97l-198 -224c-15 -17 -28 -30 -62 -62c33 2 49 3 67 3h210v-103h-445v100l193 217c15 16 29 29 68 65c-22 -2 -31 -2 -49 -2h-193v103h409z"/>
            <glyph glyph-name="braceleft" unicode="{" horiz-adv-x="419"
                   d="M216 455v-87c-2 -68 -15 -96 -58 -120c43 -25 57 -56 58 -122v-90c0 -91 13 -108 84 -111h13v-96h-5c-129 1 -136 2 -171 26c-31 24 -44 58 -44 119v129c0 57 -14 80 -56 91v114c40 10 54 31 56 84v136c0 57 14 92 45 114c36 23 42 24 170 25h5v-96h-13
c-70 -2 -85 -24 -84 -116z"/>
            <glyph glyph-name="bar" unicode="|" horiz-adv-x="500"
                   d="M178 667h144v-834h-144v834z"/>
            <glyph glyph-name="braceright" unicode="}" horiz-adv-x="419"
                   d="M203 41v87c2 68 15 96 58 120c-43 25 -57 56 -58 122v90c0 91 -13 108 -84 111h-13v96h5c129 -1 136 -2 171 -26c31 -24 44 -58 44 -119v-129c0 -57 14 -80 56 -91v-114c-40 -10 -54 -31 -56 -84v-136c0 -57 -14 -92 -45 -114c-36 -23 -42 -24 -170 -25h-5v96h13
c70 2 85 24 84 116z"/>
            <glyph glyph-name="asciitilde" unicode="~" horiz-adv-x="667"
                   d="M163 555l-70 58c36 90 85 134 148 134c25 0 55 -9 113 -34c53 -23 61 -26 78 -26c28 0 50 18 74 63l70 -59c-40 -95 -83 -132 -156 -132c-27 0 -39 4 -111 36c-36 15 -57 22 -74 22c-27 0 -47 -17 -72 -62z"/>
            <glyph glyph-name="exclamdown" unicode="&#xa1;" horiz-adv-x="318"
                   d="M79 -183v178l37 286h67l36 -284v-180h-140zM150 481c40 0 74 -34 74 -75s-34 -75 -75 -75s-75 34 -75 75c0 42 34 75 76 75z"/>
            <glyph glyph-name="cent" unicode="&#xa2;"
                   d="M401 282h126c-10 -117 -95 -199 -209 -200v-98h-55v98c-63 4 -103 20 -142 56c-51 48 -77 114 -77 195c0 146 85 245 219 255v81h55v-81c115 0 200 -75 207 -182h-127c-5 48 -36 81 -80 85v-308c46 3 79 42 83 99zM263 183v307c-58 -16 -88 -68 -88 -153
c0 -88 31 -142 88 -154z"/>
            <glyph glyph-name="sterling" unicode="&#xa3;"
                   d="M533 460h-131c-2 70 -37 106 -102 106c-51 0 -88 -32 -88 -77c0 -22 4 -38 17 -70c9 -21 13 -31 18 -45h125v-77h-99c8 -28 10 -38 10 -53c0 -50 -21 -86 -79 -137c33 15 56 20 84 20c20 0 36 -3 65 -12c33 -9 45 -12 60 -12c33 0 64 15 87 43l56 -99
c-35 -37 -90 -59 -150 -59c-36 0 -48 2 -114 21c-35 10 -62 15 -85 15c-35 0 -57 -8 -100 -37l-58 88c73 52 103 97 103 154c0 22 -5 41 -17 68h-92v77h60c-21 36 -34 81 -34 121c0 110 91 182 229 182c148 0 232 -78 235 -217z"/>
            <glyph glyph-name="fraction" unicode="&#x2044;" horiz-adv-x="162"
                   d="M302 657l-364 -657h-78l366 657h76z"/>
            <glyph glyph-name="yen" unicode="&#xa5;"
                   d="M419 400h103v-76h-140l-33 -66v-18h139v-76h-139v-164h-132v164h-139v76h139v20l-32 64h-141v76h103l-124 267h145l73 -166c17 -39 32 -82 44 -123c9 33 27 84 46 130l70 159h142z"/>
            <glyph glyph-name="florin" unicode="&#x192;"
                   d="M467 447l-13 -77h-93l-63 -356c-13 -79 -25 -110 -53 -139c-32 -33 -72 -46 -148 -46c-19 0 -33 1 -59 2l17 99c13 -1 19 -1 27 -1c60 0 70 12 86 104l59 337h-78l14 77h78l20 113c21 121 74 167 194 167c21 0 38 -1 66 -3l-18 -99c-21 1 -25 1 -34 1
c-49 0 -66 -17 -76 -77l-18 -102h92z"/>
            <glyph glyph-name="section" unicode="&#xa7;"
                   d="M478 493h-117c-3 49 -30 76 -75 76c-41 0 -68 -23 -68 -57c0 -31 14 -44 89 -82c86 -43 134 -70 160 -90c39 -29 58 -65 58 -110c0 -61 -36 -112 -95 -134c36 -32 50 -61 50 -104c0 -97 -81 -163 -198 -163c-127 0 -204 69 -204 182h116c7 -57 33 -81 87 -81
c44 0 73 24 73 61c0 39 -22 56 -156 120c-77 37 -114 61 -134 88s-30 56 -30 88c0 63 36 113 97 132c-27 29 -39 57 -39 93c0 91 81 155 194 155c114 0 190 -69 192 -174zM196 359c-31 -9 -49 -31 -49 -60c0 -33 21 -49 145 -111c17 -9 29 -15 34 -18c24 -13 24 -14 36 -18
c29 9 49 34 49 60s-11 40 -55 63c-5 3 -16 10 -34 20c-19 10 -37 20 -43 23c-14 7 -29 14 -43 22c-10 5 -20 10 -29 15c-2 0 -6 2 -11 4z"/>
            <glyph glyph-name="currency" unicode="&#xa4;" horiz-adv-x="667"
                   d="M44 162l60 60c-31 47 -48 101 -48 156c0 56 17 110 48 156l-61 62l70 71l62 -62c48 33 101 50 158 50s109 -16 157 -49l61 61l70 -71l-61 -59c34 -49 51 -103 51 -159c0 -55 -16 -108 -48 -155l60 -61l-69 -71l-61 61c-50 -35 -104 -52 -160 -52c-57 0 -110 17 -159 51
l-61 -60zM335 541c-92 0 -165 -72 -165 -164c0 -90 73 -163 163 -163s163 73 163 164c0 89 -73 163 -161 163z"/>
            <glyph glyph-name="quotesingle" unicode="'" horiz-adv-x="197"
                   d="M133 399h-69l-24 268h117z"/>
            <glyph glyph-name="quotedblleft" unicode="&#x201c;" horiz-adv-x="457"
                   d="M190 672v-64c-40 -4 -71 -34 -73 -69c5 1 9 2 12 2h4c39 0 73 -34 73 -74c0 -41 -34 -76 -75 -76c-51 0 -86 43 -86 105c0 48 15 91 43 123c26 30 49 42 102 53zM389 672v-64c-40 -4 -71 -34 -73 -69c5 1 9 2 12 2h4c39 0 73 -34 73 -74c0 -41 -34 -76 -75 -76
c-51 0 -86 43 -86 105c0 48 15 91 43 123c26 30 49 42 102 53z"/>
            <glyph glyph-name="guillemotleft" unicode="&#xab;" horiz-adv-x="430"
                   d="M191 427v-114l-85 -67l85 -65v-111l-148 115v124zM374 426v-114l-83 -65l83 -65v-110l-146 115v123z"/>
            <glyph glyph-name="guilsinglleft" unicode="&#x2039;" horiz-adv-x="245"
                   d="M190 426v-113l-84 -66l84 -66v-110l-147 114v125z"/>
            <glyph glyph-name="guilsinglright" unicode="&#x203a;" horiz-adv-x="245"
                   d="M56 426l147 -116v-125l-147 -114v110l84 66l-84 66v113z"/>
            <glyph glyph-name="endash" unicode="&#x2013;"
                   d="M506 308v-119h-453v119h453z"/>
            <glyph glyph-name="dagger" unicode="&#x2020;"
                   d="M518 483v-114h-174v-540h-129v540h-173v114h173v184h129v-184h174z"/>
            <glyph glyph-name="daggerdbl" unicode="&#x2021;"
                   d="M518 481v-111h-174v-243h174v-111h-174v-187h-129v187h-173v111h173v243h-173v111h173v186h129v-186h174z"/>
            <glyph glyph-name="periodcentered" unicode="&#xb7;" horiz-adv-x="278"
                   d="M140 318c40 0 74 -34 74 -75s-34 -75 -75 -75s-75 34 -75 75c0 42 34 75 76 75z"/>
            <glyph glyph-name="paragraph" unicode="&#xb6;"
                   d="M226 -171v492c-6 -1 -11 -1 -13 -1c-107 0 -180 70 -180 172c0 67 30 121 83 149c36 19 73 26 143 26h249v-61h-43v-777h-80v777h-79v-777h-80z"/>
            <glyph glyph-name="bullet" unicode="&#x2022;" horiz-adv-x="667"
                   d="M336 479c74 0 135 -63 135 -139c0 -78 -61 -140 -137 -140s-138 63 -138 139c0 78 62 140 140 140z"/>
            <glyph glyph-name="quotesinglbase" unicode="&#x201a;" horiz-adv-x="275"
                   d="M69 -137v64c40 4 71 34 73 69c-5 -1 -9 -2 -12 -2h-4c-39 0 -73 35 -73 74c0 42 34 77 75 77c51 0 86 -43 86 -105c0 -49 -15 -92 -43 -123c-26 -31 -50 -43 -102 -54z"/>
            <glyph glyph-name="quotedblbase" unicode="&#x201e;" horiz-adv-x="457"
                   d="M61 -134v64c40 4 71 33 73 69c-5 -2 -9 -2 -12 -2h-4c-39 0 -73 34 -73 74c0 41 34 76 75 76c51 0 86 -43 86 -105c0 -48 -15 -91 -43 -123c-26 -30 -50 -42 -102 -53zM260 -134v64c40 4 71 33 73 69c-5 -2 -9 -2 -12 -2h-4c-39 0 -73 34 -73 74c0 41 34 76 75 76
c51 0 86 -43 86 -105c0 -48 -15 -91 -43 -123c-26 -30 -50 -42 -102 -53z"/>
            <glyph glyph-name="quotedblright" unicode="&#x201d;" horiz-adv-x="457"
                   d="M61 391v64c40 3 71 33 73 69c-5 -2 -9 -2 -12 -2h-4c-39 0 -73 34 -73 74c0 41 34 76 75 76c51 0 86 -43 86 -105c0 -48 -15 -91 -43 -123c-26 -30 -49 -43 -102 -53zM260 391v64c40 3 71 33 73 69c-5 -2 -9 -2 -12 -2h-4c-39 0 -73 34 -73 74c0 41 34 76 75 76
c51 0 86 -43 86 -105c0 -48 -15 -91 -43 -123c-26 -30 -49 -43 -102 -53z"/>
            <glyph glyph-name="guillemotright" unicode="&#xbb;" horiz-adv-x="430"
                   d="M239 427l148 -118v-124l-148 -115v111l85 65l-85 67v114zM56 426l146 -116v-123l-146 -115v110l83 65l-83 65v114z"/>
            <glyph glyph-name="ellipsis" unicode="&#x2026;" horiz-adv-x="834"
                   d="M140 143c40 0 74 -34 74 -75s-34 -75 -75 -75s-75 34 -75 75c0 42 34 75 76 75zM418 143c40 0 74 -34 74 -75s-34 -75 -75 -75s-75 34 -75 75c0 42 34 75 76 75zM696 143c40 0 74 -34 74 -75s-34 -75 -75 -75s-75 34 -75 75c0 42 34 75 76 75z"/>
            <glyph glyph-name="perthousand" unicode="&#x2030;" horiz-adv-x="1181"
                   d="M189 668c102 0 155 -65 155 -188c0 -113 -57 -176 -159 -176c-101 0 -154 61 -154 176c0 117 59 188 158 188zM189 598c-44 0 -62 -35 -62 -120c0 -75 17 -104 60 -104c42 0 62 35 62 107c0 79 -19 117 -60 117zM262 -21h-93l388 696h91zM635 352c100 0 153 -63 153 -182
c0 -116 -58 -183 -159 -183c-98 0 -154 66 -154 181c0 116 59 184 160 184zM634 282c-43 0 -63 -35 -63 -109c0 -84 16 -116 60 -116c42 0 62 36 62 109c0 80 -18 116 -59 116zM997 352c100 0 153 -63 153 -182c0 -116 -58 -183 -159 -183c-98 0 -154 66 -154 181
c0 116 59 184 160 184zM996 282c-43 0 -63 -35 -63 -109c0 -84 16 -116 60 -116c42 0 62 36 62 109c0 80 -18 116 -59 116z"/>
            <glyph glyph-name="questiondown" unicode="&#xbf;" horiz-adv-x="538"
                   d="M356 30h136c-7 -147 -91 -229 -235 -229c-133 0 -222 77 -222 191c0 74 26 112 128 184c32 24 44 54 44 105h124c-2 -111 -11 -130 -95 -198c-44 -36 -57 -57 -57 -93c0 -45 32 -75 80 -75c64 0 94 36 97 115zM271 480c40 0 74 -34 74 -75s-34 -75 -75 -75s-75 34 -75 75
c0 42 34 75 76 75z"/>
            <glyph glyph-name="grave" unicode="`" horiz-adv-x="500"
                   d="M98 691h140l84 -134h-89z"/>
            <glyph glyph-name="acute" unicode="&#xb4;" horiz-adv-x="500"
                   d="M402 691l-135 -134h-89l84 134h140z"/>
            <glyph glyph-name="circumflex" unicode="&#x2c6;" horiz-adv-x="500"
                   d="M415 557h-108l-59 80l-60 -80h-102l104 134h121z"/>
            <glyph glyph-name="tilde" unicode="&#x2dc;" horiz-adv-x="500"
                   d="M350 685h60c-13 -77 -46 -115 -101 -115c-25 0 -36 3 -95 30c-9 4 -18 6 -25 6c-21 0 -35 -14 -39 -39h-60c11 71 50 116 101 116c19 0 30 -3 63 -17c29 -12 46 -17 58 -17c19 0 29 10 38 36z"/>
            <glyph glyph-name="macron" unicode="&#xaf;" horiz-adv-x="500"
                   d="M402 657v-70h-305v70h305z"/>
            <glyph glyph-name="breve" unicode="&#x2d8;" horiz-adv-x="500"
                   d="M102 690h65c10 -40 36 -59 83 -59c46 0 73 19 82 59h65c-3 -86 -55 -132 -147 -132c-93 0 -144 46 -148 132z"/>
            <glyph glyph-name="dotaccent" unicode="&#x2d9;" horiz-adv-x="500"
                   d="M252 695c40 0 74 -34 74 -75s-34 -75 -75 -75s-75 34 -75 75c0 42 34 75 76 75z"/>
            <glyph glyph-name="dieresis" unicode="&#xa8;" horiz-adv-x="500"
                   d="M349 695c40 0 74 -34 74 -75s-34 -75 -75 -75s-75 34 -75 75c0 42 34 75 76 75zM153 695c40 0 74 -34 74 -75s-34 -75 -75 -75s-75 34 -75 75c0 42 34 75 76 75z"/>
            <glyph glyph-name="ring" unicode="&#x2da;" horiz-adv-x="500"
                   d="M252 738c55 0 102 -47 102 -104s-47 -104 -104 -104c-58 0 -104 47 -104 105c0 57 47 103 106 103zM251 681c-27 0 -48 -21 -48 -47s21 -47 47 -47s47 21 47 47s-21 47 -46 47z"/>
            <glyph glyph-name="cedilla" unicode="&#xb8;" horiz-adv-x="500"
                   d="M272 0l-39 -59c18 3 26 4 37 4c49 0 82 -27 82 -66c0 -53 -45 -87 -115 -87c-35 0 -68 7 -106 22l18 39c28 -11 50 -16 72 -16c30 0 50 14 50 35s-18 35 -45 35c-12 0 -20 -2 -34 -7l-20 18l56 82h44z"/>
            <glyph glyph-name="hungarumlaut" unicode="&#x2dd;" horiz-adv-x="500"
                   d="M449 691l-96 -135h-76l51 135h121zM289 691l-96 -135h-76l51 135h121z"/>
            <glyph glyph-name="ogonek" unicode="&#x2db;" horiz-adv-x="500"
                   d="M269 0h67c-39 -30 -54 -52 -54 -81c0 -27 24 -45 61 -45c9 0 17 1 33 5v-55c-26 -8 -40 -10 -60 -10c-68 0 -114 35 -114 87c0 35 19 63 67 99z"/>
            <glyph glyph-name="caron" unicode="&#x2c7;" horiz-adv-x="500"
                   d="M415 691l-103 -134h-122l-105 134h106l60 -82l61 82h103z"/>
            <glyph glyph-name="emdash" unicode="&#x2014;" horiz-adv-x="740"
                   d="M740 308v-119h-740v119h740z"/>
            <glyph glyph-name="AE" unicode="&#xc6;" horiz-adv-x="923"
                   d="M876 667v-123h-314v-143h294v-115h-294v-163h322v-123h-460v145h-212l-67 -145h-157l319 667h569zM424 252v298h-32l-134 -298h166z"/>
            <glyph glyph-name="ordfeminine" unicode="&#xaa;" horiz-adv-x="373"
                   d="M339 286h-304v57h304v-57zM323 400h-82c-3 9 -4 11 -5 22c-25 -20 -52 -29 -87 -29c-61 0 -97 30 -97 81c0 33 17 58 49 71c15 6 30 9 71 14c57 8 63 10 63 29c0 22 -14 32 -46 32c-34 0 -46 -10 -51 -39h-75c4 62 47 93 128 93c43 0 76 -9 97 -26c20 -15 25 -29 25 -69
c0 -9 0 -9 -1 -52v-54c0 -40 2 -52 11 -73zM234 500v25c-11 -5 -18 -7 -49 -11c-40 -6 -52 -15 -52 -36s14 -33 39 -33c38 0 62 21 62 55z"/>
            <glyph glyph-name="Lslash" unicode="&#x141;" horiz-adv-x="561"
                   d="M64 354v313h145v-243l137 94v-113l-137 -95v-187h326v-123h-471v241l-60 -45v113z"/>
            <glyph glyph-name="Oslash" unicode="&#xd8;" horiz-adv-x="727"
                   d="M689 634l-68 -76c45 -63 65 -131 65 -218c0 -107 -24 -179 -84 -253c-53 -64 -141 -103 -233 -103c-86 0 -163 23 -207 61l-65 -75l-66 60l67 78c-51 74 -68 129 -68 225c0 215 130 350 337 350c51 0 96 -10 133 -29c4 -2 23 -12 50 -28l10 -5l61 69zM197 215l272 313
c-44 25 -72 34 -108 34c-114 0 -184 -87 -184 -230c0 -40 5 -68 20 -117zM519 453l-265 -309c32 -28 63 -39 108 -39c58 0 104 25 138 74c30 43 41 84 41 152c0 48 -3 66 -22 122z"/>
            <glyph glyph-name="OE" unicode="&#x152;" horiz-adv-x="1022"
                   d="M976 667v-123h-333v-143h305v-115h-305v-163h340v-123h-477l1 51c-41 -44 -96 -66 -168 -66c-177 0 -304 144 -304 343c0 207 130 354 311 354c75 0 130 -22 161 -63v48h469zM504 263v143c0 50 -7 75 -28 101c-27 35 -67 53 -115 53c-109 0 -179 -90 -179 -228
c0 -136 70 -226 174 -226c91 0 148 60 148 157z"/>
            <glyph glyph-name="ordmasculine" unicode="&#xba;" horiz-adv-x="373"
                   d="M339 286h-304v57h304v-57zM190 674c84 0 140 -56 140 -140c0 -85 -57 -141 -143 -141s-143 56 -143 141c0 84 58 140 146 140zM188 616c-41 0 -64 -30 -64 -83c0 -52 23 -82 64 -82c39 0 62 30 62 83c0 51 -24 82 -62 82z"/>
            <glyph glyph-name="ae" unicode="&#xe6;" horiz-adv-x="843"
                   d="M682 151h126c-25 -101 -112 -164 -226 -164c-67 0 -123 23 -163 65c-53 -51 -100 -66 -205 -66c-57 0 -84 5 -115 20c-47 23 -73 67 -73 126c0 46 16 84 47 106c32 24 71 36 151 45c105 12 124 22 124 63s-27 61 -83 61c-60 0 -85 -19 -91 -72h-133c5 54 19 82 55 112
c40 33 98 49 178 49c77 0 131 -15 172 -47c34 29 84 47 135 47c140 0 234 -105 234 -264v-21h-344c0 -81 41 -129 108 -129c49 0 82 22 103 69zM348 186v51c-13 -11 -36 -18 -81 -24c-82 -10 -108 -28 -108 -75c0 -41 27 -62 82 -62c70 0 107 38 107 110zM470 289h214
c-5 71 -44 112 -106 112c-35 0 -68 -16 -87 -43c-12 -17 -17 -35 -21 -69z"/>
            <glyph glyph-name="dotlessi" unicode="&#x131;" horiz-adv-x="249"
                   d="M190 483v-483h-132v483h132z"/>
            <glyph glyph-name="lslash" unicode="&#x142;" horiz-adv-x="249"
                   d="M58 361v306h132v-242l60 42v-93l-60 -43v-331h-132v267l-60 -43v93z"/>
            <glyph glyph-name="oslash" unicode="&#xf8;"
                   d="M527 466l-50 -57c36 -40 53 -92 53 -157c0 -160 -97 -265 -245 -265c-60 0 -105 12 -149 39l-56 -59l-49 48l52 58c-22 37 -25 43 -31 55c-14 32 -22 74 -22 115c0 144 104 253 243 253c60 0 119 -15 153 -40l52 56zM172 168l174 208c-18 14 -44 22 -69 22
c-71 0 -117 -62 -117 -159c0 -24 3 -39 12 -71zM385 316l-172 -209c27 -18 39 -22 65 -22c76 0 121 57 121 155c0 28 -2 41 -14 76z"/>
            <glyph glyph-name="oe" unicode="&#x153;" horiz-adv-x="867"
                   d="M707 153h127c-32 -106 -114 -166 -228 -166c-82 0 -134 24 -173 80c-39 -55 -90 -80 -168 -80c-142 0 -235 100 -235 254c0 152 98 255 243 255c74 0 131 -26 165 -76c40 50 96 76 166 76c83 0 157 -39 194 -102c29 -49 41 -103 40 -183h-347c1 -80 46 -129 116 -129
c48 0 76 20 100 71zM489 289h217c-5 71 -44 112 -107 112c-62 0 -102 -40 -110 -112zM274 398c-70 0 -111 -58 -111 -157s39 -156 108 -156c68 0 105 57 105 161c0 96 -38 152 -102 152z"/>
            <glyph glyph-name="germandbls" unicode="&#xdf;" horiz-adv-x="555"
                   d="M245 -4v103c16 -2 23 -3 34 -3c69 0 112 45 112 116c0 75 -43 112 -131 112c-2 0 -8 0 -15 -1v84h17c65 0 101 30 101 85c0 52 -35 87 -87 87c-32 0 -60 -14 -72 -37c-11 -20 -14 -41 -14 -92v-450h-132v425c0 88 8 128 33 166c37 55 106 86 189 86
c126 0 210 -70 210 -174c0 -61 -33 -112 -87 -131c77 -18 121 -80 121 -168c0 -68 -28 -128 -79 -169c-38 -30 -79 -42 -141 -42c-19 0 -33 1 -59 3z"/>
            <glyph glyph-name="onesuperior" unicode="&#xb9;" horiz-adv-x="375"
                   d="M264 661v-394h-92v253h-27h-30h-30h-13v63c74 1 110 24 119 78h73z"/>
            <glyph glyph-name="logicalnot" unicode="&#xac;" horiz-adv-x="500"
                   d="M326 0v164h-293v126h433v-290h-140z"/>
            <glyph glyph-name="mu" unicode="&#xb5;" horiz-adv-x="500"
                   d="M33 -170v650h122v-253c0 -52 4 -71 19 -93c19 -27 46 -42 75 -42c60 0 96 53 96 139v249h122v-480h-122v70c-21 -55 -52 -80 -98 -80c-41 0 -68 18 -92 62v-222h-122z"/>
            <glyph glyph-name="trademark" unicode="&#x2122;" horiz-adv-x="885"
                   d="M328 668v-75h-109v-311h-95v311h-110v75h314zM505 668l97 -254l96 254h126v-386h-90v274h-2l-99 -274h-65l-98 274h-2v-274h-90v386h127z"/>
            <glyph glyph-name="Eth" unicode="&#xd0;" horiz-adv-x="693"
                   d="M64 667h269c101 0 169 -22 224 -72c65 -59 100 -148 100 -253c0 -115 -31 -203 -94 -265c-56 -56 -119 -77 -227 -77h-272v301h-60v93h60v273zM209 544v-150h147v-93h-147v-178h112c69 0 106 12 136 45c35 38 53 95 53 168c0 136 -67 208 -194 208h-107z"/>
            <glyph glyph-name="onehalf" unicode="&#xbd;" horiz-adv-x="913"
                   d="M264 661v-394h-92v253h-27h-30h-30h-13v63c74 1 110 24 119 78h73zM678 657l-364 -657h-78l366 657h76zM879 75v-75h-314c5 88 25 113 165 198c41 25 54 43 54 71c0 31 -22 52 -56 52c-44 0 -64 -26 -65 -84h-88c-1 5 -1 10 -1 11c0 91 61 148 157 148
c86 0 146 -50 146 -122c0 -33 -12 -61 -36 -85c-15 -15 -18 -17 -74 -52c-49 -30 -72 -47 -85 -64c24 1 40 1 65 1z"/>
            <glyph glyph-name="plusminus" unicode="&#xb1;"
                   d="M50 282v89h185v186h89v-186h186v-89h-186v-172h-89v172h-185zM50 -13v89h460v-89h-460z"/>
            <glyph glyph-name="Thorn" unicode="&#xde;" horiz-adv-x="628"
                   d="M64 667h145v-94h123c91 0 136 -10 178 -38c57 -39 87 -99 87 -176c0 -68 -25 -124 -72 -164c-41 -34 -90 -48 -166 -48h-150v-147h-145v667zM209 450v-188h130c40 0 66 6 83 21c20 16 32 43 32 74c0 32 -13 59 -37 75c-18 13 -43 18 -86 18h-122z"/>
            <glyph glyph-name="onequarter" unicode="&#xbc;" horiz-adv-x="913"
                   d="M264 661v-394h-92v253h-27h-30h-30h-13v63c74 1 110 24 119 78h73zM678 657l-364 -657h-78l366 657h76zM888 161v-72h-54v-89h-88v89h-180v77l185 228h83v-233h54zM749 158v142l-109 -143z"/>
            <glyph glyph-name="divide" unicode="&#xf7;"
                   d="M282 564c36 0 66 -31 66 -67c0 -38 -30 -68 -67 -68c-38 0 -68 30 -68 68c0 37 30 67 69 67zM282 224c36 0 66 -31 66 -67c0 -38 -30 -68 -67 -68c-38 0 -68 30 -68 68c0 37 30 67 69 67zM50 282v89h460v-89h-460z"/>
            <glyph glyph-name="brokenbar" unicode="&#xa6;" horiz-adv-x="500"
                   d="M178 667h144v-350h-144v350zM178 153h144v-320h-144v320z"/>
            <glyph glyph-name="degree" unicode="&#xb0;" horiz-adv-x="398"
                   d="M200 673c88 0 158 -71 158 -161c0 -87 -72 -158 -158 -158c-89 0 -160 71 -160 159c0 89 71 160 160 160zM198 612c-51 0 -95 -45 -95 -99s43 -98 96 -98c51 0 96 45 96 96c0 56 -43 101 -97 101z"/>
            <glyph glyph-name="thorn" unicode="&#xfe;" horiz-adv-x="582"
                   d="M190 667v-244c33 49 81 73 145 73c128 0 214 -103 214 -257c0 -152 -83 -252 -210 -252c-65 0 -112 23 -149 73v-231h-132v838h132zM302 388c-74 0 -117 -54 -117 -149c0 -94 44 -149 117 -149c71 0 114 56 114 147c0 93 -43 151 -114 151z"/>
            <glyph glyph-name="threequarters" unicode="&#xbe;" horiz-adv-x="913"
                   d="M124 528h-87c2 85 58 136 149 136c85 0 143 -44 143 -109c0 -36 -17 -61 -50 -77c42 -15 65 -46 65 -90c0 -75 -66 -128 -159 -128c-98 0 -159 54 -159 140v7h89c-1 -47 23 -73 68 -73c40 0 66 22 66 55c0 36 -25 54 -73 54c-9 0 -14 0 -24 -2v63h18c47 0 70 15 70 46
c0 26 -22 44 -55 44c-39 0 -59 -22 -61 -66zM678 657l-365 -657h-78l366 657h77zM888 161v-72h-54v-89h-88v89h-180v77l185 228h83v-233h54zM749 158v142l-109 -143z"/>
            <glyph glyph-name="twosuperior" unicode="&#xb2;" horiz-adv-x="375"
                   d="M341 342v-75h-314c5 88 25 113 165 199c41 25 54 42 54 70c0 32 -22 53 -56 53c-44 0 -64 -26 -65 -85h-88c-1 5 -1 10 -1 11c0 91 61 149 157 149c86 0 146 -50 146 -122c0 -34 -12 -62 -36 -86c-15 -15 -18 -17 -74 -52c-50 -31 -71 -47 -85 -64c24 1 40 1 65 1z"/>
            <glyph glyph-name="registered" unicode="&#xae;" horiz-adv-x="525"
                   d="M262 697c124 0 219 -96 219 -221c0 -126 -95 -222 -219 -222c-125 0 -219 96 -219 224c0 124 95 219 219 219zM263 642c-93 0 -161 -71 -161 -167s68 -166 160 -166c94 0 160 69 160 168c0 95 -68 165 -159 165zM172 591h119c41 0 68 -26 68 -65c0 -26 -11 -43 -37 -55
c24 -8 32 -25 34 -67c2 -27 3 -32 9 -41h-65c-4 14 -6 22 -7 39c-1 30 -9 42 -26 42h-30v-81h-65v228zM237 536v-39h35c12 0 21 9 21 20c0 14 -6 19 -21 19h-35z"/>
            <glyph glyph-name="minus" unicode="&#x2212;"
                   d="M50 282v89h460v-89h-460z"/>
            <glyph glyph-name="eth" unicode="&#xf0;"
                   d="M178 590l73 30l-24 50l76 33l28 -49l79 31l31 -62l-70 -29l78 -125c64 -103 81 -150 81 -227c0 -153 -100 -256 -248 -256c-152 0 -252 102 -252 255c0 147 99 256 232 256c15 0 25 -1 48 -4l-32 63l-76 -32zM281 399c-75 0 -118 -58 -118 -158c0 -99 44 -157 118 -157
c73 0 116 59 116 158c0 97 -44 157 -116 157z"/>
            <glyph glyph-name="multiply" unicode="&#xd7;"
                   d="M135 118l-63 63l145 146l-145 145l63 63l145 -145l146 145l63 -63l-145 -145l145 -146l-63 -63l-146 145z"/>
            <glyph glyph-name="threesuperior" unicode="&#xb3;" horiz-adv-x="375"
                   d="M124 528h-87c2 85 58 136 149 136c85 0 143 -44 143 -109c0 -36 -17 -61 -50 -77c42 -15 65 -46 65 -90c0 -75 -66 -128 -159 -128c-98 0 -159 54 -159 140v7h89c-1 -47 23 -73 68 -73c40 0 66 22 66 55c0 36 -25 54 -73 54c-9 0 -14 0 -24 -2v63h18c47 0 70 15 70 46
c0 26 -22 44 -55 44c-39 0 -59 -22 -61 -66z"/>
            <glyph glyph-name="copyright" unicode="&#xa9;" horiz-adv-x="777"
                   d="M471 276h83c-9 -84 -74 -138 -163 -138c-112 0 -190 83 -190 201c0 115 77 195 188 195c90 0 147 -46 166 -134h-83c-10 44 -38 67 -82 67c-65 0 -108 -51 -108 -127c0 -77 47 -135 109 -135c44 0 75 28 80 71zM387 683c196 0 350 -155 350 -353
c0 -189 -158 -346 -349 -346c-193 0 -349 157 -349 350s156 349 348 349zM388 617c-155 0 -280 -126 -280 -282c0 -157 125 -285 280 -285c152 0 280 128 280 281c0 160 -123 286 -280 286z"/>
            <glyph glyph-name="Aacute" unicode="&#xc1;" horiz-adv-x="657"
                   d="M404 668l254 -668h-153l-53 149h-248l-54 -149h-150l254 668h150zM416 256l-43 120c-25 71 -33 100 -44 145c-12 -42 -19 -64 -47 -145l-43 -120h177zM484 844l-139 -121h-98l84 121h153z"/>
            <glyph glyph-name="Acircumflex" unicode="&#xc2;" horiz-adv-x="657"
                   d="M404 668l254 -668h-153l-53 149h-248l-54 -149h-150l254 668h150zM416 256l-43 120c-25 71 -33 100 -44 145c-12 -42 -19 -64 -47 -145l-43 -120h177zM500 725h-119l-54 65l-56 -65h-113l108 125h125z"/>
            <glyph glyph-name="Adieresis" unicode="&#xc4;" horiz-adv-x="657"
                   d="M404 668l254 -668h-153l-53 149h-248l-54 -149h-150l254 668h150zM416 256l-43 120c-25 71 -33 100 -44 145c-12 -42 -19 -64 -47 -145l-43 -120h177zM434 859c40 0 74 -34 74 -75s-34 -75 -75 -75s-75 34 -75 75c0 42 34 75 76 75zM227 859c40 0 74 -34 74 -75
s-34 -75 -75 -75s-75 34 -75 75c0 42 34 75 76 75z"/>
            <glyph glyph-name="Agrave" unicode="&#xc0;" horiz-adv-x="657"
                   d="M404 668l254 -668h-153l-53 149h-248l-54 -149h-150l254 668h150zM416 256l-43 120c-25 71 -33 100 -44 145c-12 -42 -19 -64 -47 -145l-43 -120h177zM174 844h153l84 -121h-98z"/>
            <glyph glyph-name="Aring" unicode="&#xc5;" horiz-adv-x="657"
                   d="M404 668l254 -668h-153l-53 149h-248l-54 -149h-150l254 668h150zM416 256l-43 120c-25 71 -33 100 -44 145c-12 -42 -19 -64 -47 -145l-43 -120h177zM330 923c59 0 109 -51 109 -111c0 -61 -50 -111 -110 -111c-62 0 -111 50 -111 112c0 61 50 110 112 110zM329 865
c-29 0 -53 -23 -53 -53c0 -29 23 -53 53 -53c28 0 52 24 52 53s-24 53 -52 53z"/>
            <glyph glyph-name="Atilde" unicode="&#xc3;" horiz-adv-x="657"
                   d="M404 668l254 -668h-153l-53 149h-248l-54 -149h-150l254 668h150zM416 256l-43 120c-25 71 -33 100 -44 145c-12 -42 -19 -64 -47 -145l-43 -120h177zM443 849h64c-14 -79 -51 -119 -110 -119c-20 0 -22 1 -66 18c-26 10 -53 18 -63 18c-20 0 -34 -14 -39 -39h-65
c6 36 13 53 30 74c24 30 48 44 77 44c19 0 31 -3 67 -17c30 -12 47 -16 61 -16c21 0 33 10 44 37z"/>
            <glyph glyph-name="Ccedilla" unicode="&#xc7;" horiz-adv-x="682"
                   d="M510 257h146c-12 -166 -136 -277 -305 -273l-28 -42c18 4 26 5 37 5c46 0 81 -28 81 -67c0 -52 -46 -86 -116 -86c-34 0 -63 6 -105 21l18 40c28 -11 52 -16 74 -16c27 0 47 15 47 36c0 20 -19 34 -46 34c-11 0 -19 -2 -33 -8l-19 19l44 66c-75 13 -129 39 -173 85
c-63 65 -97 156 -97 260c0 209 133 352 327 352c95 0 167 -30 224 -93c37 -42 57 -88 65 -147h-146c-12 75 -66 118 -146 118c-108 0 -177 -88 -177 -225c0 -60 14 -116 38 -153c34 -52 75 -77 131 -77c38 0 78 10 98 24c30 23 55 75 61 127z"/>
            <glyph glyph-name="Eacute" unicode="&#xc9;" horiz-adv-x="611"
                   d="M564 667v-123h-355v-143h326v-115h-326v-163h362v-123h-507v667h500zM480 844l-139 -121h-98l84 121h153z"/>
            <glyph glyph-name="Ecircumflex" unicode="&#xca;" horiz-adv-x="611"
                   d="M564 667v-123h-355v-143h326v-115h-326v-163h362v-123h-507v667h500zM493 725h-119l-54 65l-56 -65h-113l108 125h125z"/>
            <glyph glyph-name="Edieresis" unicode="&#xcb;" horiz-adv-x="611"
                   d="M564 667v-123h-355v-143h326v-115h-326v-163h362v-123h-507v667h500zM423 859c40 0 74 -34 74 -75s-34 -75 -75 -75s-75 34 -75 75c0 42 34 75 76 75zM216 859c40 0 74 -34 74 -75s-34 -75 -75 -75s-75 34 -75 75c0 42 34 75 76 75z"/>
            <glyph glyph-name="Egrave" unicode="&#xc8;" horiz-adv-x="611"
                   d="M564 667v-123h-355v-143h326v-115h-326v-163h362v-123h-507v667h500zM160 844h153l84 -121h-98z"/>
            <glyph glyph-name="Iacute" unicode="&#xcd;" horiz-adv-x="275"
                   d="M210 667v-667h-145v667h145zM296 844l-139 -121h-98l84 121h153z"/>
            <glyph glyph-name="Icircumflex" unicode="&#xce;" horiz-adv-x="275"
                   d="M210 667v-667h-145v667h145zM299 725h-119l-44 65l-46 -65h-113l99 125h125z"/>
            <glyph glyph-name="Idieresis" unicode="&#xcf;" horiz-adv-x="275"
                   d="M210 667v-667h-145v667h145zM220 859c40 0 74 -34 74 -75s-34 -75 -75 -75s-75 34 -75 75c0 42 34 75 76 75zM58 859c40 0 74 -34 74 -75s-34 -75 -75 -75s-75 34 -75 75c0 42 34 75 76 75z"/>
            <glyph glyph-name="Igrave" unicode="&#xcc;" horiz-adv-x="275"
                   d="M210 667v-667h-145v667h145zM-21 844h153l84 -121h-98z"/>
            <glyph glyph-name="Ntilde" unicode="&#xd1;" horiz-adv-x="693"
                   d="M628 667v-667h-146l-199 322c-64 106 -64 107 -84 149c4 -40 5 -84 6 -187v-284h-140v667h148l194 -315c43 -71 72 -121 87 -154c-3 60 -5 124 -6 191v278h140zM464 849h64c-14 -79 -51 -119 -110 -119c-20 0 -22 1 -66 18c-26 10 -53 18 -63 18c-20 0 -33 -14 -39 -39
h-65c6 36 13 53 30 74c24 30 48 44 77 44c19 0 31 -3 67 -17c31 -12 47 -16 61 -16c21 0 33 10 44 37z"/>
            <glyph glyph-name="Oacute" unicode="&#xd3;" horiz-adv-x="727"
                   d="M369 683c191 0 323 -143 323 -350c0 -208 -132 -349 -327 -349c-198 0 -330 140 -330 349c0 212 131 350 334 350zM367 562c-114 0 -185 -87 -185 -228s70 -229 184 -229c110 0 179 89 179 231c0 137 -70 226 -178 226zM529 844l-140 -121h-98l85 121h153z"/>
            <glyph glyph-name="Ocircumflex" unicode="&#xd4;" horiz-adv-x="727"
                   d="M369 683c191 0 323 -143 323 -350c0 -208 -132 -349 -327 -349c-198 0 -330 140 -330 349c0 212 131 350 334 350zM367 562c-114 0 -185 -87 -185 -228s70 -229 184 -229c110 0 179 89 179 231c0 137 -70 226 -178 226zM534 725h-118l-55 65l-55 -65h-114l109 125h125z
"/>
            <glyph glyph-name="Odieresis" unicode="&#xd6;" horiz-adv-x="727"
                   d="M369 683c191 0 323 -143 323 -350c0 -208 -132 -349 -327 -349c-198 0 -330 140 -330 349c0 212 131 350 334 350zM367 562c-114 0 -185 -87 -185 -228s70 -229 184 -229c110 0 179 89 179 231c0 137 -70 226 -178 226zM469 859c40 0 74 -34 74 -75s-34 -75 -75 -75
s-75 34 -75 75c0 42 34 75 76 75zM262 859c40 0 74 -34 74 -75s-34 -75 -75 -75s-75 34 -75 75c0 42 34 75 76 75z"/>
            <glyph glyph-name="Ograve" unicode="&#xd2;" horiz-adv-x="727"
                   d="M369 683c191 0 323 -143 323 -350c0 -208 -132 -349 -327 -349c-198 0 -330 140 -330 349c0 212 131 350 334 350zM367 562c-114 0 -185 -87 -185 -228s70 -229 184 -229c110 0 179 89 179 231c0 137 -70 226 -178 226zM205 844h153l84 -121h-98z"/>
            <glyph glyph-name="Otilde" unicode="&#xd5;" horiz-adv-x="727"
                   d="M369 683c191 0 323 -143 323 -350c0 -208 -132 -349 -327 -349c-198 0 -330 140 -330 349c0 212 131 350 334 350zM367 562c-114 0 -185 -87 -185 -228s70 -229 184 -229c110 0 179 89 179 231c0 137 -70 226 -178 226zM480 849h65c-14 -79 -51 -119 -110 -119
c-20 0 -22 1 -66 18c-26 10 -53 18 -63 18c-20 0 -34 -14 -39 -39h-65c6 36 13 53 30 74c24 30 48 44 77 44c19 0 31 -3 67 -17c30 -12 47 -16 61 -16c21 0 33 10 43 37z"/>
            <glyph glyph-name="Scaron" unicode="&#x160;" horiz-adv-x="613"
                   d="M475 850l-109 -125h-125l-108 125h113l56 -65l54 65h119zM556 469h-139c-5 66 -49 101 -126 101c-69 0 -109 -28 -109 -77c0 -21 10 -38 27 -48c21 -11 50 -20 135 -41c84 -20 124 -35 157 -57c53 -34 81 -85 81 -147c0 -133 -105 -216 -275 -216
c-181 0 -285 86 -289 239h145c2 -41 10 -63 29 -83c27 -29 66 -43 121 -43c75 0 122 34 122 89c0 29 -15 48 -51 62c-28 11 -29 11 -131 39c-85 24 -131 44 -160 69c-33 30 -51 74 -51 126c0 122 101 201 257 201c98 0 175 -31 218 -89c25 -34 37 -72 39 -125z"/>
            <glyph glyph-name="Uacute" unicode="&#xda;" horiz-adv-x="680"
                   d="M624 667v-394c0 -100 -13 -151 -52 -200c-48 -61 -120 -89 -232 -89c-119 0 -195 32 -243 101c-32 45 -43 95 -43 190v392h145v-402c0 -56 6 -85 22 -109c23 -34 64 -51 122 -51c99 0 136 44 136 160v402h145zM498 844l-139 -121h-98l84 121h153z"/>
            <glyph glyph-name="Ucircumflex" unicode="&#xdb;" horiz-adv-x="680"
                   d="M624 667v-394c0 -100 -13 -151 -52 -200c-48 -61 -120 -89 -232 -89c-119 0 -195 32 -243 101c-32 45 -43 95 -43 190v392h145v-402c0 -56 6 -85 22 -109c23 -34 64 -51 122 -51c99 0 136 44 136 160v402h145zM511 725h-119l-54 65l-56 -65h-113l108 125h125z"/>
            <glyph glyph-name="Udieresis" unicode="&#xdc;" horiz-adv-x="680"
                   d="M624 667v-394c0 -100 -13 -151 -52 -200c-48 -61 -120 -89 -232 -89c-119 0 -195 32 -243 101c-32 45 -43 95 -43 190v392h145v-402c0 -56 6 -85 22 -109c23 -34 64 -51 122 -51c99 0 136 44 136 160v402h145zM445 859c40 0 74 -34 74 -75s-34 -75 -75 -75s-75 34 -75 75
c0 42 34 75 76 75zM238 859c40 0 74 -34 74 -75s-34 -75 -75 -75s-75 34 -75 75c0 42 34 75 76 75z"/>
            <glyph glyph-name="Ugrave" unicode="&#xd9;" horiz-adv-x="680"
                   d="M624 667v-394c0 -100 -13 -151 -52 -200c-48 -61 -120 -89 -232 -89c-119 0 -195 32 -243 101c-32 45 -43 95 -43 190v392h145v-402c0 -56 6 -85 22 -109c23 -34 64 -51 122 -51c99 0 136 44 136 160v402h145zM181 844h153l84 -121h-97z"/>
            <glyph glyph-name="Yacute" unicode="&#xdd;" horiz-adv-x="606"
                   d="M623 667l-248 -410v-257h-145v259l-249 408h166l104 -178c18 -32 44 -85 53 -109c15 35 45 97 56 116l101 171h162zM461 844l-139 -121h-98l84 121h153z"/>
            <glyph glyph-name="Ydieresis" unicode="&#x178;" horiz-adv-x="606"
                   d="M623 667l-248 -410v-257h-145v259l-249 408h166l104 -178c18 -32 44 -85 53 -109c15 35 45 97 56 116l101 171h162zM412 859c40 0 74 -34 74 -75s-34 -75 -75 -75s-75 34 -75 75c0 42 34 75 76 75zM205 859c40 0 74 -34 74 -75s-34 -75 -75 -75s-75 34 -75 75
c0 42 34 75 76 75z"/>
            <glyph glyph-name="Zcaron" unicode="&#x17d;" horiz-adv-x="609"
                   d="M574 667v-111l-298 -357c-12 -15 -13 -15 -74 -80c68 3 98 4 134 4h250v-123h-564v116l307 367c13 15 25 28 61 64c-56 -2 -82 -3 -121 -3h-222v123h527zM489 850l-109 -125h-125l-108 125h113l56 -65l54 65h119z"/>
            <glyph glyph-name="aacute" unicode="&#xe1;" horiz-adv-x="521"
                   d="M419 691l-135 -134h-89l85 134h139zM518 88v-86c-19 -9 -34 -12 -58 -12c-59 0 -89 19 -101 63c-43 -46 -94 -66 -166 -66c-105 0 -167 54 -167 145c0 47 16 84 47 107c32 24 71 35 151 44c105 12 124 22 124 63s-27 61 -83 61c-60 0 -85 -19 -91 -72h-133
c5 54 19 82 55 112c39 33 99 49 177 49c136 0 208 -47 208 -136v-234c0 -33 5 -38 33 -38h4zM348 186v51c-13 -11 -36 -18 -81 -24c-81 -10 -108 -28 -108 -75c0 -41 27 -62 82 -62c70 0 107 38 107 110z"/>
            <glyph glyph-name="acircumflex" unicode="&#xe2;" horiz-adv-x="521"
                   d="M435 557h-107l-59 80l-61 -80h-102l104 134h121zM518 88v-86c-19 -9 -34 -12 -58 -12c-59 0 -89 19 -101 63c-43 -46 -94 -66 -166 -66c-105 0 -167 54 -167 145c0 47 16 84 47 107c32 24 71 35 151 44c105 12 124 22 124 63s-27 61 -83 61c-60 0 -85 -19 -91 -72h-133
c5 54 19 82 55 112c39 33 99 49 177 49c136 0 208 -47 208 -136v-234c0 -33 5 -38 33 -38h4zM348 186v51c-13 -11 -36 -18 -81 -24c-81 -10 -108 -28 -108 -75c0 -41 27 -62 82 -62c70 0 107 38 107 110z"/>
            <glyph glyph-name="adieresis" unicode="&#xe4;" horiz-adv-x="521"
                   d="M370 695c40 0 74 -34 74 -75s-34 -75 -75 -75s-75 34 -75 75c0 42 34 75 76 75zM173 695c40 0 74 -34 74 -75s-34 -75 -75 -75s-75 34 -75 75c0 42 34 75 76 75zM518 88v-86c-19 -9 -34 -12 -58 -12c-59 0 -89 19 -101 63c-43 -46 -94 -66 -166 -66
c-105 0 -167 54 -167 145c0 47 16 84 47 107c32 24 71 35 151 44c105 12 124 22 124 63s-27 61 -83 61c-60 0 -85 -19 -91 -72h-133c5 54 19 82 55 112c39 33 99 49 177 49c136 0 208 -47 208 -136v-234c0 -33 5 -38 33 -38h4zM348 186v51c-13 -11 -36 -18 -81 -24
c-81 -10 -108 -28 -108 -75c0 -41 27 -62 82 -62c70 0 107 38 107 110z"/>
            <glyph glyph-name="agrave" unicode="&#xe0;" horiz-adv-x="521"
                   d="M115 691h140l84 -134h-89zM518 88v-86c-19 -9 -34 -12 -58 -12c-59 0 -89 19 -101 63c-43 -46 -94 -66 -166 -66c-105 0 -167 54 -167 145c0 47 16 84 47 107c32 24 71 35 151 44c105 12 124 22 124 63s-27 61 -83 61c-60 0 -85 -19 -91 -72h-133c5 54 19 82 55 112
c39 33 99 49 177 49c136 0 208 -47 208 -136v-234c0 -33 5 -38 33 -38h4zM348 186v51c-13 -11 -36 -18 -81 -24c-81 -10 -108 -28 -108 -75c0 -41 27 -62 82 -62c70 0 107 38 107 110z"/>
            <glyph glyph-name="aring" unicode="&#xe5;" horiz-adv-x="521"
                   d="M270 738c55 0 102 -47 102 -104s-47 -104 -104 -104c-58 0 -104 47 -104 105c0 57 47 103 106 103zM269 681c-27 0 -48 -21 -48 -47s21 -47 47 -47s47 21 47 47s-21 47 -46 47zM518 88v-86c-19 -9 -34 -12 -58 -12c-59 0 -89 19 -101 63c-43 -46 -94 -66 -166 -66
c-105 0 -167 54 -167 145c0 47 16 84 47 107c32 24 71 35 151 44c105 12 124 22 124 63s-27 61 -83 61c-60 0 -85 -19 -91 -72h-133c5 54 19 82 55 112c39 33 99 49 177 49c136 0 208 -47 208 -136v-234c0 -33 5 -38 33 -38h4zM348 186v51c-13 -11 -36 -18 -81 -24
c-81 -10 -108 -28 -108 -75c0 -41 27 -62 82 -62c70 0 107 38 107 110z"/>
            <glyph glyph-name="atilde" unicode="&#xe3;" horiz-adv-x="521"
                   d="M372 685h60c-14 -77 -47 -115 -102 -115c-25 0 -36 3 -95 30c-9 4 -17 6 -25 6c-20 0 -34 -14 -39 -39h-60c11 71 50 116 101 116c19 0 30 -3 63 -17c29 -12 46 -17 59 -17c18 0 28 10 38 36zM518 88v-86c-19 -9 -34 -12 -58 -12c-59 0 -89 19 -101 63
c-43 -46 -94 -66 -166 -66c-105 0 -167 54 -167 145c0 47 16 84 47 107c32 24 71 35 151 44c105 12 124 22 124 63s-27 61 -83 61c-60 0 -85 -19 -91 -72h-133c5 54 19 82 55 112c39 33 99 49 177 49c136 0 208 -47 208 -136v-234c0 -33 5 -38 33 -38h4zM348 186v51
c-13 -11 -36 -18 -81 -24c-81 -10 -108 -28 -108 -75c0 -41 27 -62 82 -62c70 0 107 38 107 110z"/>
            <glyph glyph-name="ccedilla" unicode="&#xe7;" horiz-adv-x="531"
                   d="M380 185h128c-16 -125 -105 -199 -238 -199l-30 -45c18 3 26 4 37 4c49 0 82 -27 82 -66c0 -53 -45 -87 -114 -87c-36 0 -69 7 -107 22l18 39c29 -11 50 -16 73 -16c30 0 49 14 49 35s-18 35 -45 35c-11 0 -20 -2 -34 -7l-19 18l48 71c-49 11 -68 18 -97 38
c-65 46 -101 121 -101 213c0 151 102 256 251 256c74 0 138 -25 179 -72c27 -30 40 -61 47 -111h-132c-11 56 -42 83 -96 83c-72 0 -115 -57 -115 -155c0 -97 42 -154 115 -154c56 0 91 34 101 98z"/>
            <glyph glyph-name="eacute" unicode="&#xe9;" horiz-adv-x="540"
                   d="M377 150h127c-26 -99 -114 -163 -227 -163c-148 0 -247 101 -247 252c0 149 103 257 243 257c144 0 239 -107 239 -269v-20h-347c3 -81 42 -125 113 -125c49 0 79 20 99 68zM165 292h212c-8 70 -45 109 -104 109s-101 -42 -108 -109zM422 691l-135 -134h-89l84 134h140z
"/>
            <glyph glyph-name="ecircumflex" unicode="&#xea;" horiz-adv-x="540"
                   d="M377 150h127c-26 -99 -114 -163 -227 -163c-148 0 -247 101 -247 252c0 149 103 257 243 257c144 0 239 -107 239 -269v-20h-347c3 -81 42 -125 113 -125c49 0 79 20 99 68zM165 292h212c-8 70 -45 109 -104 109s-101 -42 -108 -109zM441 557h-107l-59 80l-61 -80h-102
l104 134h121z"/>
            <glyph glyph-name="edieresis" unicode="&#xeb;" horiz-adv-x="540"
                   d="M377 150h127c-26 -99 -114 -163 -227 -163c-148 0 -247 101 -247 252c0 149 103 257 243 257c144 0 239 -107 239 -269v-20h-347c3 -81 42 -125 113 -125c49 0 79 20 99 68zM165 292h212c-8 70 -45 109 -104 109s-101 -42 -108 -109zM376 695c40 0 74 -34 74 -75
s-34 -75 -75 -75s-75 34 -75 75c0 42 34 75 76 75zM179 695c40 0 74 -34 74 -75s-34 -75 -75 -75s-75 34 -75 75c0 42 34 75 76 75z"/>
            <glyph glyph-name="egrave" unicode="&#xe8;" horiz-adv-x="540"
                   d="M377 150h127c-26 -99 -114 -163 -227 -163c-148 0 -247 101 -247 252c0 149 103 257 243 257c144 0 239 -107 239 -269v-20h-347c3 -81 42 -125 113 -125c49 0 79 20 99 68zM165 292h212c-8 70 -45 109 -104 109s-101 -42 -108 -109zM125 691h139l85 -134h-89z"/>
            <glyph glyph-name="iacute" unicode="&#xed;" horiz-adv-x="249"
                   d="M190 483v-483h-132v483h132zM270 691l-135 -134h-82l84 134h133z"/>
            <glyph glyph-name="icircumflex" unicode="&#xee;" horiz-adv-x="249"
                   d="M190 483v-483h-132v483h132zM272 557h-100l-49 80l-51 -80h-95l87 134h121z"/>
            <glyph glyph-name="idieresis" unicode="&#xef;" horiz-adv-x="249"
                   d="M190 483v-483h-132v483h132zM224 695c40 0 74 -34 74 -75s-34 -75 -75 -75s-75 34 -75 75c0 42 34 75 76 75zM32 695c40 0 74 -34 74 -75s-34 -75 -75 -75s-75 34 -75 75c0 42 34 75 76 75z"/>
            <glyph glyph-name="igrave" unicode="&#xec;" horiz-adv-x="249"
                   d="M190 483v-483h-132v483h132zM-21 691h133l84 -134h-82z"/>
            <glyph glyph-name="ntilde" unicode="&#xf1;" horiz-adv-x="565"
                   d="M184 483v-67c42 56 91 80 161 80c62 0 113 -25 139 -66c19 -31 26 -63 26 -126v-304h-132v277c0 35 -2 53 -8 69c-10 26 -39 42 -75 42c-41 0 -76 -20 -92 -53c-9 -20 -13 -43 -13 -85v-250h-132v483h126zM388 685h60c-14 -77 -47 -115 -102 -115c-25 0 -36 3 -95 30
c-9 4 -17 6 -25 6c-20 0 -34 -14 -39 -39h-60c11 71 50 116 101 116c19 0 30 -3 63 -17c29 -12 46 -17 59 -17c18 0 28 10 38 36z"/>
            <glyph glyph-name="oacute" unicode="&#xf3;"
                   d="M285 496c146 0 245 -102 245 -254c0 -154 -99 -255 -249 -255c-151 0 -251 102 -251 254c0 154 101 255 255 255zM281 398c-75 0 -118 -58 -118 -157c0 -98 44 -156 118 -156c73 0 116 58 116 157c0 97 -44 156 -116 156zM432 691l-135 -134h-89l84 134h140z"/>
            <glyph glyph-name="ocircumflex" unicode="&#xf4;"
                   d="M285 496c146 0 245 -102 245 -254c0 -154 -99 -255 -249 -255c-151 0 -251 102 -251 254c0 154 101 255 255 255zM281 398c-75 0 -118 -58 -118 -157c0 -98 44 -156 118 -156c73 0 116 58 116 157c0 97 -44 156 -116 156zM444 557h-107l-59 80l-60 -80h-102l104 134h121z
"/>
            <glyph glyph-name="odieresis" unicode="&#xf6;"
                   d="M285 496c146 0 245 -102 245 -254c0 -154 -99 -255 -249 -255c-151 0 -251 102 -251 254c0 154 101 255 255 255zM281 398c-75 0 -118 -58 -118 -157c0 -98 44 -156 118 -156c73 0 116 58 116 157c0 97 -44 156 -116 156zM379 695c40 0 74 -34 74 -75s-34 -75 -75 -75
s-75 34 -75 75c0 42 34 75 76 75zM183 695c40 0 74 -34 74 -75s-34 -75 -75 -75s-75 34 -75 75c0 42 34 75 76 75z"/>
            <glyph glyph-name="ograve" unicode="&#xf2;"
                   d="M285 496c146 0 245 -102 245 -254c0 -154 -99 -255 -249 -255c-151 0 -251 102 -251 254c0 154 101 255 255 255zM281 398c-75 0 -118 -58 -118 -157c0 -98 44 -156 118 -156c73 0 116 58 116 157c0 97 -44 156 -116 156zM128 691h140l84 -134h-89z"/>
            <glyph glyph-name="otilde" unicode="&#xf5;"
                   d="M285 496c146 0 245 -102 245 -254c0 -154 -99 -255 -249 -255c-151 0 -251 102 -251 254c0 154 101 255 255 255zM281 398c-75 0 -118 -58 -118 -157c0 -98 44 -156 118 -156c73 0 116 58 116 157c0 97 -44 156 -116 156zM384 685h60c-14 -77 -47 -115 -102 -115
c-25 0 -36 3 -95 30c-9 4 -17 6 -25 6c-20 0 -34 -14 -39 -39h-60c11 71 50 116 101 116c19 0 30 -3 63 -17c29 -12 46 -17 59 -17c18 0 28 10 38 36z"/>
            <glyph glyph-name="scaron" unicode="&#x161;" horiz-adv-x="496"
                   d="M448 343h-124c-7 46 -33 64 -91 64c-47 0 -74 -17 -74 -47c0 -32 17 -41 119 -62c140 -28 189 -67 189 -149c0 -100 -85 -162 -224 -162c-143 0 -220 57 -227 170h127c6 -56 37 -81 102 -81c54 0 89 23 89 60c0 33 -19 44 -109 64c-88 20 -111 27 -140 43
c-37 21 -59 60 -59 106c0 93 77 147 210 147c81 0 142 -21 178 -61c21 -24 30 -48 34 -92zM409 691l-103 -134h-122l-105 134h106l60 -82l61 82h103z"/>
            <glyph glyph-name="uacute" unicode="&#xfa;" horiz-adv-x="566"
                   d="M507 483v-483h-126v68c-39 -55 -90 -81 -160 -81c-57 0 -105 20 -135 58c-23 29 -32 67 -32 132v306h132v-267c0 -56 2 -72 13 -89c14 -21 39 -32 71 -32c41 0 73 19 91 54c10 19 14 44 14 94v240h132zM435 691l-135 -134h-89l84 134h140z"/>
            <glyph glyph-name="ucircumflex" unicode="&#xfb;" horiz-adv-x="566"
                   d="M507 483v-483h-126v68c-39 -55 -90 -81 -160 -81c-57 0 -105 20 -135 58c-23 29 -32 67 -32 132v306h132v-267c0 -56 2 -72 13 -89c14 -21 39 -32 71 -32c41 0 73 19 91 54c10 19 14 44 14 94v240h132zM447 557h-107l-59 80l-61 -80h-102l104 134h121z"/>
            <glyph glyph-name="udieresis" unicode="&#xfc;" horiz-adv-x="566"
                   d="M507 483v-483h-126v68c-39 -55 -90 -81 -160 -81c-57 0 -105 20 -135 58c-23 29 -32 67 -32 132v306h132v-267c0 -56 2 -72 13 -89c14 -21 39 -32 71 -32c41 0 73 19 91 54c10 19 14 44 14 94v240h132zM382 695c40 0 74 -34 74 -75s-34 -75 -75 -75s-75 34 -75 75
c0 42 34 75 76 75zM185 695c40 0 74 -34 74 -75s-34 -75 -75 -75s-75 34 -75 75c0 42 34 75 76 75z"/>
            <glyph glyph-name="ugrave" unicode="&#xf9;" horiz-adv-x="566"
                   d="M507 483v-483h-126v68c-39 -55 -90 -81 -160 -81c-57 0 -105 20 -135 58c-23 29 -32 67 -32 132v306h132v-267c0 -56 2 -72 13 -89c14 -21 39 -32 71 -32c41 0 73 19 91 54c10 19 14 44 14 94v240h132zM131 691h139l85 -134h-89z"/>
            <glyph glyph-name="yacute" unicode="&#xfd;" horiz-adv-x="489"
                   d="M493 483l-177 -481c-37 -98 -53 -126 -89 -151c-28 -18 -68 -27 -118 -24l-13 1l-54 1v109h15h39c53 0 75 17 75 61c0 11 -2 23 -4 30l-172 454h143l80 -237c10 -30 16 -53 30 -112c16 62 22 86 33 118l75 231h137zM396 691l-135 -134h-89l84 134h140z"/>
            <glyph glyph-name="ydieresis" unicode="&#xff;" horiz-adv-x="489"
                   d="M493 483l-177 -481c-37 -98 -53 -126 -89 -151c-28 -18 -68 -27 -118 -24l-13 1l-54 1v109h15h39c53 0 75 17 75 61c0 11 -2 23 -4 30l-172 454h143l80 -237c10 -30 16 -53 30 -112c16 62 22 86 33 118l75 231h137zM348 695c40 0 74 -34 74 -75s-34 -75 -75 -75
s-75 34 -75 75c0 42 34 75 76 75zM152 695c40 0 74 -34 74 -75s-34 -75 -75 -75s-75 34 -75 75c0 42 34 75 76 75z"/>
            <glyph glyph-name="zcaron" unicode="&#x17e;" horiz-adv-x="478"
                   d="M451 483v-97l-198 -224c-15 -17 -28 -30 -62 -62c33 2 49 3 67 3h210v-103h-445v100l193 217c15 16 29 29 68 65c-22 -2 -31 -2 -49 -2h-193v103h409zM417 691l-103 -134h-122l-105 134h106l60 -82l61 82h103z"/>
            <glyph glyph-name="figuredash" unicode="&#x2012;"
                   d="M506 308v-119h-453v119h453z"/>
            <glyph glyph-name="oneeighth" unicode="&#x215b;" horiz-adv-x="913"
                   d="M264 661v-394h-92v253h-27h-30h-30h-13v63c74 1 110 24 119 78h73zM678 657l-364 -657h-78l366 657h76zM635 210c-35 15 -53 42 -53 79c0 63 61 108 145 108c83 0 144 -45 144 -106c0 -38 -17 -64 -54 -81c48 -17 71 -47 71 -92c0 -74 -65 -124 -162 -124
s-161 48 -161 121c0 46 23 77 70 95zM727 332c-37 0 -61 -18 -61 -47c0 -30 24 -49 61 -49s60 19 60 49c0 29 -23 47 -60 47zM726 177c-41 0 -69 -23 -69 -58c0 -34 28 -58 70 -58c41 0 69 23 69 58c0 34 -29 58 -70 58z"/>
            <glyph glyph-name="threeeighths" unicode="&#x215c;" horiz-adv-x="913"
                   d="M124 528h-87c2 85 58 136 149 136c85 0 143 -44 143 -109c0 -36 -17 -61 -50 -77c42 -15 65 -46 65 -90c0 -75 -66 -128 -159 -128c-98 0 -159 54 -159 140v7h89c-1 -47 23 -73 68 -73c40 0 66 22 66 55c0 36 -25 54 -73 54c-9 0 -14 0 -24 -2v63h18c47 0 70 15 70 46
c0 26 -22 44 -55 44c-39 0 -59 -22 -61 -66zM678 657l-365 -657h-78l366 657h77zM635 210c-35 15 -53 42 -53 79c0 63 61 108 144 108c84 0 144 -45 144 -106c0 -38 -17 -64 -53 -81c47 -17 70 -47 70 -92c0 -74 -65 -124 -162 -124s-161 48 -161 121c0 46 24 77 71 95z
M726 332c-36 0 -60 -18 -60 -47c0 -30 24 -49 60 -49c37 0 60 19 60 49c0 29 -23 47 -60 47zM725 177c-41 0 -69 -23 -69 -58c0 -34 28 -58 70 -58c41 0 69 23 69 58c0 34 -29 58 -70 58z"/>
            <glyph glyph-name="fiveeighths" unicode="&#x215d;" horiz-adv-x="913"
                   d="M319 657v-75h-173l-8 -44c-3 -13 -4 -18 -6 -28c24 17 42 23 73 23c82 0 137 -52 137 -130c0 -84 -67 -143 -162 -143c-94 0 -152 48 -156 127h90c4 -35 29 -57 66 -57c41 0 69 29 69 70c0 42 -27 69 -69 69c-28 0 -46 -9 -62 -32l-81 1l41 219h241zM677 657l-364 -657
h-78l366 657h76zM634 210c-35 15 -53 42 -53 79c0 63 61 108 145 108c83 0 144 -45 144 -106c0 -38 -17 -64 -54 -81c48 -17 71 -47 71 -92c0 -74 -65 -124 -162 -124s-161 48 -161 121c0 46 23 77 70 95zM726 332c-37 0 -61 -18 -61 -47c0 -30 24 -49 61 -49s60 19 60 49
c0 29 -23 47 -60 47zM725 177c-41 0 -69 -23 -69 -58c0 -34 28 -58 70 -58c41 0 69 23 69 58c0 34 -29 58 -70 58z"/>
            <glyph glyph-name="seveneighths" unicode="&#x215e;" horiz-adv-x="913"
                   d="M334 657v-70l-22 -22c-75 -83 -109 -172 -117 -298h-95c1 95 61 234 137 313c-35 -1 -41 -1 -50 -1h-146v78h293zM677 657l-364 -657h-78l366 657h76zM634 210c-35 15 -53 42 -53 79c0 63 61 108 145 108c83 0 144 -45 144 -106c0 -38 -17 -64 -54 -81
c48 -17 71 -47 71 -92c0 -74 -65 -124 -162 -124s-161 48 -161 121c0 46 23 77 70 95zM726 332c-37 0 -61 -18 -61 -47c0 -30 24 -49 61 -49s60 19 60 49c0 29 -23 47 -60 47zM725 177c-41 0 -69 -23 -69 -58c0 -34 28 -58 70 -58c41 0 69 23 69 58c0 34 -29 58 -70 58z"/>
            <glyph glyph-name="onethird" unicode="&#x2153;" horiz-adv-x="913"
                   d="M264 661v-394h-92v253h-27h-30h-30h-13v63c74 1 110 24 119 78h73zM678 657l-364 -657h-78l366 657h76zM662 261h-87c2 84 58 135 149 135c85 0 143 -44 143 -109c0 -34 -16 -59 -50 -75c42 -15 65 -46 65 -90c0 -75 -66 -128 -159 -128c-98 0 -159 54 -159 140v7h89
c-1 -47 23 -73 68 -73c40 0 66 22 66 55c0 35 -25 54 -73 54c-9 0 -14 0 -24 -2v63c9 -1 14 -1 18 -1c47 0 70 15 70 45c0 27 -22 44 -55 44c-39 0 -59 -22 -61 -65z"/>
            <glyph glyph-name="twothirds" unicode="&#x2154;" horiz-adv-x="913"
                   d="M341 342v-75h-314c5 88 25 113 165 199c41 25 54 42 54 70c0 32 -22 53 -56 53c-44 0 -64 -26 -65 -85h-88c-1 5 -1 10 -1 11c0 91 61 149 157 149c86 0 146 -50 146 -122c0 -34 -12 -62 -36 -86c-15 -15 -18 -17 -74 -52c-50 -31 -71 -47 -85 -64c24 1 40 1 65 1z
M677 657l-364 -657h-78l366 657h76zM661 261h-87c2 84 58 135 149 135c85 0 143 -44 143 -109c0 -34 -16 -59 -50 -75c42 -15 65 -46 65 -90c0 -75 -66 -128 -159 -128c-98 0 -159 54 -159 140v7h89c-1 -47 23 -73 68 -73c40 0 66 22 66 55c0 35 -25 54 -73 54
c-9 0 -14 0 -24 -2v63c9 -1 14 -1 18 -1c47 0 70 15 70 45c0 27 -22 44 -55 44c-39 0 -59 -22 -61 -65z"/>
            <glyph glyph-name="zerosuperior" unicode="&#x2070;" horiz-adv-x="375"
                   d="M189 664c97 0 155 -75 155 -202c0 -125 -59 -201 -156 -201c-99 0 -158 75 -158 201c0 127 59 202 159 202zM188 593c-48 0 -68 -39 -68 -134c0 -87 21 -127 68 -127c45 0 66 42 66 130c0 90 -21 131 -66 131z"/>
            <glyph glyph-name="foursuperior" unicode="&#x2074;" horiz-adv-x="375"
                   d="M350 427v-72h-54v-88h-88v88h-180v77l185 229h83v-234h54zM211 424v142l-109 -143z"/>
            <glyph glyph-name="fivesuperior" unicode="&#x2075;" horiz-adv-x="375"
                   d="M319 657v-75h-173l-8 -44c-3 -13 -4 -18 -6 -28c24 17 42 23 73 23c82 0 137 -52 137 -130c0 -84 -67 -143 -162 -143c-94 0 -152 48 -156 127h90c4 -35 29 -57 66 -57c41 0 69 29 69 70c0 42 -27 69 -69 69c-28 0 -46 -9 -62 -32l-81 1l41 219h241z"/>
            <glyph glyph-name="sixsuperior" unicode="&#x2076;" horiz-adv-x="375"
                   d="M340 553h-87c-8 31 -25 45 -54 45c-43 0 -69 -35 -76 -103c25 26 52 37 90 37c78 0 134 -55 134 -131c0 -82 -64 -141 -151 -141c-103 0 -163 72 -163 195c0 130 64 209 167 209c79 0 129 -40 140 -111zM194 467c-37 0 -64 -28 -64 -68c0 -39 27 -68 64 -68s64 29 64 68
s-27 68 -64 68z"/>
            <glyph glyph-name="sevensuperior" unicode="&#x2077;" horiz-adv-x="375"
                   d="M334 657v-70l-22 -22c-75 -83 -109 -172 -117 -298h-95c1 95 61 234 137 313c-35 -1 -41 -1 -50 -1h-146v78h293z"/>
            <glyph glyph-name="eightsuperior" unicode="&#x2078;" horiz-adv-x="375"
                   d="M97 476c-35 16 -53 43 -53 80c0 62 61 108 145 108c83 0 144 -45 144 -106c0 -38 -17 -64 -54 -82c48 -17 71 -47 71 -92c0 -74 -65 -124 -162 -124s-161 48 -161 121c0 46 24 78 70 95zM189 598c-37 0 -61 -18 -61 -47c0 -30 24 -49 61 -49s60 19 60 49
c0 29 -23 47 -60 47zM188 443c-41 0 -69 -23 -69 -58c0 -34 28 -58 70 -58c41 0 69 23 69 58c0 34 -29 58 -70 58z"/>
            <glyph glyph-name="ninesuperior" unicode="&#x2079;" horiz-adv-x="375"
                   d="M36 371h87c6 -29 24 -44 55 -44c41 0 65 33 73 102c-23 -26 -50 -38 -86 -38c-79 0 -136 55 -136 132c0 80 66 141 154 141c100 0 159 -72 159 -193c0 -129 -64 -211 -164 -211c-81 0 -134 42 -142 111zM183 593c-38 0 -65 -28 -65 -68c0 -39 27 -68 64 -68
c36 0 63 28 63 67s-27 69 -62 69z"/>
            <glyph glyph-name="zeroinferior" unicode="&#x2080;" horiz-adv-x="375"
                   d="M189 397c97 0 155 -75 155 -202c0 -125 -59 -201 -156 -201c-99 0 -158 75 -158 201c0 127 59 202 159 202zM188 326c-48 0 -68 -39 -68 -134c0 -87 21 -127 68 -127c45 0 66 42 66 130c0 90 -21 131 -66 131z"/>
            <glyph glyph-name="oneinferior" unicode="&#x2081;" horiz-adv-x="375"
                   d="M264 394v-394h-92v253h-27h-30h-30h-13v63c74 1 110 24 119 78h73z"/>
            <glyph glyph-name="twoinferior" unicode="&#x2082;" horiz-adv-x="375"
                   d="M341 75v-75h-314c5 88 25 113 165 198c41 25 54 43 54 71c0 31 -22 52 -56 52c-44 0 -64 -26 -65 -84h-88c-1 5 -1 10 -1 11c0 91 61 148 157 148c86 0 146 -50 146 -122c0 -33 -12 -61 -36 -85c-15 -15 -18 -17 -74 -52c-49 -30 -72 -47 -85 -64c24 1 40 1 65 1z"/>
            <glyph glyph-name="threeinferior" unicode="&#x2083;" horiz-adv-x="375"
                   d="M124 261h-87c2 84 58 135 149 135c85 0 143 -44 143 -109c0 -34 -16 -59 -50 -75c42 -15 65 -46 65 -90c0 -75 -66 -128 -159 -128c-98 0 -159 54 -159 140v7h89c-1 -47 23 -73 68 -73c40 0 66 22 66 55c0 35 -25 54 -73 54c-9 0 -14 0 -24 -2v63c9 -1 14 -1 18 -1
c47 0 70 15 70 45c0 27 -22 44 -55 44c-39 0 -59 -22 -61 -65z"/>
            <glyph glyph-name="fourinferior" unicode="&#x2084;" horiz-adv-x="375"
                   d="M350 161v-72h-54v-89h-88v89h-180v77l185 228h83v-233h54zM211 158v142l-109 -143z"/>
            <glyph glyph-name="fiveinferior" unicode="&#x2085;" horiz-adv-x="375"
                   d="M319 391v-75h-173l-8 -44c-3 -13 -4 -18 -6 -28c24 17 42 22 73 22c82 0 137 -52 137 -129c0 -84 -68 -143 -162 -143s-152 48 -156 127h90c4 -34 29 -56 66 -56c41 0 69 29 69 70s-27 68 -69 68c-28 0 -46 -9 -62 -32l-81 1l41 219h241z"/>
            <glyph glyph-name="sixinferior" unicode="&#x2086;" horiz-adv-x="375"
                   d="M340 287h-87c-8 29 -25 43 -54 43c-43 0 -69 -34 -76 -100c25 25 52 36 90 36c78 0 134 -55 134 -131c0 -82 -64 -141 -151 -141c-103 0 -163 72 -163 195c0 129 63 208 167 208c79 0 129 -39 140 -110zM194 201c-37 0 -64 -28 -64 -68c0 -39 27 -68 64 -68s64 29 64 68
s-27 68 -64 68z"/>
            <glyph glyph-name="seveninferior" unicode="&#x2087;" horiz-adv-x="375"
                   d="M334 391v-70l-22 -22c-75 -84 -109 -172 -117 -299h-95c1 95 61 235 137 314c-35 -1 -41 -1 -50 -1h-146v78h293z"/>
            <glyph glyph-name="eightinferior" unicode="&#x2088;" horiz-adv-x="375"
                   d="M97 210c-35 15 -53 42 -53 79c0 63 61 108 145 108c83 0 144 -45 144 -106c0 -38 -17 -64 -54 -81c48 -17 71 -47 71 -92c0 -74 -65 -124 -162 -124s-161 48 -161 121c0 46 24 77 70 95zM189 332c-37 0 -61 -18 -61 -47c0 -30 24 -49 61 -49s60 19 60 49
c0 29 -23 47 -60 47zM188 177c-41 0 -69 -23 -69 -58c0 -34 28 -58 70 -58c41 0 69 23 69 58c0 34 -29 58 -70 58z"/>
            <glyph glyph-name="nineinferior" unicode="&#x2089;" horiz-adv-x="375"
                   d="M36 105h87c6 -29 24 -44 55 -44c41 0 65 33 73 102c-23 -26 -50 -38 -85 -38c-80 0 -137 55 -137 131c0 81 66 141 154 141c100 0 159 -72 159 -192c0 -129 -64 -211 -164 -211c-81 0 -134 42 -142 111zM183 326c-38 0 -65 -28 -65 -68c0 -39 27 -67 64 -67
c36 0 63 28 63 67c0 38 -27 68 -62 68z"/>
            <glyph glyph-name="IJ" unicode="&#x132;" horiz-adv-x="779"
                   d="M210 667v-667h-145v667h145zM725 667v-449c0 -78 -10 -119 -40 -158c-39 -51 -98 -76 -178 -76c-93 0 -161 33 -196 96c-19 35 -27 76 -27 142v27h135v-19c0 -50 3 -73 11 -90c12 -24 38 -38 72 -38c58 0 78 28 78 111v454h145z"/>
            <glyph glyph-name="uni01CD" unicode="&#x1cd;" horiz-adv-x="657"
                   d="M404 668l254 -668h-153l-53 149h-248l-54 -149h-150l254 668h150zM416 256l-43 120c-25 71 -33 100 -44 145c-12 -42 -19 -64 -47 -145l-43 -120h177zM500 850l-109 -125h-125l-108 125h113l56 -65l54 65h119z"/>
            <glyph glyph-name="Abreve" unicode="&#x102;" horiz-adv-x="657"
                   d="M404 668l254 -668h-153l-53 149h-248l-54 -149h-150l254 668h150zM416 256l-43 120c-25 71 -33 100 -44 145c-12 -42 -19 -64 -47 -145l-43 -120h177zM167 852h68c11 -38 41 -56 93 -56c53 0 84 18 95 56h68c-4 -86 -61 -132 -162 -132s-158 46 -162 132z"/>
            <glyph glyph-name="Aogonek" unicode="&#x104;" horiz-adv-x="657"
                   d="M404 668l254 -668c-39 -29 -54 -52 -54 -81c0 -27 24 -45 60 -45c10 0 18 1 34 5v-55c-26 -8 -40 -10 -60 -10c-68 0 -114 35 -114 87c0 35 19 63 66 99h-85l-53 149h-248l-54 -149h-150l254 668h150zM416 256l-43 120c-25 71 -33 100 -44 145c-12 -42 -19 -64 -47 -145
l-43 -120h177z"/>
            <glyph glyph-name="Cacute" unicode="&#x106;" horiz-adv-x="682"
                   d="M510 257h146c-13 -167 -129 -273 -300 -273c-193 0 -321 139 -321 350c0 206 134 349 327 349c156 0 278 -101 289 -240h-144c-15 75 -69 118 -148 118c-108 0 -177 -89 -177 -229c0 -139 68 -227 176 -227c87 0 140 52 152 152zM526 844l-139 -121h-98l84 121h153z"/>
            <glyph glyph-name="Ccaron" unicode="&#x10c;" horiz-adv-x="682"
                   d="M510 257h146c-13 -167 -129 -273 -300 -273c-193 0 -321 139 -321 350c0 206 134 349 327 349c156 0 278 -101 289 -240h-144c-15 75 -69 118 -148 118c-108 0 -177 -89 -177 -229c0 -139 68 -227 176 -227c87 0 140 52 152 152zM535 850l-108 -125h-125l-109 125h114
l55 -65l55 65h118z"/>
            <glyph glyph-name="Cdotaccent" unicode="&#x10a;" horiz-adv-x="682"
                   d="M510 257h146c-13 -167 -129 -273 -300 -273c-193 0 -321 139 -321 350c0 206 134 349 327 349c156 0 278 -101 289 -240h-144c-15 75 -69 118 -148 118c-108 0 -177 -89 -177 -229c0 -139 68 -227 176 -227c87 0 140 52 152 152zM366 859c40 0 74 -34 74 -75
s-34 -75 -75 -75s-75 34 -75 75c0 42 34 75 76 75z"/>
            <glyph glyph-name="Dcaron" unicode="&#x10e;" horiz-adv-x="693"
                   d="M64 667h269c100 0 168 -22 223 -72c65 -59 100 -148 100 -253c0 -115 -31 -203 -94 -265c-56 -56 -119 -77 -226 -77h-272v667zM209 544v-421h112c69 0 105 12 135 45c35 38 53 96 53 169c0 136 -66 207 -193 207h-107zM484 850l-109 -125h-125l-108 125h113l56 -65
l54 65h119z"/>
            <glyph glyph-name="Dcroat" unicode="&#x110;" horiz-adv-x="693"
                   d="M64 667h269c101 0 169 -22 224 -72c65 -59 100 -148 100 -253c0 -115 -31 -203 -94 -265c-56 -56 -119 -77 -227 -77h-272v301h-60v93h60v273zM209 544v-150h147v-93h-147v-178h112c69 0 106 12 136 45c35 38 53 95 53 168c0 136 -67 208 -194 208h-107z"/>
            <glyph glyph-name="Ecaron" unicode="&#x11a;" horiz-adv-x="611"
                   d="M564 667v-123h-355v-143h326v-115h-326v-163h362v-123h-507v667h500zM493 850l-109 -125h-125l-108 125h113l56 -65l54 65h119z"/>
            <glyph glyph-name="Edotaccent" unicode="&#x116;" horiz-adv-x="611"
                   d="M564 667v-123h-355v-143h326v-115h-326v-163h362v-123h-507v667h500zM323 859c40 0 74 -34 74 -75s-34 -75 -75 -75s-75 34 -75 75c0 42 34 75 76 75z"/>
            <glyph glyph-name="Eogonek" unicode="&#x118;" horiz-adv-x="611"
                   d="M564 667v-123h-355v-143h326v-115h-326v-163h362v-123c-38 -29 -54 -52 -54 -81c0 -27 24 -45 61 -45c9 0 17 1 33 5v-55c-26 -8 -40 -10 -60 -10c-68 0 -114 35 -114 87c0 35 19 63 66 99h-439v667h500z"/>
            <glyph glyph-name="Gcaron" unicode="&#x1e6;" horiz-adv-x="712"
                   d="M656 359v-359h-93l-15 76c-51 -63 -113 -92 -199 -92c-186 0 -314 141 -314 346c0 207 135 353 327 353c153 0 270 -97 285 -236h-141c-14 72 -68 114 -145 114c-112 0 -179 -86 -179 -230c0 -145 67 -229 183 -229c92 0 156 60 159 150h-148v107h280zM537 850l-109 -125
h-125l-108 125h113l56 -65l54 65h119z"/>
            <glyph glyph-name="Gbreve" unicode="&#x11e;" horiz-adv-x="712"
                   d="M656 359v-359h-93l-15 76c-51 -63 -113 -92 -199 -92c-186 0 -314 141 -314 346c0 207 135 353 327 353c153 0 270 -97 285 -236h-141c-14 72 -68 114 -145 114c-112 0 -179 -86 -179 -230c0 -145 67 -229 183 -229c92 0 156 60 159 150h-148v107h280zM203 852h69
c11 -38 41 -56 93 -56c53 0 83 18 95 56h68c-4 -86 -61 -132 -162 -132c-102 0 -159 46 -163 132z"/>
            <glyph glyph-name="Gdotaccent" unicode="&#x120;" horiz-adv-x="712"
                   d="M656 359v-359h-93l-15 76c-51 -63 -113 -92 -199 -92c-186 0 -314 141 -314 346c0 207 135 353 327 353c153 0 270 -97 285 -236h-141c-14 72 -68 114 -145 114c-112 0 -179 -86 -179 -230c0 -145 67 -229 183 -229c92 0 156 60 159 150h-148v107h280zM364 859
c40 0 74 -34 74 -75s-34 -75 -75 -75s-75 34 -75 75c0 42 34 75 76 75z"/>
            <glyph glyph-name="Idotaccent" unicode="&#x130;" horiz-adv-x="275"
                   d="M209 667v-667h-145v667h145zM139 859c40 0 74 -34 74 -75s-34 -75 -75 -75s-75 34 -75 75c0 42 34 75 76 75z"/>
            <glyph glyph-name="Lacute" unicode="&#x139;" horiz-adv-x="561"
                   d="M536 123v-123h-471v667h145v-544h326zM296 844l-139 -121h-98l84 121h153z"/>
            <glyph glyph-name="Lcaron" unicode="&#x13d;" horiz-adv-x="561"
                   d="M536 123v-123h-471v667h145v-544h326zM327 454v51c33 3 58 27 60 55c-5 -1 -9 -1 -10 -1h-3c-32 0 -60 28 -60 59c0 34 28 62 61 62c41 0 70 -35 70 -84c0 -39 -12 -74 -35 -99c-21 -25 -40 -35 -83 -43z"/>
            <glyph glyph-name="Nacute" unicode="&#x143;" horiz-adv-x="693"
                   d="M628 667v-667h-146l-199 322c-64 106 -64 107 -84 149c4 -40 5 -84 6 -187v-284h-140v667h148l194 -315c43 -71 72 -121 87 -154c-3 60 -5 124 -6 191v278h140zM505 844l-139 -121h-98l84 121h153z"/>
            <glyph glyph-name="Ncaron" unicode="&#x147;" horiz-adv-x="693"
                   d="M628 667v-667h-146l-199 322c-64 106 -64 107 -84 149c4 -40 5 -84 6 -187v-284h-140v667h148l194 -315c43 -71 72 -121 87 -154c-3 60 -5 124 -6 191v278h140zM518 850l-109 -125h-125l-108 125h113l56 -65l54 65h119z"/>
            <glyph glyph-name="Ohungarumlaut" unicode="&#x150;" horiz-adv-x="727"
                   d="M369 683c191 0 323 -143 323 -350c0 -208 -132 -349 -327 -349c-198 0 -330 140 -330 349c0 212 131 350 334 350zM367 562c-114 0 -185 -87 -185 -228s70 -229 184 -229c110 0 179 89 179 231c0 137 -70 226 -178 226zM589 844l-101 -121h-84l51 121h134zM422 844
l-101 -121h-83l51 121h133z"/>
            <glyph glyph-name="Racute" unicode="&#x154;" horiz-adv-x="689"
                   d="M64 667h322c71 0 110 -8 147 -30c56 -33 87 -90 87 -159c0 -77 -39 -138 -106 -163c74 -23 95 -67 105 -221c4 -47 10 -71 20 -86l6 -8h-152c-9 17 -13 37 -17 90c-7 140 -32 172 -136 172h-131v-262h-145v667zM209 552v-183h139c48 0 75 5 94 19c23 16 35 41 35 73
c0 63 -38 91 -123 91h-145zM483 844l-139 -121h-98l84 121h153z"/>
            <glyph glyph-name="Rcaron" unicode="&#x158;" horiz-adv-x="689"
                   d="M64 667h322c71 0 110 -8 147 -30c56 -33 87 -90 87 -159c0 -77 -39 -138 -106 -163c74 -23 95 -67 105 -221c4 -47 10 -71 20 -86l6 -8h-152c-9 17 -13 37 -17 90c-7 140 -32 172 -136 172h-131v-262h-145v667zM209 552v-183h139c48 0 75 5 94 19c23 16 35 41 35 73
c0 63 -38 91 -123 91h-145zM496 850l-109 -125h-125l-108 125h113l56 -65l54 65h119z"/>
            <glyph glyph-name="Sacute" unicode="&#x15a;" horiz-adv-x="613"
                   d="M466 844l-140 -121h-97l84 121h153zM556 469h-139c-5 66 -49 101 -126 101c-69 0 -109 -28 -109 -77c0 -21 10 -38 27 -48c21 -11 50 -20 135 -41c84 -20 124 -35 157 -57c53 -34 81 -85 81 -147c0 -133 -105 -216 -275 -216c-181 0 -285 86 -289 239h145
c2 -41 10 -63 29 -83c27 -29 66 -43 121 -43c75 0 122 34 122 89c0 29 -15 48 -51 62c-28 11 -29 11 -131 39c-85 24 -131 44 -160 69c-33 30 -51 74 -51 126c0 122 101 201 257 201c98 0 175 -31 218 -89c25 -34 37 -72 39 -125z"/>
            <glyph glyph-name="Scedilla" unicode="&#x15e;" horiz-adv-x="613"
                   d="M298 -16l-27 -41c16 3 24 4 36 4c49 0 82 -28 82 -68c0 -50 -48 -85 -116 -85c-35 0 -65 6 -105 22l18 39c32 -11 53 -16 75 -16c28 0 46 14 46 35c0 20 -18 35 -43 35c-10 0 -19 -2 -36 -7l-19 18l45 67c-149 16 -235 102 -236 236h145c2 -41 10 -63 29 -83
c27 -29 66 -43 121 -43c75 0 122 34 122 89c0 29 -15 48 -51 62c-28 11 -29 11 -131 39c-85 24 -131 44 -160 69c-33 30 -51 74 -51 126c0 122 101 201 257 201c98 0 175 -31 218 -89c25 -34 37 -72 39 -125h-139c-5 66 -49 101 -126 101c-69 0 -109 -28 -109 -77
c0 -21 10 -38 27 -48c21 -11 51 -20 135 -41c82 -20 125 -35 157 -57c53 -34 81 -85 81 -147c0 -133 -105 -216 -274 -216h-10z"/>
            <glyph glyph-name="Tcaron" unicode="&#x164;" horiz-adv-x="581"
                   d="M565 667v-123h-203v-544h-145v544h-201v123h549zM462 850l-109 -125h-125l-108 125h113l56 -65l54 65h119z"/>
            <glyph glyph-name="Uring" unicode="&#x16e;" horiz-adv-x="680"
                   d="M624 667v-394c0 -100 -13 -151 -52 -200c-48 -61 -120 -89 -232 -89c-119 0 -195 32 -243 101c-32 45 -43 95 -43 190v392h145v-402c0 -56 6 -85 22 -109c23 -34 64 -51 122 -51c99 0 136 44 136 160v402h145zM341 923c59 0 109 -51 109 -111c0 -61 -50 -111 -110 -111
c-62 0 -111 50 -111 112c0 61 50 110 112 110zM340 865c-29 0 -53 -23 -53 -53c0 -29 23 -53 53 -53c28 0 52 24 52 53s-24 53 -52 53z"/>
            <glyph glyph-name="Uhungarumlaut" unicode="&#x170;" horiz-adv-x="680"
                   d="M624 667v-394c0 -100 -13 -151 -52 -200c-48 -61 -120 -89 -232 -89c-119 0 -195 32 -243 101c-32 45 -43 95 -43 190v392h145v-402c0 -56 6 -85 22 -109c23 -34 64 -51 122 -51c99 0 136 44 136 160v402h145zM562 844l-101 -121h-84l51 121h134zM395 844l-101 -121h-83
l51 121h133z"/>
            <glyph glyph-name="Zacute" unicode="&#x179;" horiz-adv-x="609"
                   d="M574 667v-111l-298 -357c-12 -15 -13 -15 -74 -80c68 3 98 4 134 4h250v-123h-564v116l307 367c13 15 25 28 61 64c-56 -2 -82 -3 -121 -3h-222v123h527zM476 844l-139 -121h-98l84 121h153z"/>
            <glyph glyph-name="Zdotaccent" unicode="&#x17b;" horiz-adv-x="609"
                   d="M574 667v-111l-298 -357c-12 -15 -13 -15 -74 -80c68 3 98 4 134 4h250v-123h-564v116l307 367c13 15 25 28 61 64c-56 -2 -82 -3 -121 -3h-222v123h527zM319 859c40 0 74 -34 74 -75s-34 -75 -75 -75s-75 34 -75 75c0 42 34 75 76 75z"/>
            <glyph glyph-name="Amacron" unicode="&#x100;" horiz-adv-x="657"
                   d="M404 668l254 -668h-153l-53 149h-248l-54 -149h-150l254 668h150zM416 256l-43 120c-25 71 -33 100 -44 145c-12 -42 -19 -64 -47 -145l-43 -120h177zM491 825v-75h-325v75h325z"/>
            <glyph glyph-name="Tcommaaccent" unicode="&#x162;" horiz-adv-x="581"
                   d="M565 667v-123h-203v-544h-145v544h-201v123h549zM239 -273v51c33 3 58 27 60 55c-5 -1 -9 -1 -10 -1h-3c-32 0 -60 28 -60 59c0 34 28 62 61 62c41 0 70 -35 70 -84c0 -39 -12 -74 -35 -99c-21 -25 -40 -35 -83 -43z"/>
            <glyph glyph-name="uni021A" unicode="&#x21a;" horiz-adv-x="581"
                   d="M565 667v-123h-203v-544h-145v544h-201v123h549zM239 -273v51c33 3 58 27 60 55c-5 -1 -9 -1 -10 -1h-3c-32 0 -60 28 -60 59c0 34 28 62 61 62c41 0 70 -35 70 -84c0 -39 -12 -74 -35 -99c-21 -25 -40 -35 -83 -43z"/>
            <glyph glyph-name="Ccircumflex" unicode="&#x108;" horiz-adv-x="682"
                   d="M510 257h146c-13 -167 -129 -273 -300 -273c-193 0 -321 139 -321 350c0 206 134 349 327 349c156 0 278 -101 289 -240h-144c-15 75 -69 118 -148 118c-108 0 -177 -89 -177 -229c0 -139 68 -227 176 -227c87 0 140 52 152 152zM535 725h-118l-55 65l-55 -65h-114
l109 125h125z"/>
            <glyph glyph-name="Wcircumflex" unicode="&#x174;" horiz-adv-x="882"
                   d="M881 667l-181 -667h-145l-73 286c-15 66 -29 140 -42 222c-8 -60 -27 -160 -42 -219l-70 -289h-148l-178 667h146l66 -280c21 -91 38 -187 42 -244c5 53 22 146 45 243l72 281h138l70 -275c33 -156 37 -179 45 -249c6 60 21 146 45 255l65 269h145zM612 725h-118l-55 65
l-55 -65h-114l109 125h125z"/>
            <glyph glyph-name="Wdieresis" unicode="&#x1e84;" horiz-adv-x="882"
                   d="M881 667l-181 -667h-145l-73 286c-15 66 -29 140 -42 222c-8 -60 -27 -160 -42 -219l-70 -289h-148l-178 667h146l66 -280c21 -91 38 -187 42 -244c5 53 22 146 45 243l72 281h138l70 -275c33 -156 37 -179 45 -249c6 60 21 146 45 255l65 269h145zM547 859
c40 0 74 -34 74 -75s-34 -75 -75 -75s-75 34 -75 75c0 42 34 75 76 75zM340 859c40 0 74 -34 74 -75s-34 -75 -75 -75s-75 34 -75 75c0 42 34 75 76 75z"/>
            <glyph glyph-name="Ycircumflex" unicode="&#x176;" horiz-adv-x="606"
                   d="M623 667l-248 -410v-257h-145v259l-249 408h166l104 -178c18 -32 44 -85 53 -109c15 35 45 97 56 116l101 171h162zM477 725h-118l-55 65l-55 -65h-114l109 125h125z"/>
            <glyph glyph-name="Hbar" unicode="&#x126;" horiz-adv-x="693"
                   d="M628 593h60v-93h-60v-500h-145v290h-273v-290h-145v500h-60v93h60v74h145v-74h273v74h145v-74zM210 500v-87h273v87h-273z"/>
            <glyph glyph-name="Emacron" unicode="&#x112;" horiz-adv-x="611"
                   d="M564 667v-123h-355v-143h326v-115h-326v-163h362v-123h-507v667h500zM480 825v-75h-325v75h325z"/>
            <glyph glyph-name="Gcircumflex" unicode="&#x11c;" horiz-adv-x="712"
                   d="M656 359v-359h-93l-15 76c-51 -63 -113 -92 -199 -92c-186 0 -314 141 -314 346c0 207 135 353 327 353c153 0 270 -97 285 -236h-141c-14 72 -68 114 -145 114c-112 0 -179 -86 -179 -230c0 -145 67 -229 183 -229c92 0 156 60 159 150h-148v107h280zM537 725h-119
l-54 65l-56 -65h-113l108 125h125z"/>
            <glyph glyph-name="Hcircumflex" unicode="&#x124;" horiz-adv-x="693"
                   d="M628 667v-667h-145v290h-273v-290h-145v667h145v-254h273v254h145zM518 725h-119l-54 65l-56 -65h-113l109 125h125z"/>
            <glyph glyph-name="Imacron" unicode="&#x12a;" horiz-adv-x="275"
                   d="M209 667v-667h-145v667h145zM273 825v-75h-272v75h272z"/>
            <glyph glyph-name="Iogonek" unicode="&#x12e;" horiz-adv-x="275"
                   d="M65 667h145v-667c-29 -15 -55 -54 -55 -82c0 -25 21 -43 49 -43c8 0 15 1 27 4v-55c-28 -8 -40 -10 -56 -10c-52 0 -98 39 -98 85c0 43 23 76 69 101h-81v667z"/>
            <glyph glyph-name="Jcircumflex" unicode="&#x134;" horiz-adv-x="504"
                   d="M450 667v-449c0 -78 -11 -119 -40 -158c-38 -51 -98 -76 -178 -76c-93 0 -161 34 -196 96c-19 35 -27 76 -27 140v20v9h135v-17c0 -52 3 -74 11 -92c12 -24 37 -38 72 -38c58 0 78 28 78 111v454h145zM545 726h-118l-55 64l-55 -64h-114l109 124h125z"/>
            <glyph glyph-name="Kcommaaccent" unicode="&#x136;" horiz-adv-x="667"
                   d="M655 667l-262 -264l286 -403h-184l-202 299l-84 -84v-215h-145v667h145v-199c0 -20 0 -22 -1 -84c38 46 43 51 56 65l206 218h185zM291 -273v51c33 3 58 27 60 55c-5 -1 -9 -1 -10 -1h-3c-32 0 -60 28 -60 59c0 34 28 62 61 62c41 0 70 -35 70 -84c0 -39 -12 -74 -35 -99
c-21 -25 -40 -35 -83 -43z"/>
            <glyph glyph-name="Lcommaaccent" unicode="&#x13b;" horiz-adv-x="561"
                   d="M536 123v-123h-471v667h145v-544h326zM249 -273v51c33 3 58 27 60 55c-5 -1 -9 -1 -10 -1h-3c-32 0 -60 28 -60 59c0 34 28 62 61 62c41 0 70 -35 70 -84c0 -39 -12 -74 -35 -99c-21 -25 -40 -35 -83 -43z"/>
            <glyph glyph-name="Ncommaaccent" unicode="&#x145;" horiz-adv-x="693"
                   d="M628 667v-667h-146l-199 322c-64 106 -64 107 -84 149c4 -40 5 -84 6 -187v-284h-140v667h148l194 -315c43 -71 72 -121 87 -154c-3 60 -5 124 -6 191v278h140zM288 -273v51c33 3 58 27 60 55c-5 -1 -9 -1 -10 -1h-3c-32 0 -60 28 -60 59c0 34 28 62 61 62
c41 0 70 -35 70 -84c0 -39 -12 -74 -35 -99c-21 -25 -40 -35 -83 -43z"/>
            <glyph glyph-name="Omacron" unicode="&#x14c;" horiz-adv-x="727"
                   d="M369 683c191 0 323 -143 323 -350c0 -208 -132 -349 -327 -349c-198 0 -330 140 -330 349c0 212 131 350 334 350zM367 562c-114 0 -185 -87 -185 -228s70 -229 184 -229c110 0 179 89 179 231c0 137 -70 226 -178 226zM526 825v-75h-325v75h325z"/>
            <glyph glyph-name="Rcommaaccent" unicode="&#x156;" horiz-adv-x="689"
                   d="M64 667h322c71 0 110 -8 147 -30c56 -33 87 -90 87 -159c0 -77 -39 -138 -106 -163c74 -23 95 -67 105 -221c4 -47 10 -71 20 -86l6 -8h-152c-9 17 -13 37 -17 90c-7 140 -32 172 -136 172h-131v-262h-145v667zM209 552v-183h139c48 0 75 5 94 19c23 16 35 41 35 73
c0 63 -38 91 -123 91h-145zM286 -273v51c33 3 58 27 60 55c-5 -1 -9 -1 -10 -1h-3c-32 0 -60 28 -60 59c0 34 28 62 61 62c41 0 70 -35 70 -84c0 -39 -12 -74 -35 -99c-21 -25 -40 -35 -83 -43z"/>
            <glyph glyph-name="Scircumflex" unicode="&#x15c;" horiz-adv-x="613"
                   d="M556 469h-139c-5 66 -49 101 -126 101c-69 0 -109 -28 -109 -77c0 -21 10 -38 27 -48c21 -11 50 -20 135 -41c84 -20 124 -35 157 -57c53 -34 81 -85 81 -147c0 -133 -105 -216 -275 -216c-181 0 -286 87 -289 239h145c2 -41 10 -63 29 -83c27 -29 66 -43 121 -43
c75 0 122 34 122 89c0 29 -15 48 -51 62c-28 11 -29 11 -131 39c-85 24 -131 44 -160 69c-33 30 -51 74 -51 126c0 122 101 201 257 201c159 0 252 -77 257 -214zM478 725h-118l-55 65l-55 -65h-114l109 125h125z"/>
            <glyph glyph-name="Gcommaaccent" unicode="&#x122;" horiz-adv-x="712"
                   d="M656 359v-359h-93l-15 76c-51 -63 -113 -92 -199 -92c-186 0 -314 141 -314 346c0 207 135 353 327 353c153 0 270 -97 285 -236h-141c-14 72 -68 114 -145 114c-112 0 -179 -86 -179 -230c0 -145 67 -229 183 -229c92 0 156 60 159 150h-148v107h280zM301 -273v51
c33 3 58 27 60 55c-5 -1 -9 -1 -10 -1h-3c-32 0 -60 28 -60 59c0 34 28 62 61 62c41 0 70 -35 70 -84c0 -39 -12 -74 -35 -99c-21 -25 -40 -35 -83 -43z"/>
            <glyph glyph-name="uni01D3" unicode="&#x1d3;" horiz-adv-x="680"
                   d="M624 667v-394c0 -100 -13 -151 -52 -200c-48 -61 -120 -89 -232 -89c-119 0 -195 32 -243 101c-32 45 -43 95 -43 190v392h145v-402c0 -56 6 -85 22 -109c23 -34 64 -51 122 -51c99 0 136 44 136 160v402h145zM511 850l-109 -125h-125l-108 125h113l56 -65l54 65h119z
"/>
            <glyph glyph-name="Umacron" unicode="&#x16a;" horiz-adv-x="680"
                   d="M624 667v-394c0 -100 -13 -151 -52 -200c-48 -61 -120 -89 -232 -89c-119 0 -195 32 -243 101c-32 45 -43 95 -43 190v392h145v-402c0 -56 6 -85 22 -109c23 -34 64 -51 122 -51c99 0 136 44 136 160v402h145zM502 825v-75h-326v75h326z"/>
            <glyph glyph-name="Uogonek" unicode="&#x172;" horiz-adv-x="680"
                   d="M479 667h145v-394c1 -136 -28 -199 -126 -264c-40 -28 -56 -51 -56 -83c0 -27 24 -45 61 -45c9 0 17 1 33 5l1 -55c-27 -8 -40 -10 -61 -10c-68 0 -114 35 -114 88c0 33 16 53 64 82c-35 -6 -50 -7 -81 -7c-124 0 -200 31 -248 101c-32 45 -43 95 -43 190v392h145v-402
c0 -56 6 -85 22 -109c23 -34 64 -51 122 -51c99 0 136 44 136 160v402z"/>
            <glyph glyph-name="uni0226" unicode="&#x226;" horiz-adv-x="657"
                   d="M404 668l254 -668h-153l-53 149h-248l-54 -149h-150l254 668h150zM416 256l-43 120c-25 71 -33 100 -44 145c-12 -42 -19 -64 -47 -145l-43 -120h177zM330 859c40 0 74 -34 74 -75s-34 -75 -75 -75s-75 34 -75 75c0 42 34 75 76 75z"/>
            <glyph glyph-name="Ebreve" unicode="&#x114;" horiz-adv-x="611"
                   d="M564 667v-123h-355v-143h326v-115h-326v-163h362v-123h-507v667h500zM156 852h68c12 -38 42 -56 93 -56c54 0 84 18 95 56h68c-4 -86 -61 -132 -162 -132s-158 46 -162 132z"/>
            <glyph glyph-name="uni1E1E" unicode="&#x1e1e;" horiz-adv-x="553"
                   d="M533 667v-123h-324v-155h282v-115h-282v-274h-145v667h469zM304 859c40 0 74 -34 74 -75s-34 -75 -75 -75s-75 34 -75 75c0 42 34 75 76 75z"/>
            <glyph glyph-name="uni01F4" unicode="&#x1f4;" horiz-adv-x="712"
                   d="M656 359v-359h-93l-15 76c-51 -63 -113 -92 -199 -92c-186 0 -314 141 -314 346c0 207 135 353 327 353c153 0 270 -97 285 -236h-141c-14 72 -68 114 -145 114c-112 0 -179 -86 -179 -230c0 -145 67 -229 183 -229c92 0 156 60 159 150h-148v107h280zM521 844l-140 -121
h-97l84 121h153z"/>
            <glyph glyph-name="Ibreve" unicode="&#x12c;" horiz-adv-x="275"
                   d="M210 667v-667h-145v667h145zM-11 852h68c10 -38 36 -56 81 -56s71 18 81 56h68c-4 -86 -56 -132 -149 -132s-145 46 -149 132z"/>
            <glyph glyph-name="uni0237" unicode="&#x237;" horiz-adv-x="249"
                   d="M189 483v-483l1 -37c0 -59 -25 -103 -69 -123c-22 -10 -53 -15 -92 -15c-18 0 -29 0 -53 2v107c12 -1 17 -1 25 -1c32 0 46 6 51 24c4 13 5 22 5 83v443h132z"/>
            <glyph glyph-name="ij" unicode="&#x133;" horiz-adv-x="499"
                   d="M126 681c40 0 74 -34 74 -75s-34 -75 -75 -75s-75 34 -75 75c0 42 34 75 76 75zM190 483v-483h-132v483h132zM439 483v-483l1 -37c0 -59 -25 -103 -69 -123c-22 -10 -53 -15 -92 -15c-18 0 -29 0 -53 2v107c12 -1 17 -1 25 -1c32 0 46 6 51 24c4 13 5 22 5 83v443h132z
M375 681c40 0 74 -34 74 -75s-34 -75 -75 -75s-75 34 -75 75c0 42 34 75 76 75z"/>
            <glyph glyph-name="longs" unicode="&#x17f;" horiz-adv-x="321"
                   d="M311 667v-98c-18 2 -27 3 -41 3c-53 0 -61 -7 -61 -51v-521h-132v394h-79v89h79v25c0 63 8 92 33 118c28 29 72 44 131 44c18 0 30 -1 70 -3z"/>
            <glyph glyph-name="uni01CE" unicode="&#x1ce;" horiz-adv-x="521"
                   d="M432 691l-103 -134h-121l-106 134h107l60 -82l60 82h103zM518 88v-86c-19 -9 -34 -12 -58 -12c-59 0 -89 19 -101 63c-43 -46 -94 -66 -166 -66c-105 0 -167 54 -167 145c0 47 16 84 47 107c32 24 71 35 151 44c105 12 124 22 124 63s-27 61 -83 61
c-60 0 -85 -19 -91 -72h-133c5 54 19 82 55 112c39 33 99 49 177 49c136 0 208 -47 208 -136v-234c0 -33 5 -38 33 -38h4zM348 186v51c-13 -11 -36 -18 -81 -24c-81 -10 -108 -28 -108 -75c0 -41 27 -62 82 -62c70 0 107 38 107 110z"/>
            <glyph glyph-name="abreve" unicode="&#x103;" horiz-adv-x="521"
                   d="M123 690h65c10 -40 36 -59 83 -59c46 0 73 19 83 59h64c-3 -86 -55 -132 -147 -132c-93 0 -144 46 -148 132zM518 88v-86c-19 -9 -34 -12 -58 -12c-59 0 -89 19 -101 63c-43 -46 -94 -66 -166 -66c-105 0 -167 54 -167 145c0 47 16 84 47 107c32 24 71 35 151 44
c105 12 124 22 124 63s-27 61 -83 61c-60 0 -85 -19 -91 -72h-133c5 54 19 82 55 112c39 33 99 49 177 49c136 0 208 -47 208 -136v-234c0 -33 5 -38 33 -38h4zM348 186v51c-13 -11 -36 -18 -81 -24c-81 -10 -108 -28 -108 -75c0 -41 27 -62 82 -62c70 0 107 38 107 110z
"/>
            <glyph glyph-name="aogonek" unicode="&#x105;" horiz-adv-x="521"
                   d="M518 88v-86c-51 -22 -75 -49 -75 -84c0 -26 25 -44 60 -44c10 0 18 1 34 5v-55c-26 -8 -40 -10 -59 -10c-68 0 -115 35 -115 86c0 34 17 59 63 93c-38 8 -59 26 -67 60c-43 -46 -94 -66 -166 -66c-105 0 -167 54 -167 145c0 47 16 84 47 106c32 25 71 36 151 45
c105 12 124 22 124 62c0 42 -27 62 -82 62c-61 0 -86 -19 -92 -72h-133c5 54 19 82 55 112c39 33 99 49 177 49c136 0 208 -47 208 -136v-234c0 -33 5 -38 33 -38h4zM348 186v51c-13 -11 -36 -18 -81 -24c-81 -10 -108 -28 -108 -75c0 -41 27 -62 82 -62
c70 0 107 38 107 110z"/>
            <glyph glyph-name="cacute" unicode="&#x107;" horiz-adv-x="531"
                   d="M379 185h129c-17 -125 -103 -198 -232 -198c-149 0 -246 99 -246 250c0 157 98 259 248 259c129 0 216 -70 227 -182h-130c-10 52 -45 82 -96 82c-73 0 -116 -57 -116 -156c0 -97 41 -153 113 -153c57 0 93 34 103 98zM431 691l-135 -134h-89l84 134h140z"/>
            <glyph glyph-name="ccaron" unicode="&#x10d;" horiz-adv-x="531"
                   d="M379 185h129c-17 -125 -103 -198 -232 -198c-149 0 -246 99 -246 250c0 157 98 259 248 259c129 0 216 -70 227 -182h-130c-10 52 -45 82 -96 82c-73 0 -116 -57 -116 -156c0 -97 41 -153 113 -153c57 0 93 34 103 98zM444 691l-103 -134h-122l-105 134h106l60 -82l61 82
h103z"/>
            <glyph glyph-name="cdotaccent" unicode="&#x10b;" horiz-adv-x="531"
                   d="M379 185h129c-17 -125 -103 -198 -232 -198c-149 0 -246 99 -246 250c0 157 98 259 248 259c129 0 216 -70 227 -182h-130c-10 52 -45 82 -96 82c-73 0 -116 -57 -116 -156c0 -97 41 -153 113 -153c57 0 93 34 103 98zM280 695c40 0 74 -34 74 -75s-34 -75 -75 -75
s-75 34 -75 75c0 42 34 75 76 75z"/>
            <glyph glyph-name="dcaron" unicode="&#x10f;" horiz-adv-x="708"
                   d="M523 667v-667h-126v62c-32 -51 -80 -75 -146 -75c-133 0 -219 100 -219 257c0 153 84 253 212 253c64 0 116 -26 147 -73v243h132zM281 394c-74 0 -116 -54 -116 -149c0 -94 43 -150 115 -150c73 0 116 55 116 149c0 93 -44 150 -115 150zM590 454v51c33 3 58 27 60 55
c-5 -1 -9 -1 -10 -1h-3c-32 0 -60 28 -60 59c0 34 28 62 61 62c41 0 70 -35 70 -84c0 -39 -12 -74 -35 -99c-21 -25 -40 -35 -83 -43z"/>
            <glyph glyph-name="dcroat" unicode="&#x111;" horiz-adv-x="582"
                   d="M523 532v-532h-126v62c-32 -51 -80 -75 -146 -75c-133 0 -219 100 -219 256c0 150 83 247 212 247c64 0 115 -23 147 -66v108h-138v77h138v58h132v-58h57v-77h-57zM281 387c-74 0 -116 -52 -116 -143c0 -93 44 -149 115 -149c73 0 116 55 116 148c0 90 -43 144 -115 144z
"/>
            <glyph glyph-name="ecaron" unicode="&#x11b;" horiz-adv-x="540"
                   d="M377 150h127c-26 -99 -114 -163 -227 -163c-148 0 -247 101 -247 252c0 149 103 257 243 257c144 0 239 -107 239 -269v-20h-347c3 -81 42 -125 113 -125c49 0 79 20 99 68zM165 292h212c-8 70 -45 109 -104 109s-101 -42 -108 -109zM442 691l-103 -134h-122l-105 134
h106l60 -82l61 82h103z"/>
            <glyph glyph-name="edotaccent" unicode="&#x117;" horiz-adv-x="540"
                   d="M377 150h127c-26 -99 -114 -163 -227 -163c-148 0 -247 101 -247 252c0 149 103 257 243 257c144 0 239 -107 239 -269v-20h-347c3 -81 42 -125 113 -125c49 0 79 20 99 68zM165 292h212c-8 70 -45 109 -104 109s-101 -42 -108 -109zM278 695c40 0 74 -34 74 -75
s-34 -75 -75 -75s-75 34 -75 75c0 42 34 75 76 75z"/>
            <glyph glyph-name="eogonek" unicode="&#x119;" horiz-adv-x="540"
                   d="M377 150h127c-18 -64 -51 -103 -130 -154c-29 -27 -39 -46 -39 -73c0 -31 22 -49 61 -49c10 0 18 1 34 5v-55c-26 -8 -40 -10 -60 -10c-68 0 -114 35 -114 87c0 34 17 58 59 88c-19 -1 -35 -2 -48 -2c-138 0 -237 105 -237 252c0 148 103 257 243 257
c144 0 239 -107 239 -269v-20h-347c3 -81 42 -125 113 -125c49 0 79 20 99 68zM165 292h212c-8 70 -45 109 -104 109s-101 -42 -108 -109z"/>
            <glyph glyph-name="gcaron" unicode="&#x1e7;" horiz-adv-x="572"
                   d="M512 483v-423c0 -76 -8 -115 -32 -152c-39 -59 -107 -88 -207 -88c-139 0 -213 50 -226 151h133c10 -43 39 -62 96 -62c78 0 107 34 108 125v55c-35 -50 -82 -74 -147 -74c-126 0 -206 92 -206 237c0 147 84 244 211 244c66 0 106 -22 144 -77v64h126zM276 393
c-71 0 -112 -51 -112 -138c0 -88 42 -142 110 -142s111 55 111 142c0 84 -43 138 -109 138zM444 691l-103 -134h-122l-105 134h106l60 -82l61 82h103z"/>
            <glyph glyph-name="gbreve" unicode="&#x11f;" horiz-adv-x="572"
                   d="M512 483v-423c0 -76 -8 -115 -32 -152c-39 -59 -107 -88 -207 -88c-139 0 -213 50 -226 151h133c10 -43 39 -62 96 -62c78 0 107 34 108 125v55c-35 -50 -82 -74 -147 -74c-126 0 -206 92 -206 237c0 147 84 244 211 244c66 0 106 -22 144 -77v64h126zM276 393
c-71 0 -112 -51 -112 -138c0 -88 42 -142 110 -142s111 55 111 142c0 84 -43 138 -109 138zM131 690h65c10 -40 37 -59 83 -59s73 19 83 59h65c-4 -86 -56 -132 -148 -132s-144 46 -148 132z"/>
            <glyph glyph-name="gdotaccent" unicode="&#x121;" horiz-adv-x="572"
                   d="M512 483v-423c0 -76 -8 -115 -32 -152c-39 -59 -107 -88 -207 -88c-139 0 -213 50 -226 151h133c10 -43 39 -62 96 -62c78 0 107 34 108 125v55c-35 -50 -82 -74 -147 -74c-126 0 -206 92 -206 237c0 147 84 244 211 244c66 0 106 -22 144 -77v64h126zM276 393
c-71 0 -112 -51 -112 -138c0 -88 42 -142 110 -142s111 55 111 142c0 84 -43 138 -109 138zM281 695c40 0 74 -34 74 -75s-34 -75 -75 -75s-75 34 -75 75c0 42 34 75 76 75z"/>
            <glyph glyph-name="lacute" unicode="&#x13a;" horiz-adv-x="249"
                   d="M190 667v-667h-132v667h132zM289 844l-139 -121h-98l84 121h153z"/>
            <glyph glyph-name="lcaron" unicode="&#x13e;" horiz-adv-x="375"
                   d="M190 667v-667h-132v667h132zM257 454v51c33 3 58 27 60 55c-5 -1 -9 -1 -10 -1h-3c-32 0 -60 28 -60 59c0 34 28 62 61 62c41 0 70 -35 70 -84c0 -39 -12 -74 -35 -99c-21 -25 -40 -35 -83 -43z"/>
            <glyph glyph-name="nacute" unicode="&#x144;" horiz-adv-x="565"
                   d="M184 483v-67c42 56 91 80 161 80c62 0 113 -25 139 -66c19 -31 26 -63 26 -126v-304h-132v277c0 35 -2 53 -8 69c-10 26 -39 42 -75 42c-41 0 -76 -20 -92 -53c-9 -20 -13 -43 -13 -85v-250h-132v483h126zM435 691l-135 -134h-89l84 134h140z"/>
            <glyph glyph-name="ncaron" unicode="&#x148;" horiz-adv-x="565"
                   d="M184 483v-67c42 56 91 80 161 80c62 0 113 -25 139 -66c19 -31 26 -63 26 -126v-304h-132v277c0 35 -2 53 -8 69c-10 26 -39 42 -75 42c-41 0 -76 -20 -92 -53c-9 -20 -13 -43 -13 -85v-250h-132v483h126zM448 691l-103 -134h-122l-105 134h106l60 -82l61 82h103z"/>
            <glyph glyph-name="ohungarumlaut" unicode="&#x151;"
                   d="M285 496c146 0 245 -102 245 -254c0 -154 -99 -255 -249 -255c-151 0 -251 102 -251 254c0 154 101 255 255 255zM281 398c-75 0 -118 -58 -118 -157c0 -98 44 -156 118 -156c73 0 116 58 116 157c0 97 -44 156 -116 156zM353 692l-118 -137h-67l65 137h120zM526 692
l-119 -137h-67l66 137h120z"/>
            <glyph glyph-name="racute" unicode="&#x155;" horiz-adv-x="370"
                   d="M370 491v-122c-24 4 -37 5 -52 5c-47 0 -86 -22 -108 -60c-15 -24 -20 -55 -20 -112v-202h-132v483h126v-89c35 67 86 99 156 99c10 0 16 0 30 -2zM370 691l-135 -134h-88l84 134h139z"/>
            <glyph glyph-name="sacute" unicode="&#x15b;" horiz-adv-x="496"
                   d="M448 343h-124c-7 46 -33 64 -91 64c-47 0 -74 -17 -74 -47c0 -32 17 -41 119 -62c140 -28 189 -67 189 -149c0 -100 -85 -162 -224 -162c-143 0 -220 57 -227 170h127c6 -56 37 -81 102 -81c54 0 89 23 89 60c0 33 -19 44 -109 64c-88 20 -111 27 -140 43
c-37 21 -59 60 -59 106c0 93 77 147 210 147c81 0 142 -21 178 -61c21 -24 30 -48 34 -92zM397 691l-135 -134h-89l84 134h140z"/>
            <glyph glyph-name="scircumflex" unicode="&#x15d;" horiz-adv-x="496"
                   d="M448 343h-124c-7 46 -33 64 -91 64c-47 0 -74 -17 -74 -47c0 -32 17 -41 119 -62c140 -28 189 -67 189 -149c0 -100 -85 -162 -224 -162c-143 0 -220 57 -227 170h127c6 -56 37 -81 102 -81c54 0 89 23 89 60c0 33 -19 44 -109 64c-88 20 -111 27 -140 43
c-37 21 -59 60 -59 106c0 93 77 147 210 147c81 0 142 -21 178 -61c21 -24 30 -48 34 -92zM413 557h-108l-59 80l-60 -80h-102l104 134h121z"/>
            <glyph glyph-name="scommaaccent" unicode="&#x219;" horiz-adv-x="496"
                   d="M448 343h-124c-7 46 -33 64 -91 64c-47 0 -74 -17 -74 -47c0 -32 17 -41 119 -62c140 -28 189 -67 189 -149c0 -100 -85 -162 -224 -162c-143 0 -220 57 -227 170h127c6 -56 37 -81 102 -81c54 0 89 23 89 60c0 33 -19 44 -109 64c-88 20 -111 27 -140 43
c-37 21 -59 60 -59 106c0 93 77 147 210 147c81 0 142 -21 178 -61c21 -24 30 -48 34 -92zM189 -273v51c33 3 58 27 60 55c-5 -1 -9 -1 -10 -1h-3c-32 0 -60 28 -60 59c0 34 28 62 61 62c41 0 70 -35 70 -84c0 -39 -12 -74 -35 -99c-21 -25 -40 -35 -83 -43z"/>
            <glyph glyph-name="tcaron" unicode="&#x165;" horiz-adv-x="390"
                   d="M303 483v-89h-98v-228c0 -60 8 -70 58 -70c12 0 24 1 40 3v-101c-33 -4 -54 -5 -81 -5c-69 0 -106 13 -128 46c-17 25 -21 47 -21 132v223h-81v89h81v146h132v-146h98zM272 508v51c33 4 58 27 60 56c-5 -1 -9 -2 -10 -2h-3c-32 0 -60 28 -60 60c0 33 28 61 61 61
c41 0 70 -35 70 -84c0 -39 -12 -74 -35 -99c-21 -25 -40 -34 -83 -43z"/>
            <glyph glyph-name="uring" unicode="&#x16f;" horiz-adv-x="566"
                   d="M507 483v-483h-126v68c-39 -55 -90 -81 -160 -81c-57 0 -105 20 -135 58c-23 29 -32 67 -32 132v306h132v-267c0 -56 2 -72 13 -89c14 -21 39 -32 71 -32c41 0 73 19 91 54c10 19 14 44 14 94v240h132zM282 738c55 0 102 -47 102 -104s-47 -104 -104 -104
c-58 0 -104 47 -104 105c0 57 47 103 106 103zM281 681c-27 0 -48 -21 -48 -47s21 -47 47 -47s47 21 47 47s-21 47 -46 47z"/>
            <glyph glyph-name="uhungarumlaut" unicode="&#x171;" horiz-adv-x="566"
                   d="M507 483v-483h-126v68c-39 -55 -90 -81 -160 -81c-57 0 -105 20 -135 58c-23 29 -32 67 -32 132v306h132v-267c0 -56 2 -72 13 -89c14 -21 39 -32 71 -32c41 0 73 19 91 54c10 19 14 44 14 94v240h132zM346 692l-119 -137h-67l66 137h120zM519 692l-119 -137h-67l66 137
h120z"/>
            <glyph glyph-name="zacute" unicode="&#x17a;" horiz-adv-x="478"
                   d="M451 483v-97l-198 -224c-15 -17 -28 -30 -62 -62c33 2 49 3 67 3h210v-103h-445v100l193 217c15 16 29 29 68 65c-22 -2 -31 -2 -49 -2h-193v103h409zM401 691l-135 -134h-89l84 134h140z"/>
            <glyph glyph-name="zdotaccent" unicode="&#x17c;" horiz-adv-x="478"
                   d="M451 483v-97l-198 -224c-15 -17 -28 -30 -62 -62c33 2 49 3 67 3h210v-103h-445v100l193 217c15 16 29 29 68 65c-22 -2 -31 -2 -49 -2h-193v103h409zM254 695c40 0 74 -34 74 -75s-34 -75 -75 -75s-75 34 -75 75c0 42 34 75 76 75z"/>
            <glyph glyph-name="hbar" unicode="&#x127;" horiz-adv-x="565"
                   d="M190 0h-132v532h-57v77h57v58h132v-58h138v-77h-138v-56c0 -8 0 -8 -1 -59c42 56 86 79 153 79c64 0 115 -24 143 -68c18 -29 25 -63 25 -121v-307h-132v284c0 41 -4 59 -15 74c-15 19 -39 30 -70 30c-40 0 -72 -19 -89 -53c-11 -22 -14 -42 -14 -99v-236z"/>
            <glyph glyph-name="tcommaaccent" unicode="&#x163;" horiz-adv-x="323"
                   d="M303 483v-89h-98v-228c0 -60 8 -70 58 -70c12 0 24 1 40 3v-101c-33 -4 -54 -5 -81 -5c-69 0 -106 13 -128 46c-17 25 -21 47 -21 132v223h-81v89h81v146h132v-146h98zM129 -273v51c33 3 58 27 60 55c-5 -1 -9 -1 -10 -1h-3c-32 0 -60 28 -60 59c0 34 28 62 61 62
c41 0 70 -35 70 -84c0 -39 -12 -74 -35 -99c-21 -25 -40 -35 -83 -43z"/>
            <glyph glyph-name="uni021B" unicode="&#x21b;" horiz-adv-x="323"
                   d="M303 483v-89h-98v-228c0 -60 8 -70 58 -70c12 0 24 1 40 3v-101c-33 -4 -54 -5 -81 -5c-69 0 -106 13 -128 46c-17 25 -21 47 -21 132v223h-81v89h81v146h132v-146h98zM129 -273v51c33 3 58 27 60 55c-5 -1 -9 -1 -10 -1h-3c-32 0 -60 28 -60 59c0 34 28 62 61 62
c41 0 70 -35 70 -84c0 -39 -12 -74 -35 -99c-21 -25 -40 -35 -83 -43z"/>
            <glyph glyph-name="wcircumflex" unicode="&#x175;" horiz-adv-x="746"
                   d="M749 483l-154 -483h-136l-57 211c-13 51 -18 75 -30 147c-12 -71 -18 -98 -30 -147l-53 -211h-138l-154 483h140l51 -184c16 -58 23 -92 40 -177c14 85 18 108 37 183l44 178h129l51 -199c15 -61 20 -85 32 -161c15 78 22 111 35 158l55 202h138zM537 557h-107l-59 80
l-60 -80h-103l104 134h121z"/>
            <glyph glyph-name="wdieresis" unicode="&#x1e85;" horiz-adv-x="746"
                   d="M749 483l-154 -483h-136l-57 211c-13 51 -18 75 -30 147c-12 -71 -18 -98 -30 -147l-53 -211h-138l-154 483h140l51 -184c16 -58 23 -92 40 -177c14 85 18 108 37 183l44 178h129l51 -199c15 -61 20 -85 32 -161c15 78 22 111 35 158l55 202h138zM472 695
c40 0 74 -34 74 -75s-34 -75 -75 -75s-75 34 -75 75c0 42 34 75 76 75zM276 695c40 0 74 -34 74 -75s-34 -75 -75 -75s-75 34 -75 75c0 42 34 75 76 75z"/>
            <glyph glyph-name="amacron" unicode="&#x101;" horiz-adv-x="521"
                   d="M421 657v-70h-306v70h306zM518 88v-86c-19 -9 -34 -12 -58 -12c-59 0 -89 19 -101 63c-43 -46 -94 -66 -166 -66c-105 0 -167 54 -167 145c0 47 16 84 47 107c32 24 71 35 151 44c105 12 124 22 124 63s-27 61 -83 61c-60 0 -85 -19 -91 -72h-133c5 54 19 82 55 112
c39 33 99 49 177 49c136 0 208 -47 208 -136v-234c0 -33 5 -38 33 -38h4zM348 186v51c-13 -11 -36 -18 -81 -24c-81 -10 -108 -28 -108 -75c0 -41 27 -62 82 -62c70 0 107 38 107 110z"/>
            <glyph glyph-name="ycircumflex" unicode="&#x177;" horiz-adv-x="489"
                   d="M493 483l-177 -481c-37 -98 -53 -126 -89 -151c-28 -18 -68 -27 -118 -24l-13 1l-54 1v109h15h39c53 0 75 17 75 61c0 11 -2 23 -4 30l-172 454h143l80 -237c10 -30 16 -53 30 -112c16 62 22 86 33 118l75 231h137zM413 557h-107l-59 80l-60 -80h-102l104 134h121z"/>
            <glyph glyph-name="ccircumflex" unicode="&#x109;" horiz-adv-x="531"
                   d="M379 185h129c-16 -124 -103 -198 -232 -198c-149 0 -246 99 -246 250c0 157 98 259 248 259c129 0 215 -69 227 -182h-130c-10 52 -45 82 -96 82c-73 0 -116 -57 -116 -155s41 -154 113 -154c57 0 93 34 103 98zM449 557h-108l-59 80l-60 -80h-102l104 134h121z"/>
            <glyph glyph-name="emacron" unicode="&#x113;" horiz-adv-x="540"
                   d="M377 150h127c-26 -99 -114 -163 -227 -163c-148 0 -247 101 -247 252c0 149 103 257 243 257c144 0 239 -107 239 -269v-20h-347c3 -81 42 -125 113 -125c49 0 79 20 99 68zM165 292h212c-8 70 -45 109 -104 109s-101 -42 -108 -109zM430 657v-70h-305v70h305z"/>
            <glyph glyph-name="gcircumflex" unicode="&#x11d;" horiz-adv-x="572"
                   d="M512 483v-423c0 -76 -8 -115 -32 -152c-39 -59 -107 -88 -207 -88c-139 0 -213 50 -226 151h133c10 -43 39 -62 96 -62c78 0 107 34 108 125v55c-35 -50 -82 -74 -147 -74c-126 0 -206 92 -206 237c0 147 84 244 211 244c66 0 106 -22 144 -77v64h126zM276 393
c-71 0 -112 -51 -112 -138c0 -88 42 -142 110 -142s111 55 111 142c0 84 -43 138 -109 138zM450 557h-107l-59 80l-61 -80h-102l104 134h121z"/>
            <glyph glyph-name="ibreve" unicode="&#x12d;" horiz-adv-x="249"
                   d="M189 483v-483h-132v483h132zM-17 690h65c9 -37 37 -59 76 -59s67 22 76 59h65c-4 -83 -56 -132 -141 -132s-138 49 -141 132z"/>
            <glyph glyph-name="imacron" unicode="&#x12b;" horiz-adv-x="249"
                   d="M189 483v-483h-132v483h132zM250 657v-70h-252v70h252z"/>
            <glyph glyph-name="jcircumflex" unicode="&#x135;" horiz-adv-x="250"
                   d="M190 483v-483l1 -40c0 -56 -26 -101 -69 -121c-22 -10 -52 -15 -92 -15c-18 0 -30 1 -53 3v107c11 -2 17 -2 25 -2c33 0 46 6 51 24c5 13 5 21 5 84v443h132zM287 557h-107l-60 80l-60 -80h-102l104 134h121z"/>
            <glyph glyph-name="kcommaaccent" unicode="&#x137;" horiz-adv-x="534"
                   d="M517 483l-182 -179l203 -304h-161l-133 215l-54 -51v-164h-132v667h132v-289v-40l-1 -36c17 22 24 31 34 41l137 140h157zM236 -273v51c33 3 58 27 60 55c-5 -1 -9 -1 -10 -1h-3c-32 0 -60 28 -60 59c0 34 28 62 61 62c41 0 70 -35 70 -84c0 -39 -12 -74 -35 -99
c-21 -25 -40 -35 -83 -43z"/>
            <glyph glyph-name="lcommaaccent" unicode="&#x13c;" horiz-adv-x="249"
                   d="M190 667v-667h-132v667h132zM72 -273v51c33 3 58 27 60 55c-5 -1 -9 -1 -10 -1h-3c-32 0 -60 28 -60 59c0 34 28 62 61 62c41 0 70 -35 70 -84c0 -39 -12 -74 -35 -99c-21 -25 -40 -35 -83 -43z"/>
            <glyph glyph-name="ncommaaccent" unicode="&#x146;" horiz-adv-x="565"
                   d="M184 483v-67c42 56 91 80 161 80c62 0 113 -25 139 -66c19 -31 26 -63 26 -126v-304h-132v277c0 35 -2 53 -8 69c-10 26 -39 42 -75 42c-41 0 -76 -20 -92 -53c-9 -20 -13 -43 -13 -85v-250h-132v483h126zM232 -273v51c33 3 58 27 60 55c-5 -1 -9 -1 -10 -1h-3
c-32 0 -60 28 -60 59c0 34 28 62 61 62c41 0 70 -35 70 -84c0 -39 -12 -74 -35 -99c-21 -25 -40 -35 -83 -43z"/>
            <glyph glyph-name="omacron" unicode="&#x14d;"
                   d="M285 496c146 0 245 -102 245 -254c0 -154 -99 -255 -249 -255c-151 0 -251 102 -251 254c0 154 101 255 255 255zM281 398c-75 0 -118 -58 -118 -157c0 -98 44 -156 118 -156c73 0 116 58 116 157c0 97 -44 156 -116 156zM433 657v-70h-306v70h306z"/>
            <glyph glyph-name="rcommaaccent" unicode="&#x157;" horiz-adv-x="370"
                   d="M370 491v-122c-24 4 -37 5 -52 5c-47 0 -86 -22 -108 -60c-15 -24 -20 -55 -20 -112v-202h-132v483h126v-89c35 67 86 99 156 99c10 0 16 0 30 -2zM72 -273v51c33 3 58 27 60 55c-5 -1 -9 -1 -10 -1h-3c-32 0 -60 28 -60 59c0 34 28 62 61 62c41 0 70 -35 70 -84
c0 -39 -12 -74 -35 -99c-21 -25 -40 -35 -83 -43z"/>
            <glyph glyph-name="ubreve" unicode="&#x16d;" horiz-adv-x="566"
                   d="M507 483v-483h-126v68c-39 -55 -90 -81 -160 -81c-57 0 -105 20 -135 58c-23 29 -32 67 -32 132v306h132v-267c0 -56 2 -72 13 -89c14 -21 39 -32 71 -32c41 0 73 19 91 54c10 19 14 44 14 94v240h132zM135 690h65c10 -40 36 -59 83 -59c46 0 73 19 83 59h64
c-3 -86 -55 -132 -147 -132c-93 0 -144 46 -148 132z"/>
            <glyph glyph-name="umacron" unicode="&#x16b;" horiz-adv-x="566"
                   d="M507 483v-483h-126v68c-39 -55 -90 -81 -160 -81c-57 0 -105 20 -135 58c-23 29 -32 67 -32 132v306h132v-267c0 -56 2 -72 13 -89c14 -21 39 -32 71 -32c41 0 73 19 91 54c10 19 14 44 14 94v240h132zM433 657v-70h-305v70h305z"/>
            <glyph glyph-name="uogonek" unicode="&#x173;" horiz-adv-x="566"
                   d="M375 483h132v-483c-42 -27 -59 -51 -59 -79c0 -29 23 -47 61 -47c10 0 18 1 34 5v-55c-26 -8 -40 -10 -60 -10c-68 0 -114 35 -114 87c0 39 27 76 73 99h-61v68c-39 -55 -90 -81 -160 -81c-57 0 -105 20 -135 58c-23 29 -32 67 -32 132v306h132v-267c0 -56 2 -72 13 -89
c14 -21 39 -32 71 -32c41 0 73 19 91 54c10 19 14 44 14 94v240z"/>
            <glyph glyph-name="rcaron" unicode="&#x159;" horiz-adv-x="370"
                   d="M370 491v-122c-24 4 -37 5 -52 5c-47 0 -86 -22 -108 -60c-15 -24 -20 -55 -20 -112v-202h-132v483h126v-89c35 67 86 99 156 99c10 0 16 0 30 -2zM380 691l-103 -134h-122l-105 134h106l60 -82l61 82h103z"/>
            <glyph glyph-name="scedilla" unicode="&#x15f;" horiz-adv-x="496"
                   d="M245 -14l-31 -45c18 3 26 4 37 4c49 0 82 -27 82 -66c0 -53 -45 -87 -114 -87c-36 0 -69 7 -107 22l18 39c29 -11 50 -16 73 -16c29 0 49 14 49 35s-18 35 -45 35c-11 0 -20 -2 -34 -7l-20 18l50 71c-118 10 -184 70 -187 168h127c6 -56 37 -81 102 -81c54 0 89 23 89 60
c0 33 -19 44 -109 64c-88 20 -111 27 -140 43c-37 21 -59 60 -59 106c0 93 77 147 210 147c81 0 142 -21 178 -61c21 -24 30 -48 34 -92h-124c-7 46 -33 64 -91 64c-47 0 -74 -17 -74 -47c0 -33 17 -41 119 -62c140 -28 189 -67 189 -149c0 -66 -39 -118 -107 -144
c-27 -11 -53 -15 -115 -19z"/>
            <glyph glyph-name="gcommaaccent" unicode="&#x123;" horiz-adv-x="572"
                   d="M512 483v-423c0 -76 -8 -115 -32 -152c-39 -59 -107 -88 -207 -88c-139 0 -213 50 -226 151h133c10 -43 39 -62 96 -62c78 0 107 34 108 125v55c-35 -50 -82 -74 -147 -74c-126 0 -206 92 -206 237c0 147 84 244 211 244c66 0 106 -22 144 -77v64h126zM276 393
c-71 0 -112 -51 -112 -138c0 -88 42 -142 110 -142s111 55 111 142c0 84 -43 138 -109 138zM331 764v-51c-33 -4 -58 -27 -60 -56c5 1 9 2 10 2h3c32 0 60 -28 60 -60c0 -33 -28 -61 -61 -61c-41 0 -70 35 -70 84c0 39 12 74 35 99c21 25 40 34 83 43z"/>
            <glyph glyph-name="uni0227" unicode="&#x227;" horiz-adv-x="521"
                   d="M271 695c40 0 74 -34 74 -75s-34 -75 -75 -75s-75 34 -75 75c0 42 34 75 76 75zM518 88v-86c-19 -9 -34 -12 -58 -12c-59 0 -89 19 -101 63c-43 -46 -94 -66 -166 -66c-105 0 -167 54 -167 145c0 47 16 84 47 107c32 24 71 35 151 44c105 12 124 22 124 63s-27 61 -83 61
c-60 0 -85 -19 -91 -72h-133c5 54 19 82 55 112c39 33 99 49 177 49c136 0 208 -47 208 -136v-234c0 -33 5 -38 33 -38h4zM348 186v51c-13 -11 -36 -18 -81 -24c-81 -10 -108 -28 -108 -75c0 -41 27 -62 82 -62c70 0 107 38 107 110z"/>
            <glyph glyph-name="Euro" unicode="&#x20ac;"
                   d="M31 425h56c37 160 140 252 283 252c71 0 107 -13 180 -62l-43 -114c-63 46 -101 62 -146 62c-63 0 -106 -46 -132 -138h249l-26 -74h-236c-1 -8 -1 -14 -1 -21c0 -10 0 -17 1 -24h218l-28 -74h-175c27 -83 72 -127 130 -127c40 0 70 10 144 48v-132
c-77 -23 -117 -31 -151 -31c-78 0 -160 42 -203 103c-26 37 -46 82 -61 139h-86l27 74h48c-1 13 -1 18 -1 30v11v4h-74z"/>
            <glyph glyph-name="peseta" unicode="&#x20a7;" horiz-adv-x="941"
                   d="M65 667h200c85 0 127 -9 167 -37c54 -37 82 -97 82 -172c0 -68 -23 -123 -67 -161c-39 -33 -84 -47 -156 -47h-96v-250h-130v667zM195 554v-199h77c39 0 65 7 82 22c21 17 32 46 32 79c0 34 -13 62 -36 79c-19 13 -44 19 -86 19h-69zM642 250v-57h-55v-108
c0 -26 2 -28 26 -28c9 0 16 0 29 2v-63c-24 -2 -37 -3 -53 -3c-38 0 -61 8 -74 25c-11 14 -13 26 -13 70v105h-44v57h44v73h85v-73h55zM914 167h-81c-3 26 -13 33 -44 33c-22 0 -34 -6 -34 -18s6 -14 60 -24c81 -16 109 -37 109 -81c0 -54 -50 -88 -130 -88
c-85 0 -128 32 -131 98h82c3 -30 16 -41 50 -41c26 0 43 9 43 24c0 12 -8 16 -55 26c-52 11 -62 14 -78 22c-22 11 -36 33 -36 58c0 50 45 80 121 80c81 0 120 -28 124 -89z"/>
            <glyph glyph-name="lira" unicode="&#x20a4;"
                   d="M221 448h155v-79h-124c12 -31 18 -52 26 -79h98v-79h-94c-10 -37 -33 -68 -76 -104c32 14 57 20 85 20c19 0 38 -3 66 -11c34 -9 45 -11 61 -11c33 0 64 14 87 40l57 -98c-33 -37 -91 -60 -152 -60c-36 0 -49 2 -115 22c-35 10 -63 15 -86 15c-35 0 -62 -10 -101 -37
l-59 87c62 43 95 86 103 137h-109v79h96c-12 32 -20 49 -33 79h-63v79h32c-4 21 -5 32 -5 47c0 109 92 182 231 182c150 0 235 -79 237 -218h-132c-2 68 -37 104 -102 104c-51 0 -88 -32 -88 -76c0 -13 1 -23 5 -39z"/>
            <glyph glyph-name="franc" unicode="&#x20a3;" horiz-adv-x="645"
                   d="M491 667v-115h-297v-156h163v-101h-163v-295h-130v667h427zM653 405v-107c-22 6 -33 8 -47 8c-39 0 -75 -20 -94 -54c-12 -21 -17 -49 -17 -100v-152h-112v398h107v-78c29 58 74 87 137 87c8 0 14 0 26 -2z"/>
            <glyph glyph-name="uni2219" unicode="&#x2219;" horiz-adv-x="278"
                   d="M140 318c40 0 74 -34 74 -75s-34 -75 -75 -75s-75 34 -75 75c0 42 34 75 76 75z"/>
            <glyph glyph-name="afii57929" unicode="&#x2bc;" horiz-adv-x="275"
                   d="M69 388v64c40 4 71 33 73 69c-5 -2 -9 -2 -12 -2h-4c-39 0 -73 34 -73 74c0 41 34 76 75 76c51 0 86 -43 86 -105c0 -48 -15 -91 -43 -123c-26 -30 -50 -42 -102 -53z"/>
            <glyph glyph-name="uni00AD" unicode="&#xad;" horiz-adv-x="253"
                   d="M253 308v-119h-253v119h253z"/>
            <glyph glyph-name="uni2011" unicode="&#x2011;" horiz-adv-x="253"
                   d="M253 308v-119h-253v119h253z"/>
            <glyph glyph-name="afii00208" unicode="&#x2015;" horiz-adv-x="740"
                   d="M740 308v-119h-740v119h740z"/>
            <glyph glyph-name="afii61248" unicode="&#x2105;" horiz-adv-x="889"
                   d="M592 667l-276 -667h-74l276 667h74zM261 445h91c-12 -87 -72 -139 -163 -139c-104 0 -172 69 -172 175c0 110 69 182 174 182c90 0 151 -49 158 -128h-90c-7 37 -32 58 -68 58c-51 0 -81 -40 -81 -110c0 -67 29 -107 79 -107c40 0 66 24 72 69zM666 359
c103 0 172 -72 172 -178c0 -108 -69 -179 -174 -179c-106 0 -176 71 -176 178c0 108 71 179 178 179zM664 290c-53 0 -83 -41 -83 -110s31 -109 83 -109c51 0 81 41 81 110c0 68 -31 109 -81 109z"/>
            <glyph glyph-name="uni2101" unicode="&#x2101;" horiz-adv-x="1023"
                   d="M709 667l-276 -667h-73l276 667h73zM283 667l165 -400h-105l-34 88h-154l-35 -88h-103l165 400h101zM287 425l-55 147l-55 -147h110zM955 277h-95c-4 40 -29 59 -78 59c-42 0 -66 -15 -66 -42c0 -23 11 -29 101 -49c54 -12 80 -21 102 -34c35 -21 53 -52 53 -89
c0 -81 -69 -131 -180 -131c-119 0 -187 52 -188 147h99c2 -51 31 -74 93 -74c46 0 75 19 75 49c0 16 -9 26 -30 34c-17 6 -18 6 -84 23c-55 14 -84 25 -103 41c-22 18 -34 45 -34 77c0 74 67 122 167 122c105 0 165 -47 168 -133z"/>
            <glyph glyph-name="quotereversed" unicode="&#x201b;" horiz-adv-x="254"
                   d="M196 478v-64c-53 11 -76 23 -102 53c-28 32 -43 75 -43 123c0 62 35 105 86 105c41 0 75 -35 75 -76c0 -40 -34 -74 -73 -74h-4c-3 0 -7 1 -12 2c2 -35 33 -65 73 -69z"/>
            <glyph glyph-name="uni2155" unicode="&#x2155;" horiz-adv-x="912"
                   d="M264 661v-394h-92v253h-27h-30h-30h-13v63c74 1 110 24 119 78h73zM678 657l-364 -657h-78l366 657h76zM857 391v-75h-173l-8 -44c-2 -13 -4 -18 -6 -28c24 17 42 22 73 22c82 0 137 -52 137 -129c0 -84 -67 -143 -162 -143c-94 0 -152 48 -156 127h90
c4 -34 29 -56 66 -56c41 0 69 29 69 70s-27 68 -69 68c-28 0 -46 -9 -61 -32l-82 1l42 219h240z"/>
            <glyph glyph-name="uni2156" unicode="&#x2156;" horiz-adv-x="912"
                   d="M341 342v-75h-314c5 88 25 113 165 199c41 25 54 42 54 70c0 32 -22 53 -56 53c-44 0 -64 -26 -65 -85h-88c-1 5 -1 10 -1 11c0 91 61 149 157 149c86 0 146 -50 146 -122c0 -34 -12 -62 -36 -86c-15 -15 -18 -17 -74 -52c-50 -31 -71 -47 -85 -64c24 1 40 1 65 1z
M677 657l-364 -657h-78l366 657h76zM856 391v-75h-173l-8 -44c-2 -13 -4 -18 -6 -28c24 17 42 22 73 22c82 0 137 -52 137 -129c0 -84 -67 -143 -162 -143c-94 0 -152 48 -156 127h90c4 -34 29 -56 66 -56c41 0 69 29 69 70s-27 68 -69 68c-28 0 -46 -9 -61 -32l-82 1
l42 219h240z"/>
            <glyph glyph-name="uni2157" unicode="&#x2157;" horiz-adv-x="912"
                   d="M124 528h-87c2 85 58 136 149 136c85 0 143 -44 143 -109c0 -36 -17 -61 -50 -77c42 -15 65 -46 65 -90c0 -75 -66 -128 -159 -128c-98 0 -159 54 -159 140v7h89c-1 -47 23 -73 68 -73c40 0 66 22 66 55c0 36 -25 54 -73 54c-9 0 -14 0 -24 -2v63h18c47 0 70 15 70 46
c0 26 -22 44 -55 44c-39 0 -59 -22 -61 -66zM678 657l-365 -657h-78l366 657h77zM857 391v-75h-173l-8 -44c-2 -13 -4 -18 -6 -28c24 17 42 22 73 22c82 0 137 -52 137 -129c0 -84 -67 -143 -162 -143c-94 0 -152 48 -156 127h90c4 -34 29 -56 66 -56c41 0 69 29 69 70
s-27 68 -69 68c-28 0 -46 -9 -61 -32l-82 1l42 219h240z"/>
            <glyph glyph-name="uni2158" unicode="&#x2158;" horiz-adv-x="913"
                   d="M350 427v-72h-54v-88h-88v88h-180v77l185 229h83v-234h54zM211 424v142l-109 -143zM678 657l-365 -657h-78l366 657h77zM857 391v-75h-173l-8 -44c-2 -13 -4 -18 -6 -28c24 17 42 22 73 22c82 0 137 -52 137 -129c0 -84 -67 -143 -162 -143c-94 0 -152 48 -156 127h90
c4 -34 29 -56 66 -56c41 0 69 29 69 70s-27 68 -69 68c-28 0 -46 -9 -61 -32l-82 1l42 219h240z"/>
            <glyph glyph-name="uni2159" unicode="&#x2159;" horiz-adv-x="913"
                   d="M264 661v-394h-92v253h-27h-30h-30h-13v63c74 1 110 24 119 78h73zM678 657l-364 -657h-78l366 657h76zM878 287h-88c-7 29 -24 43 -53 43c-43 0 -69 -34 -76 -100c25 25 51 36 90 36c78 0 134 -55 134 -131c0 -82 -64 -141 -151 -141c-103 0 -163 72 -163 195
c0 129 63 208 167 208c79 0 129 -39 140 -110zM732 201c-37 0 -64 -28 -64 -68c0 -39 27 -68 64 -68s64 29 64 68s-27 68 -64 68z"/>
            <glyph glyph-name="uni215A" unicode="&#x215a;" horiz-adv-x="913"
                   d="M319 657v-75h-173l-8 -44c-3 -13 -4 -18 -6 -28c24 17 42 23 73 23c82 0 137 -52 137 -130c0 -84 -67 -143 -162 -143c-94 0 -152 48 -156 127h90c4 -35 29 -57 66 -57c41 0 69 29 69 70c0 42 -27 69 -69 69c-28 0 -46 -9 -62 -32l-81 1l41 219h241zM677 657l-364 -657
h-78l366 657h76zM877 287h-88c-7 29 -24 43 -53 43c-43 0 -69 -34 -76 -100c25 25 51 36 90 36c78 0 134 -54 134 -131c0 -82 -64 -141 -151 -141c-103 0 -163 72 -163 195c0 129 63 208 167 208c79 0 129 -39 140 -110zM731 201c-38 0 -64 -28 -64 -68c0 -39 27 -68 64 -68
s64 29 64 68s-27 68 -64 68z"/>
            <glyph glyph-name="uni2215" unicode="&#x2215;" horiz-adv-x="162"
                   d="M302 657l-364 -657h-78l366 657h76z"/>
            <glyph glyph-name="uni02C9" unicode="&#x2c9;" horiz-adv-x="500"
                   d="M402 657v-70h-305v70h305z"/>
            <glyph glyph-name="aringacute" unicode="&#x1fb;" horiz-adv-x="521"
                   d="M270 739c55 0 102 -48 102 -104c0 -58 -47 -105 -104 -105c-58 0 -104 47 -104 105s47 104 106 104zM267 682c-25 0 -46 -22 -46 -48s21 -47 47 -47s47 21 47 48c0 26 -21 47 -48 47zM343 864l-135 -135h-89l84 135h140zM518 88v-86c-19 -9 -34 -12 -58 -12
c-59 0 -89 19 -101 63c-43 -46 -94 -66 -166 -66c-105 0 -167 54 -167 145c0 47 16 84 47 107c32 24 71 35 151 44c105 12 124 22 124 63s-27 61 -83 61c-60 0 -85 -19 -91 -72h-133c5 54 19 82 55 112c39 33 99 49 177 49c136 0 208 -47 208 -136v-234c0 -33 5 -38 33 -38
h4zM348 186v51c-13 -11 -36 -18 -81 -24c-81 -10 -108 -28 -108 -75c0 -41 27 -62 82 -62c70 0 107 38 107 110z"/>
            <glyph glyph-name="hcircumflex" unicode="&#x125;" horiz-adv-x="566"
                   d="M189 667v-190v-29c-1 -4 -1 -17 -1 -31c42 56 87 79 153 79c65 0 116 -24 144 -68c18 -29 25 -62 25 -121v-307h-132v284c0 41 -4 59 -15 74c-14 19 -39 30 -70 30c-41 0 -73 -19 -90 -53c-11 -22 -14 -41 -14 -98v-237h-132v667h132zM394 726h-118l-55 64l-56 -64h-113
l109 124h125z"/>
            <glyph glyph-name="ebreve" unicode="&#x115;" horiz-adv-x="540"
                   d="M377 150h127c-26 -99 -114 -163 -227 -163c-148 0 -247 101 -247 252c0 149 103 257 243 257c144 0 239 -107 239 -269v-20h-347c3 -81 42 -125 113 -125c49 0 79 20 99 68zM165 292h212c-8 70 -45 109 -104 109s-101 -42 -108 -109zM122 690h65c10 -40 37 -59 83 -59
s73 19 83 59h65c-4 -86 -56 -132 -148 -132s-144 46 -148 132z"/>
            <glyph glyph-name="uni01F5" unicode="&#x1f5;" horiz-adv-x="572"
                   d="M513 483v-423c0 -76 -8 -115 -32 -152c-39 -59 -107 -88 -207 -88c-139 0 -213 50 -226 151h133c9 -43 39 -62 96 -62c78 0 107 35 108 125v55c-34 -50 -82 -74 -147 -74c-126 0 -206 92 -206 237c0 147 84 244 211 244c66 0 106 -22 144 -77v64h126zM273 393
c-66 0 -107 -53 -107 -138c0 -88 42 -142 109 -142c68 0 111 55 111 143c0 86 -43 137 -113 137zM411 691l-135 -134h-89l85 134h139z"/>
            <glyph glyph-name="iogonek" unicode="&#x12f;" horiz-adv-x="249"
                   d="M58 0v483h132v-483c-26 -19 -47 -55 -47 -82s19 -44 49 -44c8 0 15 1 29 5v-55c-26 -8 -40 -10 -58 -10c-56 0 -100 38 -100 87c0 35 19 64 67 99h-72zM126 681c40 0 74 -34 74 -75s-34 -75 -75 -75s-75 34 -75 75c0 42 34 75 76 75z"/>
            <glyph glyph-name="ldot" unicode="&#x140;" horiz-adv-x="415"
                   d="M190 667v-667h-132v667h132zM333 422c40 0 74 -34 74 -75s-34 -75 -75 -75s-75 34 -75 75c0 42 34 75 76 75z"/>
            <glyph glyph-name="uni01D2" unicode="&#x1d2;"
                   d="M285 496c146 0 245 -102 245 -254c0 -154 -99 -255 -249 -255c-151 0 -251 102 -251 254c0 154 101 255 255 255zM277 398c-70 0 -114 -60 -114 -156c0 -99 43 -157 117 -157c73 0 116 59 116 156c0 99 -44 157 -119 157zM445 691l-103 -134h-122l-105 134h106l60 -82
l61 82h103z"/>
            <glyph glyph-name="obreve" unicode="&#x14f;"
                   d="M285 496c146 0 245 -102 245 -254c0 -154 -99 -255 -249 -255c-151 0 -251 102 -251 254c0 154 101 255 255 255zM281 398c-75 0 -118 -58 -118 -157c0 -98 44 -156 118 -156c73 0 116 58 116 157c0 97 -44 156 -116 156zM132 690h65c10 -40 37 -59 83 -59s73 19 83 59
h65c-4 -86 -56 -132 -148 -132s-144 46 -148 132z"/>
            <glyph glyph-name="oslashacute" unicode="&#x1ff;"
                   d="M527 466l-50 -57c36 -41 53 -93 53 -158c0 -159 -98 -264 -245 -264c-61 0 -104 12 -149 39l-56 -59l-49 48l52 58c-22 37 -25 43 -31 55c-14 32 -22 74 -22 115c0 143 104 253 241 253c62 0 121 -15 156 -40l52 56zM172 168l174 208c-19 14 -44 22 -69 22
c-72 0 -118 -62 -118 -159c0 -24 3 -40 13 -71zM385 316l-172 -209c28 -19 39 -22 65 -22c76 0 121 57 121 155c0 28 -2 41 -14 76zM437 691l-134 -134h-89l84 134h139z"/>
            <glyph glyph-name="itilde" unicode="&#x129;" horiz-adv-x="249"
                   d="M189 483v-483h-132v483h132zM223 685h61c-14 -77 -47 -115 -102 -115c-25 0 -36 4 -95 30c-9 4 -17 6 -26 6c-20 0 -34 -14 -38 -39h-60c11 71 50 116 101 116c20 0 30 -3 63 -17c29 -12 45 -17 59 -17c18 0 28 11 37 36z"/>
            <glyph glyph-name="utilde" unicode="&#x169;" horiz-adv-x="566"
                   d="M507 483v-483h-126v68c-39 -55 -90 -81 -160 -81c-57 0 -105 20 -135 58c-23 29 -32 67 -32 132v306h132v-267c0 -56 2 -72 13 -89c14 -21 39 -32 71 -32c41 0 73 19 91 54c10 19 14 44 14 94v240h132zM381 685h60c-14 -77 -47 -115 -102 -115c-25 0 -36 3 -95 30
c-9 4 -17 6 -25 6c-20 0 -34 -14 -39 -39h-60c11 71 50 116 101 116c19 0 30 -3 63 -17c29 -12 46 -17 59 -17c18 0 28 10 38 36z"/>
            <glyph glyph-name="uni01D4" unicode="&#x1d4;" horiz-adv-x="566"
                   d="M507 483v-483h-126v68c-39 -55 -90 -81 -160 -81c-57 0 -105 20 -135 58c-23 29 -32 67 -32 132v306h132v-267c0 -56 2 -72 13 -89c14 -21 39 -32 71 -32c41 0 73 19 91 54c10 19 14 44 14 94v240h132zM448 691l-103 -134h-122l-105 134h106l60 -82l61 82h103z"/>
            <glyph glyph-name="Ldot" unicode="&#x13f;" horiz-adv-x="561"
                   d="M536 123v-123h-471v667h145v-544h326zM420 442c40 0 74 -34 74 -75s-34 -75 -75 -75s-75 34 -75 75c0 42 34 75 76 75z"/>
            <glyph glyph-name="Obreve" unicode="&#x14e;" horiz-adv-x="727"
                   d="M369 683c191 0 323 -143 323 -350c0 -208 -132 -349 -327 -349c-198 0 -330 140 -330 349c0 212 131 350 334 350zM367 562c-114 0 -185 -87 -185 -228s70 -229 184 -229c110 0 179 89 179 231c0 137 -70 226 -178 226zM201 852h68c12 -38 42 -56 93 -56
c54 0 84 18 95 56h69c-4 -86 -61 -132 -163 -132c-101 0 -158 46 -162 132z"/>
            <glyph glyph-name="Scommaaccent" unicode="&#x218;" horiz-adv-x="613"
                   d="M249 -273v51c33 3 58 27 60 55c-5 -1 -9 -1 -10 -1h-3c-32 0 -60 28 -60 59c0 34 28 62 61 62c41 0 70 -35 70 -84c0 -39 -12 -74 -35 -99c-21 -25 -40 -35 -83 -43zM556 469h-139c-5 66 -49 101 -126 101c-69 0 -109 -28 -109 -77c0 -21 10 -38 27 -48
c21 -11 50 -20 135 -41c84 -20 124 -35 157 -57c53 -34 81 -85 81 -147c0 -133 -105 -216 -275 -216c-181 0 -285 86 -289 239h145c2 -41 10 -63 29 -83c27 -29 66 -43 121 -43c75 0 122 34 122 89c0 29 -15 48 -51 62c-28 11 -29 11 -131 39c-85 24 -131 44 -160 69
c-33 30 -51 74 -51 126c0 122 101 201 257 201c98 0 175 -31 218 -89c25 -34 37 -72 39 -125z"/>
            <glyph glyph-name="Ubreve" unicode="&#x16c;" horiz-adv-x="680"
                   d="M624 667v-394c0 -100 -13 -151 -52 -200c-48 -61 -120 -89 -232 -89c-119 0 -195 32 -243 101c-32 45 -43 95 -43 190v392h145v-402c0 -56 6 -85 22 -109c23 -34 64 -51 122 -51c99 0 136 44 136 160v402h145zM178 852h68c11 -38 41 -56 93 -56c53 0 83 18 95 56h68
c-4 -86 -61 -132 -162 -132s-158 46 -162 132z"/>
            <glyph glyph-name="Aringacute" unicode="&#x1fa;" horiz-adv-x="657"
                   d="M404 668l254 -668h-153l-53 150h-248l-54 -150h-150l254 668h150zM416 257l-43 120c-25 71 -33 99 -44 145c-11 -42 -17 -59 -47 -145l-43 -120h177zM329 901c59 0 109 -51 109 -110c0 -61 -50 -111 -111 -111s-110 50 -110 111s50 110 112 110zM327 843
c-28 0 -52 -24 -52 -52c0 -29 24 -53 52 -53c30 0 53 23 53 53c0 29 -24 52 -53 52zM391 1006l-140 -121h-97l84 121h153z"/>
            <glyph glyph-name="Oslashacute" unicode="&#x1fe;" horiz-adv-x="728"
                   d="M689 634l-67 -76c44 -64 64 -131 64 -218c0 -107 -24 -179 -84 -253c-53 -64 -141 -103 -233 -103c-86 0 -163 23 -207 61l-65 -75l-66 60l67 78c-51 74 -68 129 -68 225c0 215 130 350 338 350c50 0 95 -10 132 -29c7 -3 24 -13 50 -27c2 -2 6 -4 10 -6l62 69zM197 215
l272 313c-45 25 -72 34 -108 34c-114 0 -184 -87 -184 -230c0 -40 5 -68 20 -117zM519 453l-265 -309c32 -28 63 -39 108 -39c58 0 104 25 138 74c30 44 41 84 41 152c0 47 -3 67 -22 122zM528 844l-140 -121h-97l84 121h153z"/>
            <glyph glyph-name="AEacute" unicode="&#x1fc;" horiz-adv-x="923"
                   d="M876 667v-123h-314v-143h295v-114h-295v-164h322v-123h-460v145h-212l-67 -145h-157l320 667h568zM424 252v298h-32l-134 -298h166zM714 844l-139 -121h-98l84 121h153z"/>
            <glyph glyph-name="Eng" unicode="&#x14a;" horiz-adv-x="693"
                   d="M210 667v-84c55 69 120 100 212 100c78 0 141 -30 174 -83c24 -38 32 -78 32 -157v-443c0 -81 -10 -114 -43 -141c-29 -23 -69 -34 -130 -34c-17 0 -29 1 -53 2v107c13 -1 18 -1 25 -1c32 0 46 6 51 24c4 13 5 22 5 83v370c0 49 -3 73 -12 94c-15 36 -57 58 -110 58
c-58 0 -109 -27 -132 -71c-14 -27 -19 -58 -19 -115v-376h-145v667h145z"/>
            <glyph glyph-name="Tbar" unicode="&#x166;" horiz-adv-x="581"
                   d="M565 667v-123h-203v-131h154v-93h-154v-320h-145v320h-153v93h153v131h-201v123h549z"/>
            <glyph glyph-name="eng" unicode="&#x14b;" horiz-adv-x="565"
                   d="M184 483v-67c42 55 91 80 161 80c62 0 113 -25 139 -66c19 -31 26 -63 26 -126v-304l1 -37c0 -59 -25 -103 -69 -123c-22 -10 -53 -15 -92 -15c-18 0 -29 0 -53 2v107c13 -1 18 -1 25 -1c32 0 46 6 51 24c4 13 5 22 5 83v237c0 35 -2 53 -8 69c-10 26 -39 42 -75 42
c-41 0 -76 -20 -92 -53c-9 -20 -13 -43 -13 -85v-250h-132v483h126z"/>
            <glyph glyph-name="tbar" unicode="&#x167;" horiz-adv-x="323"
                   d="M303 483v-89h-98v-82h88v-77h-88v-69c0 -60 8 -70 58 -70c11 0 23 1 40 3v-101c-33 -4 -54 -5 -81 -5c-69 0 -106 13 -128 46c-17 25 -21 47 -21 132v64h-71v77h71v82h-81v89h81v146h132v-146h98z"/>
            <glyph glyph-name="kgreenlandic" unicode="&#x138;" horiz-adv-x="534"
                   d="M517 483l-182 -179l203 -304h-161l-133 215l-54 -51v-164h-132v483h132v-105v-40l-1 -36c17 22 24 31 34 41l137 140h157z"/>
            <glyph glyph-name="napostrophe" unicode="&#x149;" horiz-adv-x="756"
                   d="M45 384v64c40 4 71 34 73 69c-5 -1 -9 -2 -12 -2h-4c-39 0 -73 35 -73 74c0 42 34 77 75 77c51 0 86 -43 86 -105c0 -48 -15 -92 -43 -123c-26 -31 -49 -43 -102 -54zM374 483v-67c42 56 91 80 161 80c62 0 113 -25 139 -66c19 -31 26 -63 26 -126v-304h-132v277
c0 35 -2 53 -8 69c-10 26 -39 42 -75 42c-41 0 -76 -20 -92 -53c-9 -20 -13 -43 -13 -85v-250h-132v483h126z"/>
            <glyph glyph-name="Utilde" unicode="&#x168;" horiz-adv-x="680"
                   d="M624 667v-394c0 -100 -13 -151 -52 -200c-48 -61 -120 -89 -232 -89c-119 0 -195 32 -243 101c-32 45 -43 95 -43 190v392h145v-402c0 -57 6 -85 22 -109c23 -34 64 -51 122 -51c99 0 136 44 136 160v402h145zM446 849h65c-15 -79 -51 -119 -110 -119c-20 0 -22 1 -67 18
c-27 11 -53 18 -64 18c-18 0 -32 -14 -38 -39h-65c6 35 13 53 30 74c25 30 49 44 77 44c19 0 31 -3 68 -17c31 -12 46 -16 62 -16c20 0 32 10 42 37z"/>
            <glyph glyph-name="aeacute" unicode="&#x1fd;" horiz-adv-x="843"
                   d="M589 691l-135 -134h-89l84 134h140zM682 151h126c-25 -101 -112 -164 -226 -164c-67 0 -123 23 -163 65c-53 -51 -100 -66 -205 -66c-57 0 -84 5 -115 20c-47 23 -73 67 -73 126c0 46 16 84 47 106c32 24 71 36 151 45c105 12 124 22 124 63s-27 61 -83 61
c-60 0 -85 -19 -91 -72h-133c5 54 19 82 55 112c40 33 98 49 178 49c77 0 131 -15 172 -47c34 29 84 47 135 47c140 0 234 -105 234 -264v-21h-344c0 -81 41 -129 108 -129c49 0 82 22 103 69zM348 186v51c-13 -11 -36 -18 -81 -24c-82 -10 -108 -28 -108 -75
c0 -41 27 -62 82 -62c70 0 107 38 107 110zM470 289h214c-5 71 -44 112 -106 112c-35 0 -68 -16 -87 -43c-12 -17 -17 -35 -21 -69z"/>
            <glyph glyph-name="Itilde" unicode="&#x128;" horiz-adv-x="275"
                   d="M210 667v-667h-145v667h145zM245 849h64c-14 -79 -51 -119 -110 -119c-20 0 -22 0 -66 18c-27 11 -53 18 -64 18c-19 0 -33 -14 -38 -39h-65c6 36 13 53 30 74c25 30 48 44 77 44c19 0 31 -3 67 -17c32 -12 47 -16 62 -16c20 0 32 10 43 37z"/>
            <glyph glyph-name="Wgrave" unicode="&#x1e80;" horiz-adv-x="883"
                   d="M881 667l-180 -667h-146l-72 286c-11 41 -33 157 -43 222c-8 -60 -27 -160 -41 -219l-71 -289h-148l-178 667h146l66 -280c20 -87 38 -186 42 -244c5 53 22 147 45 243l72 281h138l70 -275c35 -165 37 -178 45 -249c6 60 22 152 46 255l64 269h145zM284 844h153l85 -121
h-98z"/>
            <glyph glyph-name="Wacute" unicode="&#x1e82;" horiz-adv-x="882"
                   d="M597 844l-139 -121h-98l84 121h153zM881 667l-181 -667h-145l-73 286c-15 66 -29 140 -42 222c-8 -60 -27 -160 -42 -219l-70 -289h-148l-178 667h146l66 -280c21 -91 38 -187 42 -244c5 53 22 146 45 243l72 281h138l70 -275c33 -156 37 -179 45 -249
c6 60 21 146 45 255l65 269h145z"/>
            <glyph glyph-name="wgrave" unicode="&#x1e81;" horiz-adv-x="746"
                   d="M749 483l-154 -483h-136l-57 211c-13 51 -18 75 -30 147c-12 -71 -18 -98 -30 -147l-53 -211h-138l-154 483h140l51 -184c16 -58 23 -92 40 -177c14 85 18 108 37 183l44 178h129l51 -199c15 -61 20 -85 32 -161c15 78 22 111 35 158l55 202h138zM211 691h140l84 -134
h-89z"/>
            <glyph glyph-name="wacute" unicode="&#x1e83;" horiz-adv-x="746"
                   d="M749 483l-154 -483h-136l-57 211c-13 51 -18 75 -30 147c-12 -71 -18 -98 -30 -147l-53 -211h-138l-154 483h140l51 -184c16 -58 23 -92 40 -177c14 85 18 108 37 183l44 178h129l51 -199c15 -61 20 -85 32 -161c15 78 22 111 35 158l55 202h138zM530 691l-135 -134h-89
l85 134h139z"/>
            <glyph glyph-name="Ygrave" unicode="&#x1ef2;" horiz-adv-x="606"
                   d="M623 667l-248 -410v-257h-145v259l-249 408h166l104 -178c17 -29 43 -84 53 -109c15 35 46 100 56 116l101 171h162zM127 844h153l84 -121h-97z"/>
            <glyph glyph-name="ygrave" unicode="&#x1ef3;" horiz-adv-x="489"
                   d="M493 483l-177 -481c-48 -137 -87 -174 -185 -174h-35l-54 1v109h15h39c53 0 75 17 75 60c0 13 -1 24 -4 31l-172 454h143l80 -237c10 -29 16 -53 30 -112c16 62 23 86 33 118l75 231h137zM85 691h140l84 -134h-89z"/>
            <glyph glyph-name="uni01D1" unicode="&#x1d1;" horiz-adv-x="727"
                   d="M369 683c191 0 323 -143 323 -350c0 -208 -132 -349 -327 -349c-198 0 -330 140 -330 349c0 212 131 350 334 350zM367 562c-114 0 -185 -87 -185 -228s70 -229 184 -229c110 0 179 89 179 231c0 137 -70 226 -178 226zM548 850l-109 -125h-125l-108 125h113l56 -65
l54 65h119z"/>
            <glyph glyph-name="uni01C4" unicode="&#x1c4;" horiz-adv-x="1234"
                   d="M1045 850l-108 -125h-125l-109 125h113l56 -65l54 65h119zM64 667h269c100 0 168 -22 223 -72c65 -59 100 -148 100 -253c0 -115 -31 -203 -94 -265c-56 -56 -119 -77 -226 -77h-272v667zM209 544v-421h112c69 0 105 12 135 45c35 38 53 96 53 169
c0 136 -66 207 -193 207h-107zM1198 667v-111l-298 -357c-12 -15 -13 -15 -74 -80c68 3 98 4 134 4h250v-123h-564v116l307 367c13 15 25 28 61 64c-56 -2 -82 -3 -121 -3h-222v123h527z"/>
            <glyph glyph-name="uni01C5" unicode="&#x1c5;" horiz-adv-x="1160"
                   d="M64 667h269c100 0 168 -22 223 -72c65 -59 100 -148 100 -253c0 -115 -31 -203 -94 -265c-56 -56 -119 -77 -226 -77h-272v667zM209 544v-421h112c69 0 105 12 135 45c35 38 53 96 53 169c0 136 -66 207 -193 207h-107zM1111 483v-97l-198 -224c-15 -17 -28 -30 -62 -62
c33 2 49 3 67 3h209v-103h-444v100l193 217c15 16 29 29 68 65c-22 -2 -31 -2 -49 -2h-193v103h409zM1074 691l-103 -134h-122l-105 134h106l60 -82l61 82h103z"/>
            <glyph glyph-name="uni01C6" unicode="&#x1c6;" horiz-adv-x="1166"
                   d="M1000 691l-103 -134h-122l-105 134h106l60 -82l61 82h103zM1036 483v-97l-198 -224c-15 -17 -28 -30 -62 -62c33 2 49 3 67 3h210v-103h-445v100l193 217c15 16 29 29 68 65c-22 -2 -31 -2 -49 -2h-193v103h409zM550 667v-667h-126v62c-32 -51 -80 -75 -146 -75
c-133 0 -219 100 -219 257c0 153 84 253 212 253c64 0 116 -26 147 -73v243h132zM308 394c-74 0 -116 -54 -116 -149c0 -94 43 -150 115 -150c73 0 116 55 116 149c0 93 -44 150 -115 150z"/>
            <glyph glyph-name="uni01C7" unicode="&#x1c7;" horiz-adv-x="1076"
                   d="M536 123v-123h-471v667h145v-544h326zM1021 667v-449c0 -78 -10 -119 -40 -158c-39 -51 -98 -76 -178 -76c-93 0 -161 33 -196 96c-19 35 -27 76 -27 142v27h135v-19c0 -50 3 -73 11 -90c12 -24 38 -38 72 -38c58 0 78 28 78 111v454h145z"/>
            <glyph glyph-name="uni01C8" unicode="&#x1c8;" horiz-adv-x="792"
                   d="M532 123v-123h-471v667h145v-544h326zM733 483v-483l1 -37c0 -59 -25 -103 -69 -123c-22 -10 -53 -15 -92 -15c-18 0 -29 0 -53 2v107c12 -1 17 -1 25 -1c32 0 46 6 51 24c4 13 5 22 5 83v443h132zM668 681c40 0 74 -34 74 -75s-34 -75 -75 -75s-75 34 -75 75
c0 42 34 75 76 75z"/>
            <glyph glyph-name="uni01C9" unicode="&#x1c9;" horiz-adv-x="465"
                   d="M190 667v-667h-132v667h132zM405 483v-483l1 -37c0 -59 -25 -103 -69 -123c-22 -10 -53 -15 -92 -15c-18 0 -29 0 -53 2v107c12 -1 17 -1 25 -1c32 0 46 6 51 24c4 13 5 22 5 83v443h132zM341 681c40 0 74 -34 74 -75s-34 -75 -75 -75s-75 34 -75 75c0 42 34 75 76 75z
"/>
            <glyph glyph-name="uni01CA" unicode="&#x1ca;" horiz-adv-x="1178"
                   d="M628 667v-667h-146l-199 322c-64 106 -64 107 -84 149c4 -40 5 -84 6 -187v-284h-140v667h148l194 -315c43 -71 72 -121 87 -154c-3 60 -5 124 -6 191v278h140zM1123 667v-449c0 -78 -10 -119 -40 -158c-39 -51 -98 -76 -178 -76c-93 0 -161 33 -196 96
c-19 35 -27 76 -27 142v27h135v-19c0 -50 3 -73 11 -90c12 -24 38 -38 72 -38c58 0 78 28 78 111v454h145z"/>
            <glyph glyph-name="uni01CB" unicode="&#x1cb;" horiz-adv-x="895"
                   d="M628 667v-667h-146l-199 322c-64 106 -64 107 -84 149c4 -40 5 -84 6 -187v-284h-140v667h148l194 -315c43 -71 72 -121 87 -154c-3 60 -5 124 -6 191v278h140zM835 483v-483l1 -37c0 -59 -25 -103 -69 -123c-22 -10 -53 -15 -92 -15c-18 0 -29 0 -53 2v107
c12 -1 17 -1 25 -1c32 0 46 6 51 24c4 13 5 22 5 83v443h132zM771 681c40 0 74 -34 74 -75s-34 -75 -75 -75s-75 34 -75 75c0 42 34 75 76 75z"/>
            <glyph glyph-name="uni01CC" unicode="&#x1cc;" horiz-adv-x="765"
                   d="M705 483v-483l1 -37c0 -59 -25 -103 -69 -123c-22 -10 -53 -15 -92 -15c-18 0 -30 0 -54 2v107c12 -1 17 -1 25 -1c33 0 47 6 52 24c4 12 5 22 5 83v443h132zM640 681c40 0 74 -34 74 -75s-34 -75 -75 -75s-75 34 -75 75c0 42 34 75 76 75zM184 483v-67
c42 56 91 80 161 80c62 0 113 -25 139 -66c19 -31 26 -63 26 -126v-304h-132v277c0 35 -2 53 -8 69c-10 26 -39 42 -75 42c-41 0 -76 -20 -92 -53c-9 -20 -13 -43 -13 -85v-250h-132v483h126z"/>
            <glyph glyph-name="uni0200" unicode="&#x200;" horiz-adv-x="657"
                   d="M404 668l254 -668h-153l-53 149h-248l-54 -149h-150l254 668h150zM416 256l-43 120c-25 71 -33 100 -44 145c-12 -42 -19 -64 -47 -145l-43 -120h177zM108 844h133l51 -121h-83zM274 844h134l51 -121h-84z"/>
            <glyph glyph-name="uni0201" unicode="&#x201;" horiz-adv-x="521"
                   d="M51 706h134l50 -121h-83zM218 706h133l51 -121h-83zM518 88v-86c-19 -9 -34 -12 -58 -12c-59 0 -89 19 -101 63c-43 -46 -94 -66 -166 -66c-105 0 -167 54 -167 145c0 47 16 84 47 107c32 24 71 35 151 44c105 12 124 22 124 63s-27 61 -83 61c-60 0 -85 -19 -91 -72
h-133c5 54 19 82 55 112c39 33 99 49 177 49c136 0 208 -47 208 -136v-234c0 -33 5 -38 33 -38h4zM348 186v51c-13 -11 -36 -18 -81 -24c-81 -10 -108 -28 -108 -75c0 -41 27 -62 82 -62c70 0 107 38 107 110z"/>
            <glyph glyph-name="uni00A0" unicode="&#xa0;" horiz-adv-x="250"
            />
            <glyph glyph-name="uni2218" unicode="&#x2218;" horiz-adv-x="500"
                   d="M253 479c74 0 135 -63 135 -139c0 -78 -61 -140 -137 -140s-138 63 -138 139c0 78 62 140 140 140zM252 431c-51 0 -92 -40 -92 -92c0 -50 41 -91 91 -91s90 41 90 91s-41 92 -89 92z"/>
            <glyph glyph-name="lozenge" unicode="&#x25ca;" horiz-adv-x="667"
                   d="M334 693l259 -359l-259 -360l-260 360zM334 604l-197 -270l197 -271l197 271z"/>
            <glyph glyph-name="Delta" unicode="&#x2206;" horiz-adv-x="645"
                   d="M8 0l243 667h141l245 -667h-629zM182 118h279l-138 405z"/>
            <glyph glyph-name="notequal" unicode="&#x2260;" horiz-adv-x="500"
                   d="M259 474l68 129l89 -48l-43 -81h94v-120h-143l-42 -79h184v-120h-228l-61 -114l-89 47l36 67h-91v120h135l42 79h-177v120h226z"/>
            <glyph glyph-name="radical" unicode="&#x221a;" horiz-adv-x="667"
                   d="M667 827v-113h-171l-188 -714h-157l-64 260h-87v113h165l30 -111c4 -16 14 -75 23 -141h7c25 145 34 185 70 322l101 384h271z"/>
            <glyph glyph-name="integral" unicode="&#x222b;" horiz-adv-x="500"
                   d="M52 -240l23 129c18 -8 28 -10 42 -10c27 0 47 13 55 34c4 13 4 13 5 106v437c0 141 0 141 10 177c19 72 87 117 177 117c26 0 45 -2 83 -10l-23 -129c-18 8 -28 10 -43 10c-26 0 -45 -12 -53 -34c-4 -11 -5 -25 -5 -62v-478c0 -140 0 -141 -11 -180
c-21 -75 -87 -115 -189 -115c-32 0 -51 2 -71 8z"/>
            <glyph glyph-name="similar" unicode="&#x223c;" horiz-adv-x="500"
                   d="M78 237l-70 59c36 90 85 134 148 134c25 0 55 -9 113 -34c53 -23 61 -26 78 -26c28 0 50 18 74 62l70 -58c-25 -60 -44 -87 -77 -109c-23 -16 -49 -24 -76 -24c-26 0 -40 4 -114 37c-36 16 -58 22 -74 22c-27 0 -47 -17 -72 -63z"/>
            <glyph glyph-name="approxequal" unicode="&#x2248;" horiz-adv-x="500"
                   d="M79 348l-70 49c36 89 85 134 148 134c25 0 55 -9 113 -34c53 -23 61 -26 78 -26c30 0 44 10 74 54l70 -50c-40 -95 -83 -132 -156 -132c-27 0 -41 4 -111 36c-35 15 -57 22 -75 22c-26 0 -43 -13 -71 -53zM79 136l-70 49c37 90 85 134 148 134c25 0 55 -9 113 -34
c55 -24 61 -26 78 -26c30 0 44 10 74 54l70 -49c-40 -96 -83 -133 -156 -133c-27 0 -41 5 -111 36c-35 15 -58 22 -75 22c-26 0 -43 -13 -71 -53z"/>
            <glyph glyph-name="uni2243" unicode="&#x2243;" horiz-adv-x="500"
                   d="M79 348l-70 49c36 90 85 134 148 134c25 0 56 -9 113 -34c53 -23 61 -26 79 -26c29 0 43 10 73 54l70 -49c-39 -96 -83 -133 -156 -133c-27 0 -40 4 -111 36c-36 17 -57 23 -76 23c-25 0 -43 -14 -70 -54zM34 266h433v-126h-433v126z"/>
            <glyph glyph-name="lessequal" unicode="&#x2264;" horiz-adv-x="500"
                   d="M466 640v-135l-277 -91l276 -91l1 -134l-433 165v121zM466 162v-126h-433v126h433z"/>
            <glyph glyph-name="greaterequal" unicode="&#x2265;" horiz-adv-x="500"
                   d="M33 189l1 134l276 91l-277 91v135l433 -165v-121zM33 36v126h433v-126h-433z"/>
            <glyph glyph-name="infinity" unicode="&#x221e;" horiz-adv-x="667"
                   d="M336 277c-48 -63 -101 -94 -162 -94c-92 0 -156 65 -156 157c0 91 66 156 157 156c58 0 112 -32 157 -94c44 62 99 94 161 94c92 0 156 -65 156 -157s-64 -157 -155 -157c-61 0 -113 31 -158 95zM381 339c33 -50 63 -72 99 -72c41 0 71 31 71 72s-31 72 -71 72
c-36 0 -64 -20 -99 -72zM287 339c-35 51 -64 72 -100 72c-41 0 -71 -31 -71 -72c0 -40 31 -71 71 -71c36 0 64 20 100 71z"/>
            <glyph glyph-name="product" unicode="&#x220f;" horiz-adv-x="667"
                   d="M20 750h627v-109h-72v-782h72v-109h-260v109h66v782h-239v-782h65v-109h-259v109h73v782h-73v109z"/>
            <glyph glyph-name="summation" unicode="&#x2211;" horiz-adv-x="667"
                   d="M619 750v-252h-123l-14 127h-296l244 -359l-242 -391h303l8 131h129v-256h-594v144l234 372l-234 340v144h585z"/>
            <glyph glyph-name="afii61289" unicode="&#x2113;" horiz-adv-x="500"
                   d="M255 259c-14 -80 -23 -154 -23 -180c0 -17 5 -25 14 -25c12 0 20 9 38 45c8 16 14 21 24 21c12 0 19 -9 19 -23c0 -18 -10 -44 -26 -67c-23 -33 -53 -51 -84 -51c-33 0 -61 19 -74 51c-9 21 -12 43 -12 91c0 19 0 28 1 46c-19 -22 -37 -38 -43 -38c-9 0 -18 15 -18 30
c0 14 0 14 39 58c6 6 17 19 30 37c50 283 117 416 212 416c50 0 83 -38 83 -97c0 -54 -28 -127 -73 -193c-17 -25 -30 -39 -107 -121zM265 332c61 68 112 175 112 236c0 19 -9 33 -22 33c-34 0 -58 -71 -90 -269z"/>
            <glyph glyph-name="partialdiff" unicode="&#x2202;" horiz-adv-x="500"
                   d="M63 560l16 106c128 -15 207 -46 276 -107c83 -73 125 -175 125 -301c0 -71 -14 -124 -43 -169c-42 -63 -110 -98 -189 -98c-131 0 -228 97 -228 227c0 122 88 215 202 215c54 0 83 -11 126 -50c-6 11 -11 20 -13 23c-27 55 -63 90 -114 112c-62 27 -92 35 -158 42z
M253 332c-64 0 -113 -52 -113 -118c0 -63 49 -116 108 -116c61 0 109 52 109 118s-46 116 -104 116z"/>
            <glyph glyph-name="underscoredbl" unicode="&#x2017;" horiz-adv-x="500"
                   d="M0 -52h500v-60h-500v60zM0 -169h500v-60h-500v60z"/>
            <glyph glyph-name="uni203E" unicode="&#x203e;" horiz-adv-x="500"
                   d="M0 874h500v-85h-500v85z"/>
            <glyph glyph-name="emptyset" unicode="&#x2205;" horiz-adv-x="618"
                   d="M439 667l48 -25l-48 -88c75 -53 113 -122 113 -204c0 -136 -109 -243 -248 -243c-33 0 -56 5 -79 16l-63 -123l-48 25l61 122c-72 53 -108 120 -108 202c0 136 108 243 244 243c29 0 51 -4 81 -14zM416 502l-165 -330c24 -6 39 -8 58 -8c103 0 187 83 187 185
c0 63 -31 123 -80 153zM200 198l166 329c-21 6 -34 8 -54 8c-104 0 -189 -83 -189 -185c0 -60 26 -111 77 -152z"/>
            <glyph glyph-name="uni2126" unicode="&#x2126;" horiz-adv-x="666"
                   d="M28 0v118h144c-101 62 -147 140 -147 251c0 175 137 314 308 314c173 0 309 -139 309 -315c0 -110 -45 -187 -147 -250h144v-118h-268v109c40 21 61 39 83 72c35 50 50 100 50 162c0 124 -74 220 -170 220s-171 -96 -171 -219c0 -110 45 -189 133 -235v-109h-268z"/>
            <glyph glyph-name="estimated" unicode="&#x212e;"
                   d="M146 241v-168c40 -39 81 -55 136 -55c79 0 129 31 180 111l33 -19c-60 -92 -117 -126 -212 -126c-142 0 -242 106 -242 257s99 258 241 258c143 0 241 -105 241 -258h-377zM418 275v136c-43 38 -84 55 -137 55s-94 -17 -135 -55v-136h272z"/>
            <glyph glyph-name="pi" unicode="&#x3c0;" horiz-adv-x="619"
                   d="M96 0v382h-73v101h573v-101h-72v-382h-127v382h-174v-382h-127z"/>
            <glyph glyph-name="uni018F" unicode="&#x18f;" horiz-adv-x="727"
                   d="M216 496l-110 56c54 82 151 131 260 131c194 0 326 -142 326 -350c0 -209 -131 -349 -327 -349c-197 0 -330 140 -330 348c0 18 1 32 3 52h508c-8 46 -16 71 -33 99c-33 54 -85 83 -150 83c-61 0 -113 -24 -147 -70zM544 276h-361c7 -40 15 -64 29 -88
c31 -54 89 -87 154 -87c95 0 157 61 178 175z"/>
            <glyph glyph-name="afii61352" unicode="&#x2116;" horiz-adv-x="1041"
                   d="M628 667v-667h-146l-199 322c-64 106 -64 107 -84 149c4 -40 5 -84 6 -187v-284h-140v667h148l194 -315c43 -71 72 -121 87 -154c-3 60 -5 124 -6 191v278h140zM1008 134v-92h-320v92h320zM851 499c94 0 157 -66 157 -163c0 -98 -63 -163 -160 -163
c-96 0 -160 65 -160 163s65 163 163 163zM849 411c-36 0 -57 -28 -57 -76c0 -46 21 -74 56 -74s56 28 56 75s-21 75 -55 75z"/>
            <glyph glyph-name="uni01DD" unicode="&#x1dd;" horiz-adv-x="546"
                   d="M167 333h-127c25 99 114 163 226 163c149 0 248 -101 248 -252c0 -149 -103 -257 -243 -257c-144 0 -239 107 -239 269v20h347c-3 81 -43 125 -114 125c-49 0 -78 -20 -98 -68zM378 191h-211c8 -70 45 -109 104 -109s100 42 107 109z"/>
            <glyph glyph-name="uni2120" unicode="&#x2120;" horiz-adv-x="957"
                   d="M386 547h-95c-5 41 -26 58 -74 58c-39 0 -61 -14 -61 -39c0 -21 14 -29 76 -44c82 -19 102 -26 125 -41c29 -19 43 -47 43 -82c0 -77 -67 -126 -172 -126c-65 0 -116 18 -147 52c-24 26 -32 48 -34 91h95c4 -48 31 -70 87 -70c47 0 76 16 76 42c0 11 -7 21 -22 30
s-16 9 -72 22c-109 24 -150 55 -150 118c0 72 64 120 160 120c58 0 107 -17 135 -48c21 -23 28 -42 30 -83zM577 668l97 -253l97 253h126v-385h-90v273h-2l-99 -273h-65l-99 273h-2v-273h-89v385h126z"/>
            <glyph glyph-name="uniE001" unicode="&#xe001;" horiz-adv-x="370"
                   d="M165 654v39h38v-40c86 -9 134 -54 135 -125h-91c-2 30 -16 48 -44 53v-79c114 -25 148 -51 148 -112c0 -72 -50 -113 -148 -121v-45h-38v45c-95 7 -151 58 -151 136h91c1 -37 21 -58 60 -66v89c-6 2 -7 2 -15 4l-9 2c-80 20 -114 52 -114 106c0 64 49 105 138 114z
M165 512v71c-31 -2 -47 -15 -47 -37c0 -18 9 -24 47 -34zM203 420v-82c40 6 57 18 57 40c0 19 -20 34 -57 42z"/>
            <glyph glyph-name="uniE002" unicode="&#xe002;" horiz-adv-x="562"
                   d="M27 186h97l25 122h-80v84h96l19 91h92l-19 -91h109l19 91h91l-18 -91h78v-84h-95l-24 -122h78v-85h-95l-21 -101h-92l21 101h-109l-20 -101h-92l20 101h-80v85zM216 186h109l24 122h-108z"/>
            <glyph glyph-name="uniE003" unicode="&#xe003;" horiz-adv-x="605"
                   d="M147 684c68 0 106 -45 106 -126c0 -76 -40 -120 -108 -120s-106 42 -106 119c0 79 41 127 108 127zM146 615c-16 0 -23 -17 -23 -58c0 -38 5 -50 22 -50s24 16 24 51c0 39 -7 57 -23 57zM223 243h-86l248 445h85zM463 493c67 0 105 -44 105 -123
c0 -76 -41 -122 -109 -122c-66 0 -105 45 -105 122c0 76 41 123 109 123zM462 424c-16 0 -24 -16 -24 -51c0 -42 6 -56 22 -56c17 0 24 16 24 52c0 39 -7 55 -22 55z"/>
            </font>
</defs>
</svg>
